SplineFontDB: 3.2
FontName: TensoraMono
FullName: Tensora Mono
FamilyName: Tensora Mono
Weight: Book
Copyright: 
UComments: "Patched with 'Nerd Fonts Patcher' (https://github.com/ryanoasis/nerd-fonts)+AAoACgAA* Website: https://www.nerdfonts.com+AAoA* Version: 2.1.0+AAoA* Development Website: https://github.com/ryanoasis/nerd-fonts+AAoA* Changelog: https://github.com/ryanoasis/nerd-fonts/blob/master/changelog.md"
FontLog: "Patched with 'Nerd Fonts Patcher' (https://github.com/ryanoasis/nerd-fonts)+AAoACgAA* Website: https://www.nerdfonts.com+AAoA* Version: 2.1.0+AAoA* Development Website: https://github.com/ryanoasis/nerd-fonts+AAoA* Changelog: https://github.com/ryanoasis/nerd-fonts/blob/master/changelog.md"
Version: 0.01;Nerd Fonts 2.1.
ItalicAngle: 0
UnderlinePosition: -70
UnderlineWidth: 71
Ascent: 800
Descent: 200
InvalidEm: 0
sfntRevision: 0x0000028f
LayerCount: 2
Layer: 0 1 "Back" 1
Layer: 1 1 "Fore" 0
XUID: [1021 403 1321181436 5955902]
StyleMap: 0x0040
FSType: 0
OS2Version: 3
OS2_WeightWidthSlopeOnly: 0
OS2_UseTypoMetrics: 0
CreationTime: 1178315799
ModificationTime: 1704696433
PfmFamily: 17
TTFWeight: 400
TTFWidth: 5
LineGap: 0
VLineGap: 0
Panose: 2 0 5 9 0 0 0 0 0 0
OS2TypoAscent: 800
OS2TypoAOffset: 0
OS2TypoDescent: -200
OS2TypoDOffset: 0
OS2TypoLinegap: 0
OS2WinAscent: 1001
OS2WinAOffset: 0
OS2WinDescent: 211
OS2WinDOffset: 0
HheadAscent: 1001
HheadAOffset: 0
HheadDescent: -211
HheadDOffset: 0
OS2SubXSize: 650
OS2SubYSize: 699
OS2SubXOff: 0
OS2SubYOff: 140
OS2SupXSize: 650
OS2SupYSize: 699
OS2SupXOff: 0
OS2SupYOff: 479
OS2StrikeYSize: 49
OS2StrikeYPos: 258
OS2CapHeight: 725
OS2XHeight: 530
OS2Vendor: 'PfEd'
OS2CodePages: 00000013.85500000
OS2UnicodeRanges: 8000006f.00000100.00000000.00000000
MarkAttachClasses: 1
DEI: 91125
ShortTable: maxp 16
  1
  0
  527
  2108
  68
  0
  0
  2
  0
  1
  1
  0
  64
  0
  0
  0
EndShort
LangName: 1033 "" "" "" "" "" "" "" "" "" "" "" "" "" "" "http://scripts.sil.org/ofl" "" "Tensora Mono" "" "Tensora Mono"

StartChar: exclam
Encoding: 33 33 4
Width: 600
GlyphClass: 2
Flags: W
LayerCount: 2
Fore
SplineSet
347 565 m 1,0,-1
 338 195 l 1,1,-1
 262 195 l 1,2,-1
 253 565 l 1,3,-1
 253 723 l 5,4,-1
 347 723 l 1,5,-1
 347 565 l 1,0,-1
352 0 m 1,6,-1
 248 0 l 1,7,-1
 248 95 l 1,8,-1
 352 95 l 1,9,-1
 352 0 l 1,6,-1
EndSplineSet
Validated: 1
EndChar

StartChar: quotedbl
Encoding: 34 34 5
Width: 600
GlyphClass: 2
Flags: W
HStem: 405 321<169 169 169 229 369 369 369 429>
VStem: 151 96<655 726 655 726> 351 96<655 726 655 726>
LayerCount: 2
Fore
SplineSet
169 405 m 1,0,-1
 151 655 l 1,1,-1
 151 726 l 1,2,-1
 247 726 l 1,3,-1
 247 655 l 1,4,-1
 229 405 l 1,5,-1
 169 405 l 1,0,-1
351 655 m 1,6,-1
 351 726 l 1,7,-1
 447 726 l 1,8,-1
 447 655 l 1,9,-1
 429 405 l 1,10,-1
 369 405 l 1,11,-1
 351 655 l 1,6,-1
EndSplineSet
Validated: 1
EndChar

StartChar: numbersign
Encoding: 35 35 6
Width: 600
VWidth: 1024
GlyphClass: 2
Flags: W
LayerCount: 2
Fore
SplineSet
335 0 m 1,0,-1
 350 180 l 1,1,-1
 220 180 l 1,2,-1
 205 0 l 1,3,-1
 117 0 l 1,4,-1
 132 180 l 1,5,-1
 50 180 l 1,6,-1
 50 265 l 1,7,-1
 139.5 265 l 1,8,-1
 154.5 445 l 1,9,-1
 50 445 l 1,10,-1
 50 530 l 1,11,-1
 162 530 l 1,12,-1
 177 710 l 1,13,-1
 265 710 l 1,14,-1
 250 530 l 1,15,-1
 380 530 l 1,16,-1
 395 710 l 1,17,-1
 483 710 l 1,18,-1
 468 530 l 1,19,-1
 550 530 l 1,20,-1
 550 445 l 1,21,-1
 460.5 445 l 1,22,-1
 445.5 265 l 1,23,-1
 550 265 l 1,24,-1
 550 180 l 1,25,-1
 438 180 l 1,26,-1
 423 0 l 1,27,-1
 335 0 l 1,0,-1
227.5 265 m 1,28,-1
 357.5 265 l 1,29,-1
 372.5 445 l 1,30,-1
 242.5 445 l 1,31,-1
 227.5 265 l 1,28,-1
EndSplineSet
Validated: 1
EndChar

StartChar: dollar
Encoding: 36 36 7
Width: 600
GlyphClass: 2
Flags: W
LayerCount: 2
Fore
SplineSet
70 0 m 2,0,-1
 70 75 l 1,1,-1
 281 75 l 1,2,-1
 281 300 l 1,3,-1
 269 300 l 2,4,5
 109 300 109 300 76 450 c 0,6,7
 73 464 73 464 73 481 c 2,8,-1
 73 542 l 2,9,10
 73 609 73 609 119 649.5 c 128,-1,11
 165 690 165 690 243 690 c 2,12,-1
 281 690 l 1,13,-1
 281 770 l 1,14,-1
 336 770 l 1,15,-1
 336 690 l 1,16,-1
 530 690 l 1,17,-1
 530 615 l 1,18,-1
 336 615 l 1,19,-1
 336 378 l 1,20,-1
 359 378 l 2,21,22
 424 378 424 378 478 334 c 0,23,24
 525 295 525 295 525 221 c 2,25,-1
 525 150 l 2,26,27
 525 0 525 0 357 0 c 2,28,-1
 336 0 l 1,29,-1
 336 -79 l 1,30,-1
 281 -79 l 1,31,-1
 281 0 l 1,32,33
 175 -2 175 -2 122.5 -2 c 128,-1,34
 70 -2 70 -2 70 0 c 2,0,-1
358 75 m 0,35,36
 386 75 386 75 416 97 c 0,37,38
 450 123 450 123 450 148 c 2,39,-1
 450 217 l 2,40,41
 450 300 450 300 359 300 c 2,42,-1
 336 300 l 1,43,-1
 336 75 l 1,44,45
 356 74 356 74 358 75 c 0,35,36
269 375 m 2,46,-1
 281 375 l 1,47,-1
 281 615 l 1,48,-1
 242 615 l 2,49,50
 150 615 150 615 150 543 c 2,51,-1
 150 486 l 2,52,53
 150 375 150 375 269 375 c 2,46,-1
EndSplineSet
Validated: 1
EndChar

StartChar: percent
Encoding: 37 37 8
Width: 600
GlyphClass: 2
Flags: W
HStem: -9 66<409.5 458 409.5 480> 0 21G<42 42 42 124> 208 63<409.5 458> 409 66<138.5 187 138.5 209> 626 63<138.5 187> 660 20G<468 551 551 551>
VStem: 34 72<516.5 579.5 516.5 598> 222 72<516.5 580> 305 72<98.5 161.5 98.5 180> 493 72<98.5 162>
LayerCount: 2
Fore
SplineSet
42 0 m 1,0,-1
 468 680 l 1,1,-1
 551 680 l 1,2,-1
 124 0 l 1,3,-1
 42 0 l 1,0,-1
34 547 m 0,4,5
 34 623 34 623 64 656 c 128,-1,6
 94 689 94 689 163 689 c 128,-1,7
 232 689 232 689 263 656 c 128,-1,8
 294 623 294 623 294 547 c 0,9,10
 294 475 294 475 263 442 c 128,-1,11
 232 409 232 409 163 409 c 128,-1,12
 94 409 94 409 64 441.5 c 128,-1,13
 34 474 34 474 34 547 c 0,4,5
106 547 m 0,14,15
 106 501 106 501 116 488 c 128,-1,16
 126 475 126 475 163 475 c 0,17,18
 199 475 199 475 210.5 488.5 c 128,-1,19
 222 502 222 502 222 547 c 0,20,21
 222 596 222 596 210.5 611 c 128,-1,22
 199 626 199 626 163 626 c 128,-1,23
 127 626 127 626 116.5 611 c 128,-1,24
 106 596 106 596 106 547 c 0,14,15
305 129 m 0,25,26
 305 205 305 205 335 238 c 128,-1,27
 365 271 365 271 434 271 c 128,-1,28
 503 271 503 271 534 238 c 128,-1,29
 565 205 565 205 565 129 c 0,30,31
 565 56 565 56 534 23.5 c 128,-1,32
 503 -9 503 -9 434 -9 c 128,-1,33
 365 -9 365 -9 335 23.5 c 128,-1,34
 305 56 305 56 305 129 c 0,25,26
377 129 m 0,35,36
 377 83 377 83 387 70 c 128,-1,37
 397 57 397 57 434 57 c 0,38,39
 470 57 470 57 481.5 70.5 c 128,-1,40
 493 84 493 84 493 129 c 0,41,42
 493 178 493 178 481.5 193 c 128,-1,43
 470 208 470 208 434 208 c 128,-1,44
 398 208 398 208 387.5 193 c 128,-1,45
 377 178 377 178 377 129 c 0,35,36
EndSplineSet
Validated: 1
EndChar

StartChar: ampersand
Encoding: 38 38 9
Width: 600
GlyphClass: 2
Flags: W
HStem: -10 69<214.5 303 214.5 314.5> 0 21G<497 588 497 497> 623 67<218 286>
VStem: 49 76<130 191.5 130 209.5> 86 77<533 576 533 602> 340 76<535.5 576> 444 74<295.5 324>
LayerCount: 2
Fore
SplineSet
271 -10 m 0,0,1
 143 -10 143 -10 96 29.5 c 128,-1,2
 49 69 49 69 49 178 c 0,3,4
 49 224 49 224 76 262 c 128,-1,5
 103 300 103 300 183 373 c 1,6,7
 113 431 113 431 104.5 444 c 0,8,9
 86 477 86 477 86 547 c 0,10,11
 86 630 86 630 121 660 c 128,-1,12
 156 690 156 690 251 690 c 0,13,14
 347 690 347 690 381.5 660 c 128,-1,15
 416 630 416 630 416 547 c 0,16,17
 416 520 416 520 386 479 c 128,-1,18
 356 438 356 438 281 365 c 1,19,-1
 440 173 l 1,20,21
 444 194 444 194 444 324 c 1,22,-1
 518 324 l 1,23,24
 520 184 520 184 495 112 c 1,25,-1
 588 0 l 1,26,-1
 497 0 l 1,27,-1
 457 47 l 1,28,29
 404 -10 404 -10 271 -10 c 0,0,1
125 174 m 0,30,31
 125 108 125 108 156 83.5 c 128,-1,32
 187 59 187 59 271 59 c 0,33,34
 325 59 325 59 357.5 68 c 128,-1,35
 390 77 390 77 409 103 c 1,36,-1
 226 321 l 1,37,38
 168 263 168 263 146.5 232 c 128,-1,39
 125 201 125 201 125 174 c 0,30,31
163 543.5 m 0,40,41
 163 475 163 475 174.5 466 c 0,42,43
 205 443 205 443 236 420 c 1,44,45
 302 485 302 485 321 508 c 128,-1,46
 340 531 340 531 340 547 c 0,47,48
 340 591 340 591 321.5 607 c 128,-1,49
 303 623 303 623 252 623 c 128,-1,50
 201 623 201 623 182 607 c 128,-1,51
 163 591 163 591 163 543.5 c 0,40,41
EndSplineSet
Validated: 33
EndChar

StartChar: quotesingle
Encoding: 39 39 10
Width: 600
GlyphClass: 2
Flags: W
HStem: 405 321<266.5 266.5 266.5 333.5>
VStem: 246.5 107<655 726 655 726>
LayerCount: 2
Fore
SplineSet
266.5 405 m 1,0,-1
 246.5 655 l 1,1,-1
 246.5 726 l 1,2,-1
 353.5 726 l 1,3,-1
 353.5 655 l 1,4,-1
 333.5 405 l 1,5,-1
 266.5 405 l 1,0,-1
EndSplineSet
Validated: 1
EndChar

StartChar: parenleft
Encoding: 40 40 11
Width: 600
VWidth: 1450
GlyphClass: 2
Flags: W
HStem: 1072.29 34.496G<353.056 408.25 408.25 408.25>
VStem: 185.75 44.8448<194.367 496.207>
LayerCount: 2
Fore
SplineSet
419 -412 m 0,0,1
 419 -422 419 -422 409 -422 c 0,2,3
 402 -422 402 -422 378 -402 c 128,-1,4
 354 -382 354 -382 317 -336 c 128,-1,5
 280 -290 280 -290 253 -234 c 0,6,7
 187 -98 187 -98 187 339 c 0,8,9
 187 782 187 782 250 915 c 0,10,11
 277 972 277 972 314.5 1020 c 128,-1,12
 352 1068 352 1068 377 1089 c 128,-1,13
 402 1110 402 1110 409 1110 c 0,14,15
 419 1110 419 1110 419 1100 c 0,16,17
 419 1095 419 1095 406 1083 c 0,18,19
 245 919 245 919 245 343.5 c 128,-1,20
 245 -232 245 -232 402 -390 c 0,21,22
 419 -407 419 -407 419 -412 c 0,0,1
EndSplineSet
Validated: 1
EndChar

StartChar: parenright
Encoding: 41 41 12
Width: 600
VWidth: 1450
GlyphClass: 2
Flags: W
HStem: 1072.29 34.496G<185.75 240.944 240.944 240.944>
VStem: 363.405 44.8448<194.367 496.207 194.367 500.519>
LayerCount: 2
Fore
SplineSet
407 343 m 0,0,1
 407 -96 407 -96 344 -229 c 0,2,3
 317 -286 317 -286 279.5 -334 c 128,-1,4
 242 -382 242 -382 217 -403 c 128,-1,5
 192 -424 192 -424 185 -424 c 0,6,7
 175 -424 175 -424 175 -414 c 0,8,9
 175 -409 175 -409 188 -397 c 0,10,11
 349 -233 349 -233 349 343 c 0,12,13
 349 929 349 929 194 1076 c 0,14,15
 175 1094 175 1094 175 1099 c 0,16,17
 175 1109 175 1109 185 1109 c 0,18,19
 192 1109 192 1109 216 1089 c 128,-1,20
 240 1069 240 1069 277 1023 c 128,-1,21
 314 977 314 977 341 921 c 0,22,23
 407 785 407 785 407 343 c 0,0,1
EndSplineSet
Validated: 1
EndChar

StartChar: asterisk
Encoding: 42 42 13
Width: 600
VWidth: 1060
GlyphClass: 2
Flags: W
HStem: 296.8 378<258.15 384.15>
VStem: 258.15 80.1<609.1 674.8 609.1 674.8>
LayerCount: 2
Fore
SplineSet
384.149414062 296.799804688 m 1,0,-1
 343.649414062 350.799804688 l 1,1,-1
 302.25 438.099609375 l 1,2,-1
 295.049804688 438.099609375 l 1,3,-1
 253.649414062 349.900390625 l 1,4,-1
 215.849609375 297.700195312 l 1,5,-1
 151.049804688 344.5 l 1,6,-1
 188.849609375 396.700195312 l 1,7,-1
 262.649414062 463.299804688 l 1,8,-1
 260.849609375 468.700195312 l 1,9,-1
 163.649414062 482.200195312 l 1,10,-1
 101.549804688 502.900390625 l 1,11,-1
 124.950195312 574.900390625 l 1,12,-1
 187.950195312 556.900390625 l 1,13,-1
 273.450195312 507.400390625 l 1,14,-1
 277.950195312 512.799804688 l 1,15,-1
 258.149414062 609.099609375 l 1,16,-1
 258.149414062 674.799804688 l 1,17,-1
 338.25 674.799804688 l 1,18,-1
 338.25 609.099609375 l 1,19,-1
 319.349609375 512.799804688 l 1,20,-1
 324.75 509.200195312 l 1,21,-1
 410.25 556.900390625 l 1,22,-1
 474.149414062 576.700195312 l 1,23,-1
 498.450195312 501.099609375 l 1,24,-1
 434.549804688 481.299804688 l 1,25,-1
 336.450195312 468.700195312 l 1,26,-1
 335.549804688 463.299804688 l 1,27,-1
 406.649414062 398.5 l 1,28,-1
 447.149414062 343.599609375 l 1,29,-1
 384.149414062 296.799804688 l 1,0,-1
EndSplineSet
Validated: 1
EndChar

StartChar: plus
Encoding: 43 43 14
Width: 600
GlyphClass: 2
Flags: W
LayerCount: 2
Fore
SplineSet
560 246 m 1,0,-1
 339 246 l 1,1,-1
 339 34 l 1,2,-1
 261 34 l 1,3,-1
 261 246 l 1,4,-1
 40 246 l 1,5,-1
 40 318 l 1,6,-1
 261 318 l 1,7,-1
 261 530 l 1,8,-1
 339 530 l 1,9,-1
 339 318 l 1,10,-1
 560 318 l 1,11,-1
 560 246 l 1,0,-1
EndSplineSet
Validated: 1
EndChar

StartChar: comma
Encoding: 44 44 15
Width: 600
GlyphClass: 2
Flags: W
LayerCount: 2
Fore
SplineSet
371 32 m 1,0,-1
 264 -142 l 1,1,-1
 175 -142 l 1,2,-1
 229 32 l 1,3,-1
 229 95 l 1,4,-1
 371 95 l 1,5,-1
 371 32 l 1,0,-1
EndSplineSet
Validated: 1
EndChar

StartChar: hyphen
Encoding: 45 45 16
Width: 600
GlyphClass: 2
Flags: W
LayerCount: 2
Fore
SplineSet
590 246 m 1,0,-1
 10 246 l 1,1,-1
 10 318 l 1,2,-1
 590 318 l 1,3,-1
 590 246 l 1,0,-1
EndSplineSet
Validated: 1
EndChar

StartChar: period
Encoding: 46 46 17
Width: 600
VWidth: 1367
GlyphClass: 2
Flags: W
LayerCount: 2
Fore
SplineSet
188.614257812 67.740234375 m 5,0,-1
 300 178.456054688 l 5,1,-1
 411.385742188 67.740234375 l 1,2,-1
 300 -43.6455078125 l 5,3,-1
 188.614257812 67.740234375 l 5,0,-1
EndSplineSet
Validated: 1
EndChar

StartChar: slash
Encoding: 47 47 18
Width: 600
GlyphClass: 2
Flags: W
LayerCount: 2
Fore
SplineSet
605 759 m 1,0,-1
 84 -129 l 1,1,-1
 -5 -129 l 1,2,-1
 516 759 l 5,3,-1
 605 759 l 1,0,-1
EndSplineSet
Validated: 1
EndChar

StartChar: zero
Encoding: 48 48 19
Width: 600
GlyphClass: 2
Flags: W
HStem: -14 74<251.5 348.5 251.5 372> 261 150<280.5 315.5 280 316> 612 74<251.5 348.5>
VStem: 71 85<286.5 385.5 286.5 388.5> 248 100<324.5 347.5 319.5 352.5> 444 85<286.5 385.5>
LayerCount: 2
Fore
SplineSet
298 261 m 0,0,1
 272 261 272 261 264 265.5 c 128,-1,2
 256 270 256 270 253 285 c 0,3,4
 248 306 248 306 248 336 c 0,5,6
 248 363 248 363 253 386 c 0,7,8
 257 403 257 403 264 407 c 128,-1,9
 271 411 271 411 298 411 c 0,10,11
 324 411 324 411 332 406.5 c 128,-1,12
 340 402 340 402 343 387 c 0,13,14
 348 366 348 366 348 336 c 0,15,16
 348 309 348 309 343 286 c 0,17,18
 339 269 339 269 332 265 c 128,-1,19
 325 261 325 261 298 261 c 0,0,1
71 336 m 0,20,21
 71 452 71 452 91 536 c 0,22,23
 114 633 114 633 152 659.5 c 128,-1,24
 190 686 190 686 300 686 c 128,-1,25
 410 686 410 686 448 659.5 c 128,-1,26
 486 633 486 633 509 536 c 0,27,28
 529 452 529 452 529 336 c 0,29,30
 529 216 529 216 510 136 c 0,31,32
 487 39 487 39 448.5 12.5 c 128,-1,33
 410 -14 410 -14 300 -14 c 128,-1,34
 190 -14 190 -14 151.5 12.5 c 128,-1,35
 113 39 113 39 90 136 c 0,36,37
 71 216 71 216 71 336 c 0,20,21
156 336 m 128,-1,39
 156 249 156 249 171 162 c 0,40,41
 181 104 181 104 206 82 c 128,-1,42
 231 60 231 60 300 60 c 128,-1,43
 369 60 369 60 394 82 c 128,-1,44
 419 104 419 104 429 162 c 0,45,46
 444 249 444 249 444 336 c 128,-1,47
 444 423 444 423 429 510 c 0,48,49
 419 568 419 568 394 590 c 128,-1,50
 369 612 369 612 300 612 c 128,-1,51
 231 612 231 612 206 590 c 128,-1,52
 181 568 181 568 171 510 c 0,53,38
 156 423 156 423 156 336 c 128,-1,39
EndSplineSet
Validated: 1
EndChar

StartChar: one
Encoding: 49 49 20
Width: 617
VWidth: 1033
GlyphClass: 2
Flags: W
HStem: -17 22.05G<324.275 324.275 324.275 412.475> 522.7 21G<98.525 98.525> 602.5 94.5<324.275 330.575 324.275 324.275>
VStem: 324.275 88.2<-17 495.4 495.4 495.4 602.5 602.5>
LayerCount: 2
Fore
SplineSet
324.275390625 -17 m 1,0,-1
 324.275390625 495.400390625 l 1,1,-1
 330.575195312 602.5 l 1,2,-1
 324.275390625 602.5 l 1,3,-1
 252.875 542.650390625 l 1,4,-1
 98.525390625 445 l 1,5,-1
 98.525390625 543.700195312 l 1,6,-1
 311.674804688 697 l 1,7,-1
 412.474609375 697 l 1,8,-1
 412.474609375 -17 l 1,9,-1
 324.275390625 -17 l 1,0,-1
EndSplineSet
Validated: 1
EndChar

StartChar: two
Encoding: 50 50 21
Width: 615
VWidth: 1032
GlyphClass: 2
Flags: W
HStem: -17.25 84<169.95 532.2 169.95 532.2> 627.45 79.8<244.5 345.3>
VStem: 76.5 93.45<66.75 81.45 66.75 115.05 66.75 115.05> 427.2 89.25<488.325 554.475>
LayerCount: 2
Fore
SplineSet
76.5 115.049804688 m 1,0,1
 214.049804688 232.650390625 214.049804688 232.650390625 279.150390625 293.025390625 c 128,-1,2
 344.25 353.400390625 344.25 353.400390625 387.299804688 408 c 0,3,4
 410.400390625 435.299804688 410.400390625 435.299804688 418.799804688 456.825195312 c 128,-1,5
 427.200195312 478.349609375 427.200195312 478.349609375 427.200195312 508.799804688 c 0,6,7
 427.200195312 577.049804688 427.200195312 577.049804688 398.849609375 602.25 c 128,-1,8
 370.5 627.450195312 370.5 627.450195312 293.849609375 627.450195312 c 0,9,10
 220.349609375 627.450195312 220.349609375 627.450195312 190.950195312 606.450195312 c 128,-1,11
 161.549804688 585.450195312 161.549804688 585.450195312 155.25 526.650390625 c 1,12,-1
 61.7998046875 526.650390625 l 1,13,14
 70.2001953125 631.650390625 70.2001953125 631.650390625 119.025390625 669.450195312 c 128,-1,15
 167.849609375 707.25 167.849609375 707.25 292.799804688 707.25 c 0,16,17
 421.950195312 707.25 421.950195312 707.25 469.200195312 664.724609375 c 128,-1,18
 516.450195312 622.200195312 516.450195312 622.200195312 516.450195312 506.700195312 c 0,19,20
 516.450195312 458.400390625 516.450195312 458.400390625 501.75 424.799804688 c 128,-1,21
 487.049804688 391.200195312 487.049804688 391.200195312 446.099609375 347.099609375 c 0,22,23
 313.799804688 206.400390625 313.799804688 206.400390625 169.950195312 81.4501953125 c 1,24,-1
 169.950195312 66.75 l 1,25,-1
 532.200195312 66.75 l 1,26,-1
 532.200195312 -17.25 l 1,27,-1
 76.5 -17.25 l 1,28,-1
 76.5 115.049804688 l 1,0,1
EndSplineSet
Validated: 1
EndChar

StartChar: three
Encoding: 51 51 22
Width: 615
VWidth: 1033
GlyphClass: 2
Flags: W
HStem: -26.225 79.8<213.125 307.1 213.125 342.275> 338.125 70.35 620.575 76.65<79.25 381.65 79.25 465.65>
VStem: 184.25 85.575 381.65 84<616.375 620.575 620.575 620.575> 415.25 88.2<151.225 267.25>
LayerCount: 2
Fore
SplineSet
247.25 -26.224609375 m 0,0,1
 148.549804688 -26.224609375 148.549804688 -26.224609375 64.5498046875 9.474609375 c 1,2,-1
 64.5498046875 100.825195312 l 1,3,4
 163.25 53.5751953125 163.25 53.5751953125 243.049804688 53.5751953125 c 0,5,6
 338.599609375 53.5751953125 338.599609375 53.5751953125 376.924804688 87.7001953125 c 128,-1,7
 415.25 121.825195312 415.25 121.825195312 415.25 208.974609375 c 128,-1,8
 415.25 296.125 415.25 296.125 364.849609375 322.900390625 c 128,-1,9
 314.450195312 349.674804688 314.450195312 349.674804688 184.25 329.724609375 c 5,10,-1
 184.25 428.424804688 l 5,11,-1
 381.650390625 616.375 l 1,12,-1
 381.650390625 620.575195312 l 1,13,-1
 79.25 620.575195312 l 1,14,-1
 79.25 697.224609375 l 1,15,-1
 465.650390625 697.224609375 l 1,16,-1
 465.650390625 597.474609375 l 1,17,-1
 269.299804688 410.575195312 l 5,18,-1
 270.349609375 408.474609375 l 5,19,20
 395.299804688 418.974609375 395.299804688 418.974609375 449.375 373.299804688 c 128,-1,21
 503.450195312 327.625 503.450195312 327.625 503.450195312 205.825195312 c 0,22,23
 503.450195312 76.6748046875 503.450195312 76.6748046875 446.75 25.224609375 c 128,-1,24
 390.049804688 -26.224609375 390.049804688 -26.224609375 247.25 -26.224609375 c 0,0,1
EndSplineSet
Validated: 33
EndChar

StartChar: four
Encoding: 52 52 23
Width: 614
VWidth: 1032
GlyphClass: 2
Flags: W
HStem: -17.25 214.2<159.05 440.45 159.05 356.45> 117.15 79.8<159.05 356.45 159.05 356.45 440.45 541.25> 686.25 21G<306.05 401.6 401.6 401.6>
VStem: 68.75 90.3<196.95 220.05 196.95 220.05 196.95 220.05> 356.45 84<-17.25 117.15 -17.25 117.15 196.95 371.25>
LayerCount: 2
Fore
SplineSet
68.75 117.150390625 m 1,0,-1
 68.75 220.049804688 l 1,1,-1
 306.049804688 707.25 l 1,2,-1
 401.599609375 707.25 l 1,3,-1
 159.049804688 220.049804688 l 1,4,-1
 159.049804688 196.950195312 l 1,5,-1
 356.450195312 196.950195312 l 1,6,-1
 356.450195312 371.25 l 1,7,-1
 440.450195312 371.25 l 1,8,-1
 440.450195312 196.950195312 l 1,9,-1
 541.25 196.950195312 l 1,10,-1
 541.25 117.150390625 l 1,11,-1
 440.450195312 117.150390625 l 1,12,-1
 440.450195312 -17.25 l 1,13,-1
 356.450195312 -17.25 l 1,14,-1
 356.450195312 117.150390625 l 1,15,-1
 68.75 117.150390625 l 1,0,-1
EndSplineSet
Validated: 1
EndChar

StartChar: five
Encoding: 53 53 24
Width: 615
VWidth: 1033
GlyphClass: 2
Flags: W
HStem: -24.175 79.8<228.875 321.8 228.875 350.15> 359.075 80.85 618.425 78.75
VStem: 427.325 88.2<155.9 261.95>
LayerCount: 2
Fore
SplineSet
254.075195312 -24.1748046875 m 0,0,1
 156 -24 156 -24 73.474609375 11.525390625 c 1,2,-1
 73.474609375 104.974609375 l 1,3,4
 176 56 176 56 261.424804688 55.625 c 0,5,6
 352 56 352 56 389.525390625 91.3251953125 c 0,7,8
 427 127 427 127 427.325195312 214.174804688 c 0,9,10
 427 286 427 286 401.599609375 316.549804688 c 0,11,12
 376 348 376 348 309.724609375 355.924804688 c 0,13,14
 241 364 241 364 93.4248046875 345.424804688 c 1,15,-1
 96.775390625 697.174804688 l 1,16,-1
 534.075195312 697.174804688 l 1,17,-1
 485.075195312 619.474609375 l 1,18,-1
 173.424804688 617.375 l 1,19,-1
 184.775390625 432.575195312 l 1,20,21
 236 447 236 447 310.775390625 439.924804688 c 0,22,23
 425 428 425 428 470.375 379.025390625 c 0,24,25
 516 330 516 330 515.525390625 214.174804688 c 0,26,27
 516 83 516 83 456.724609375 29.375 c 0,28,29
 398 -24 398 -24 254.075195312 -24.1748046875 c 0,0,1
EndSplineSet
Validated: 33
EndChar

StartChar: six
Encoding: 54 54 25
Width: 615
VWidth: 1033
GlyphClass: 2
Flags: W
HStem: -27.5 74.55<239.625 360.9 239.625 396.6> 349.45 76.65<282.15 360.9> 686.5 21G<328.35 451.2 451.2 451.2>
VStem: 67.95 87.15<206.65 206.65> 445.95 86.1<137.875 263.35>
LayerCount: 2
Fore
SplineSet
301.049804688 -27.5 m 0,0,1
 156.150390625 -27.5 156.150390625 -27.5 112.049804688 16.599609375 c 128,-1,2
 67.9501953125 60.7001953125 67.9501953125 60.7001953125 67.9501953125 206.650390625 c 0,3,4
 67.9501953125 260.200195312 67.9501953125 260.200195312 70.0498046875 293.799804688 c 128,-1,5
 72.150390625 327.400390625 72.150390625 327.400390625 80.5498046875 369.400390625 c 128,-1,6
 88.9501953125 411.400390625 88.9501953125 411.400390625 105.75 444.474609375 c 128,-1,7
 122.549804688 477.549804688 122.549804688 477.549804688 151.424804688 519.549804688 c 128,-1,8
 180.299804688 561.549804688 180.299804688 561.549804688 223.349609375 606.700195312 c 128,-1,9
 266.400390625 651.849609375 266.400390625 651.849609375 328.349609375 707.5 c 1,10,-1
 451.200195312 707.5 l 1,11,12
 282.150390625 558.400390625 282.150390625 558.400390625 228.599609375 493.299804688 c 128,-1,13
 175.049804688 428.200195312 175.049804688 428.200195312 158.25 369.400390625 c 1,14,-1
 163.5 365.200195312 l 1,15,16
 186.599609375 426.099609375 186.599609375 426.099609375 323.099609375 426.099609375 c 0,17,18
 453.299804688 426.099609375 453.299804688 426.099609375 492.674804688 384.099609375 c 128,-1,19
 532.049804688 342.099609375 532.049804688 342.099609375 532.049804688 203.5 c 0,20,21
 532.049804688 60.7001953125 532.049804688 60.7001953125 488.474609375 16.599609375 c 128,-1,22
 444.900390625 -27.5 444.900390625 -27.5 301.049804688 -27.5 c 0,0,1
155.099609375 206.650390625 m 0,23,24
 154.049804688 107.950195312 154.049804688 107.950195312 181.349609375 77.5 c 128,-1,25
 208.650390625 47.0498046875 208.650390625 47.0498046875 301.049804688 47.0498046875 c 0,26,27
 391.349609375 47.0498046875 391.349609375 47.0498046875 418.650390625 76.4501953125 c 128,-1,28
 445.950195312 105.849609375 445.950195312 105.849609375 445.950195312 202.450195312 c 0,29,30
 445.950195312 293.799804688 445.950195312 293.799804688 418.650390625 321.625 c 128,-1,31
 391.349609375 349.450195312 391.349609375 349.450195312 301.049804688 349.450195312 c 0,32,33
 211.799804688 349.450195312 211.799804688 349.450195312 183.974609375 322.674804688 c 128,-1,34
 156.150390625 295.900390625 156.150390625 295.900390625 155.099609375 206.650390625 c 0,23,24
EndSplineSet
Validated: 33
EndChar

StartChar: seven
Encoding: 55 55 26
Width: 615
VWidth: 1033
GlyphClass: 2
Flags: W
HStem: -27.25 22.05G<100.35 100.35 100.35 201.15> 611.15 86.1<58.35 420.6 58.35 505.65>
VStem: 420.6 85.05<611.15 611.15>
LayerCount: 2
Fore
SplineSet
100.349609375 -27.25 m 1,0,-1
 420.599609375 611.150390625 l 1,1,-1
 58.349609375 611.150390625 l 1,2,-1
 58.349609375 697.25 l 1,3,-1
 505.650390625 697.25 l 1,4,-1
 505.650390625 588.049804688 l 1,5,-1
 201.150390625 -27.25 l 1,6,-1
 100.349609375 -27.25 l 1,0,-1
EndSplineSet
Validated: 1
EndChar

StartChar: eight
Encoding: 56 56 27
Width: 615
VWidth: 1033
GlyphClass: 2
Flags: W
HStem: -27.5 77.7<238.05 360.9 238.05 396.6> 630.85 76.65<245.4 353.025>
VStem: 64.8 87.15<119.5 215.05 119.5 222.4> 82.65 87.15<496.975 575.725 496.975 607.225> 429.15 87.15<496.45 574.675> 448.05 87.15<118.45 213.475>
LayerCount: 2
Fore
SplineSet
298.950195312 -27.5 m 0,0,1
 153 -27.5 153 -27.5 108.900390625 10.2998046875 c 128,-1,2
 64.7998046875 48.099609375 64.7998046875 48.099609375 64.7998046875 173.049804688 c 0,3,4
 64.7998046875 246.549804688 64.7998046875 246.549804688 90 282.775390625 c 128,-1,5
 115.200195312 319 115.200195312 319 198.150390625 365.200195312 c 1,6,-1
 198.150390625 371.5 l 1,7,8
 126.75 410.349609375 126.75 410.349609375 104.700195312 441.325195312 c 128,-1,9
 82.650390625 472.299804688 82.650390625 472.299804688 82.650390625 536.349609375 c 0,10,11
 82.650390625 642.400390625 82.650390625 642.400390625 123.599609375 674.950195312 c 128,-1,12
 164.549804688 707.5 164.549804688 707.5 298.950195312 707.5 c 0,13,14
 434.400390625 707.5 434.400390625 707.5 475.349609375 674.950195312 c 128,-1,15
 516.299804688 642.400390625 516.299804688 642.400390625 516.299804688 536.349609375 c 0,16,17
 516.299804688 472.299804688 516.299804688 472.299804688 494.25 441.325195312 c 128,-1,18
 472.200195312 410.349609375 472.200195312 410.349609375 400.799804688 371.5 c 1,19,-1
 400.799804688 365.200195312 l 1,20,21
 484.799804688 319 484.799804688 319 510 282.775390625 c 128,-1,22
 535.200195312 246.549804688 535.200195312 246.549804688 535.200195312 173.049804688 c 0,23,24
 535.200195312 49.150390625 535.200195312 49.150390625 490.575195312 10.8251953125 c 128,-1,25
 445.950195312 -27.5 445.950195312 -27.5 298.950195312 -27.5 c 0,0,1
151.950195312 168.849609375 m 0,26,27
 151.950195312 95.349609375 151.950195312 95.349609375 179.775390625 72.775390625 c 128,-1,28
 207.599609375 50.2001953125 207.599609375 50.2001953125 298.950195312 50.2001953125 c 0,29,30
 391.349609375 50.2001953125 391.349609375 50.2001953125 419.700195312 72.25 c 128,-1,31
 448.049804688 94.2998046875 448.049804688 94.2998046875 448.049804688 166.75 c 0,32,33
 448.049804688 237.099609375 448.049804688 237.099609375 419.700195312 268.599609375 c 128,-1,34
 391.349609375 300.099609375 391.349609375 300.099609375 298.950195312 333.700195312 c 1,35,36
 207.599609375 301.150390625 207.599609375 301.150390625 179.775390625 269.650390625 c 128,-1,37
 151.950195312 238.150390625 151.950195312 238.150390625 151.950195312 168.849609375 c 0,26,27
169.799804688 536.349609375 m 128,-1,39
 169.799804688 477.549804688 169.799804688 477.549804688 194.474609375 452.349609375 c 128,-1,40
 219.150390625 427.150390625 219.150390625 427.150390625 298.950195312 404.049804688 c 1,41,42
 379.799804688 428.200195312 379.799804688 428.200195312 404.474609375 452.875 c 128,-1,43
 429.150390625 477.549804688 429.150390625 477.549804688 429.150390625 535.299804688 c 0,44,45
 429.150390625 594.099609375 429.150390625 594.099609375 404.474609375 612.474609375 c 128,-1,46
 379.799804688 630.849609375 379.799804688 630.849609375 298.950195312 630.849609375 c 128,-1,47
 218.099609375 630.849609375 218.099609375 630.849609375 193.950195312 613 c 128,-1,38
 169.799804688 595.150390625 169.799804688 595.150390625 169.799804688 536.349609375 c 128,-1,39
EndSplineSet
Validated: 1
EndChar

StartChar: nine
Encoding: 57 57 28
Width: 615
VWidth: 1033
GlyphClass: 2
Flags: W
HStem: -27.5 22.05G<156.45 156.45 156.45 273> 244.45 74.55<231.525 316.575> 632.95 74.55<233.1 354.9>
VStem: 61.95 86.1<408.25 538.45 408.25 569.95> 439.95 86.1<468.1 468.1>
LayerCount: 2
Fore
SplineSet
156.450195312 -27.5 m 1,0,1
 247.799804688 63.849609375 247.799804688 63.849609375 296.625 123.700195312 c 128,-1,2
 345.450195312 183.549804688 345.450195312 183.549804688 414.75 289.599609375 c 1,3,-1
 409.5 293.799804688 l 1,4,5
 385.349609375 263.349609375 385.349609375 263.349609375 360.150390625 253.900390625 c 128,-1,6
 334.950195312 244.450195312 334.950195312 244.450195312 279.299804688 244.450195312 c 0,7,8
 143.849609375 244.450195312 143.849609375 244.450195312 102.900390625 287.5 c 128,-1,9
 61.9501953125 330.549804688 61.9501953125 330.549804688 61.9501953125 472.299804688 c 0,10,11
 61.9501953125 618.25 61.9501953125 618.25 105.525390625 662.875 c 128,-1,12
 149.099609375 707.5 149.099609375 707.5 292.950195312 707.5 c 0,13,14
 437.849609375 707.5 437.849609375 707.5 481.950195312 662.349609375 c 128,-1,15
 526.049804688 617.200195312 526.049804688 617.200195312 526.049804688 468.099609375 c 0,16,17
 526.049804688 332.650390625 526.049804688 332.650390625 478.275390625 238.674804688 c 128,-1,18
 430.5 144.700195312 430.5 144.700195312 273 -27.5 c 1,19,-1
 156.450195312 -27.5 l 1,0,1
148.049804688 471.25 m 0,20,21
 148.049804688 376.75 148.049804688 376.75 174.825195312 347.875 c 128,-1,22
 201.599609375 319 201.599609375 319 290.849609375 319 c 0,23,24
 382.200195312 319 382.200195312 319 410.549804688 347.349609375 c 128,-1,25
 438.900390625 375.700195312 438.900390625 375.700195312 439.950195312 468.099609375 c 0,26,27
 442.049804688 571 442.049804688 571 413.700195312 601.974609375 c 128,-1,28
 385.349609375 632.950195312 385.349609375 632.950195312 292.950195312 632.950195312 c 0,29,30
 202.650390625 632.950195312 202.650390625 632.950195312 175.349609375 602.5 c 128,-1,31
 148.049804688 572.049804688 148.049804688 572.049804688 148.049804688 471.25 c 0,20,21
EndSplineSet
Validated: 33
EndChar

StartChar: colon
Encoding: 58 58 29
Width: 600
GlyphClass: 2
Flags: W
LayerCount: 2
Fore
SplineSet
371 388 m 1,0,-1
 229 388 l 5,1,-1
 229 530 l 1,2,-1
 371 530 l 1,3,-1
 371 388 l 1,0,-1
371 0 m 1,4,-1
 229 0 l 1,5,-1
 229 142 l 1,6,-1
 371 142 l 1,7,-1
 371 0 l 1,4,-1
EndSplineSet
Validated: 1
EndChar

StartChar: semicolon
Encoding: 59 59 30
Width: 600
GlyphClass: 2
Flags: W
HStem: 137 24<263.5 340.5 263.5 373.5>
VStem: 263.5 110<137 161 161 161>
LayerCount: 2
Fore
SplineSet
371 388 m 1,0,-1
 229 388 l 1,1,-1
 229 530 l 1,2,-1
 371 530 l 1,3,-1
 371 388 l 1,0,-1
315 -103 m 1,4,-1
 229.5 -104 l 1,5,-1
 299.5 110 l 1,6,-1
 171.5 110 l 1,7,-1
 174 192 l 1,8,-1
 417 191 l 1,9,-1
 315 -103 l 1,4,-1
EndSplineSet
Validated: 1
EndChar

StartChar: less
Encoding: 60 60 31
Width: 600
GlyphClass: 2
Flags: W
HStem: 39 536<525 525>
VStem: 75 79<303 311 303 356 303 356>
LayerCount: 2
Fore
SplineSet
525 39 m 1,0,-1
 75 258 l 1,1,-1
 75 356 l 1,2,-1
 525 575 l 1,3,-1
 525 481 l 1,4,-1
 154 311 l 1,5,-1
 154 303 l 1,6,-1
 525 133 l 1,7,-1
 525 39 l 1,0,-1
EndSplineSet
Validated: 1
EndChar

StartChar: equal
Encoding: 61 61 32
Width: 600
GlyphClass: 2
Flags: W
LayerCount: 2
Fore
SplineSet
560 175 m 1,0,-1
 40 175 l 1,1,-1
 40 246 l 1,2,-1
 560 246 l 1,3,-1
 560 175 l 1,0,-1
560 318 m 1,4,-1
 40 318 l 1,5,-1
 40 389 l 1,6,-1
 560 389 l 1,7,-1
 560 318 l 1,4,-1
EndSplineSet
Validated: 1
EndChar

StartChar: greater
Encoding: 62 62 33
Width: 600
GlyphClass: 2
Flags: W
HStem: 39 536<75 75>
VStem: 446 79<303 311 311 311>
LayerCount: 2
Fore
SplineSet
75 39 m 1,0,-1
 75 133 l 1,1,-1
 446 303 l 1,2,-1
 446 311 l 1,3,-1
 75 481 l 1,4,-1
 75 575 l 1,5,-1
 525 356 l 1,6,-1
 525 258 l 1,7,-1
 75 39 l 1,0,-1
EndSplineSet
Validated: 1
EndChar

StartChar: question
Encoding: 63 63 34
Width: 600
VWidth: 1050
GlyphClass: 2
Flags: W
HStem: 0 144.9<216.222 359.022 216.222 359.022> 648.9 74.55<259.797 369.522>
VStem: 96.5221 88.2<553.35 592.725> 216.222 142.8<0 144.9 0 144.9> 243.522 84<216.3 273 216.3 358.575> 449.322 86.1<439.95 573.825>
LayerCount: 2
Fore
SplineSet
243.521484375 273 m 2,0,1
 243.521484375 358.391258694 243.521484375 358.391258694 244.521484375 360.075195312 c 0,2,3
 268 399 268 399 295.971679688 399.974609375 c 0,4,5
 359 403 359 403 377.372070312 412.125 c 0,6,7
 426 434 426 434 438.322265625 450.450195312 c 0,8,9
 459 477 459 477 459.322265625 520.799804688 c 0,10,11
 459 608 459 608 438.596679688 626.75 c 0,12,13
 413 651 413 651 297.921875 651 c 128,-1,14
 183 651 183 651 161.872070312 635.525390625 c 0,15,16
 143 622 143 622 142.721679688 553.349609375 c 1,17,-1
 54.521484375 553.349609375 l 1,18,19
 56 669 56 669 91.521484375 696.424804688 c 0,20,21
 129 724 129 724 312.822265625 723.450195312 c 0,22,23
 469 723 469 723 508.421875 687.125 c 0,24,25
 547 653 547 653 545.421875 520.799804688 c 0,26,27
 545 465 545 465 523.896484375 427.349609375 c 0,28,29
 502 390 502 390 471.921875 372.75 c 0,30,31
 422 344 422 344 411.021484375 343.349609375 c 0,32,33
 370 331 370 331 329.546875 318.474609375 c 0,34,35
 327.521484375 317.853182706 327.521484375 317.853182706 327.521484375 273 c 2,36,-1
 327.521484375 216.299804688 l 1,37,-1
 243.521484375 216.299804688 l 1,38,-1
 243.521484375 273 l 2,0,1
230.221679688 0 m 1,39,-1
 230.221679688 101.900390625 l 1,40,-1
 344.021484375 101.900390625 l 1,41,-1
 344.021484375 0 l 1,42,-1
 230.221679688 0 l 1,39,-1
EndSplineSet
Validated: 33
EndChar

StartChar: at
Encoding: 64 64 35
Width: 600
GlyphClass: 2
Flags: W
HStem: -88 74<215 217 217 418> 108 70<356.5 419.5> 405 30 405 70<356.5 409 316 436> 615 75<178.5 423 219 423 219 423>
VStem: 55 72<75 77 77 511 511 513> 229 68<234.5 348 234.5 383.5> 476 68 480 64<464 510 464 510 464 553.5>
LayerCount: 2
Fore
SplineSet
217 -88 m 2,0,1
 114 -88 114 -88 84.5 -57.5 c 128,-1,2
 55 -27 55 -27 55 75 c 2,3,-1
 55 511 l 2,4,5
 55 623 55 623 85 656.5 c 128,-1,6
 115 690 115 690 219 690 c 2,7,-1
 423 690 l 2,8,9
 498 690 498 690 521 656 c 128,-1,10
 544 622 544 622 544 510 c 2,11,-1
 544 464 l 1,12,-1
 543 110 l 1,13,-1
 504 110 l 2,14,15
 496 110 496 110 493.5 114.5 c 128,-1,16
 491 119 491 119 481 146 c 1,17,-1
 474 146 l 1,18,19
 458 118 458 118 447 113 c 128,-1,20
 436 108 436 108 387 108 c 0,21,22
 354 108 354 108 340 108 c 128,-1,23
 326 108 326 108 304.5 111 c 128,-1,24
 283 114 283 114 275.5 118 c 128,-1,25
 268 122 268 122 256.5 131.5 c 128,-1,26
 245 141 245 141 242 153 c 128,-1,27
 239 165 239 165 234.5 186 c 128,-1,28
 230 207 230 207 229.5 231.5 c 128,-1,29
 229 256 229 256 229 292 c 0,30,31
 229 340 229 340 230.5 369 c 128,-1,32
 232 398 232 398 240 420.5 c 128,-1,33
 248 443 248 443 255 452.5 c 128,-1,34
 262 462 262 462 284.5 468 c 128,-1,35
 307 474 307 474 324.5 474.5 c 128,-1,36
 342 475 342 475 383 475 c 0,37,38
 422 475 422 475 433 470 c 128,-1,39
 444 465 444 465 472 435 c 1,40,-1
 480 435 l 1,41,-1
 480 510 l 2,42,43
 480 575 480 575 469 595 c 128,-1,44
 458 615 458 615 423 615 c 2,45,-1
 218 615 l 2,46,47
 159 615 159 615 143 596.5 c 128,-1,48
 127 578 127 578 127 513 c 2,49,-1
 127 77 l 2,50,51
 127 20 127 20 143 3 c 128,-1,52
 159 -14 159 -14 215 -14 c 2,53,-1
 418 -14 l 1,54,-1
 418 -88 l 1,55,-1
 217 -88 l 2,0,1
297 291 m 128,-1,57
 297 248 297 248 300.5 225.5 c 128,-1,58
 304 203 304 203 318 192 c 128,-1,59
 332 181 332 181 346 179.5 c 128,-1,60
 360 178 360 178 396 178 c 0,61,62
 420 178 420 178 430 178 c 128,-1,63
 440 178 440 178 452 183 c 128,-1,64
 464 188 464 188 466.5 191.5 c 128,-1,65
 469 195 469 195 472.5 211.5 c 128,-1,66
 476 228 476 228 476 241.5 c 128,-1,67
 476 255 476 255 476 289 c 0,68,69
 476 324 476 324 476 338.5 c 128,-1,70
 476 353 476 353 472.5 370 c 128,-1,71
 469 387 469 387 466.5 391 c 128,-1,72
 464 395 464 395 452 400 c 128,-1,73
 440 405 440 405 430 405 c 128,-1,74
 420 405 420 405 396 405 c 0,75,76
 360 405 360 405 346 403.5 c 128,-1,77
 332 402 332 402 318 391 c 128,-1,78
 304 380 304 380 300.5 357 c 128,-1,56
 297 334 297 334 297 291 c 128,-1,57
EndSplineSet
Validated: 1
EndChar

StartChar: A
Encoding: 65 65 36
Width: 600
GlyphClass: 2
Flags: W
LayerCount: 2
Fore
SplineSet
590 0 m 1,0,-1
 490 0 l 1,1,-1
 422 202 l 1,2,-1
 159 202 l 1,3,-1
 93 0 l 1,4,-1
 10 0 l 1,5,-1
 246 725 l 1,6,-1
 346 725 l 1,7,-1
 590 0 l 1,0,-1
397 277 m 1,8,-1
 288 600 l 1,9,-1
 183 277 l 1,10,-1
 397 277 l 1,8,-1
EndSplineSet
Validated: 1
EndChar

StartChar: B
Encoding: 66 66 37
Width: 600
GlyphClass: 2
Flags: W
LayerCount: 2
Fore
SplineSet
375 381 m 1,0,1
 457 363 457 363 511 312 c 128,-1,2
 565 261 565 261 565 184 c 0,3,4
 565 99 565 99 498 50 c 0,5,6
 474 32 474 32 445.5 21 c 128,-1,7
 417 10 417 10 379 6 c 128,-1,8
 341 2 341 2 316 1 c 128,-1,9
 291 0 291 0 244 0 c 2,10,-1
 60 0 l 1,11,-1
 60 725 l 1,12,-1
 239 725 l 2,13,14
 295 725 295 725 326 723.5 c 128,-1,15
 357 722 357 722 400 710.5 c 128,-1,16
 443 699 443 699 472 677 c 0,17,18
 540 625 540 625 540 544 c 0,19,20
 540 480 540 480 493.5 438.5 c 128,-1,21
 447 397 447 397 375 381 c 1,0,1
160 344 m 1,22,-1
 160 75 l 1,23,-1
 271 75 l 2,24,25
 299 75 299 75 314.5 75.5 c 128,-1,26
 330 76 330 76 352.5 78.5 c 128,-1,27
 375 81 375 81 392.5 87.5 c 128,-1,28
 410 94 410 94 424 104 c 0,29,30
 465 134 465 134 465 188 c 0,31,32
 465 252 465 252 412 298 c 0,33,34
 387 319 387 319 351.5 330 c 128,-1,35
 316 341 316 341 291.5 342.5 c 128,-1,36
 267 344 267 344 222 344 c 2,37,-1
 160 344 l 1,22,-1
160 419 m 1,38,-1
 229 419 l 2,39,40
 269 419 269 419 290.5 420.5 c 128,-1,41
 312 422 312 422 342.5 430.5 c 128,-1,42
 373 439 373 439 395 456 c 0,43,44
 440 491 440 491 440 543 c 0,45,46
 440 592 440 592 400 622 c 0,47,48
 383 635 383 635 358 641.5 c 128,-1,49
 333 648 333 648 315 649 c 128,-1,50
 297 650 297 650 264 650 c 2,51,-1
 160 650 l 1,52,-1
 160 419 l 1,38,-1
EndSplineSet
Validated: 1
EndChar

StartChar: C
Encoding: 67 67 38
Width: 600
GlyphClass: 2
Flags: W
LayerCount: 2
Fore
SplineSet
30 362 m 0,0,1
 30 538 30 538 116.5 640.5 c 128,-1,2
 203 743 203 743 356 743 c 0,3,4
 482 743 482 743 565 710 c 1,5,-1
 565 625 l 1,6,7
 448 672 448 672 356 670 c 128,-1,8
 264 668 264 668 207 607 c 0,9,10
 140 534 140 534 140 362 c 0,11,12
 140 191 140 191 207 118 c 0,13,14
 264 57 264 57 350 57 c 0,15,16
 386 57 386 57 426.5 64.5 c 128,-1,17
 467 72 467 72 495 83.5 c 128,-1,18
 523 95 523 95 565 120 c 1,19,-1
 565 26 l 1,20,21
 493 -18 493 -18 352 -18 c 0,22,23
 203 -18 203 -18 116.5 84.5 c 128,-1,24
 30 187 30 187 30 362 c 0,0,1
EndSplineSet
Validated: 33
EndChar

StartChar: D
Encoding: 68 68 39
Width: 600
GlyphClass: 2
Flags: W
LayerCount: 2
Fore
SplineSet
465 365 m 0,0,1
 465 547 465 547 451 570 c 0,2,3
 434 599 434 599 414 616 c 128,-1,4
 394 633 394 633 369 640 c 128,-1,5
 344 647 344 647 309.5 648.5 c 128,-1,6
 275 650 275 650 245 650 c 2,7,-1
 160 650 l 1,8,-1
 160 75 l 1,9,-1
 218 75 l 2,10,11
 252 75 252 75 290 76.5 c 128,-1,12
 328 78 328 78 356 85 c 128,-1,13
 384 92 384 92 406 109.5 c 128,-1,14
 428 127 428 127 448 156 c 0,15,16
 465 182 465 182 465 365 c 0,0,1
565 364 m 0,17,18
 565 164 565 164 518 106 c 0,19,20
 487 68 487 68 452.5 45 c 128,-1,21
 418 22 418 22 374.5 13 c 128,-1,22
 331 4 331 4 302.5 2 c 128,-1,23
 274 0 274 0 182 0 c 2,24,-1
 60 0 l 1,25,-1
 60 725 l 1,26,-1
 208 725 l 2,27,28
 247 725 247 725 285.5 724 c 128,-1,29
 324 723 324 723 359 718 c 128,-1,30
 394 713 394 713 417.5 702 c 128,-1,31
 441 691 441 691 469 670 c 0,32,33
 500 647 500 647 520 618 c 0,34,35
 565 552 565 552 565 364 c 0,17,18
EndSplineSet
Validated: 1
EndChar

StartChar: E
Encoding: 69 69 40
Width: 600
GlyphClass: 2
Flags: W
LayerCount: 2
Fore
SplineSet
576 0 m 1,0,-1
 60 0 l 1,1,-1
 60 725 l 1,2,-1
 565 725 l 1,3,-1
 565 650 l 1,4,-1
 160 650 l 1,5,-1
 160 426 l 1,6,-1
 488 426 l 1,7,-1
 488 351 l 1,8,-1
 160 351 l 1,9,-1
 160 75 l 1,10,-1
 576 75 l 1,11,-1
 576 0 l 1,0,-1
EndSplineSet
Validated: 1
EndChar

StartChar: F
Encoding: 70 70 41
Width: 600
GlyphClass: 2
Flags: W
LayerCount: 2
Fore
SplineSet
565 650 m 1,0,-1
 160 650 l 1,1,-1
 160 426 l 1,2,-1
 488 426 l 1,3,-1
 488 351 l 1,4,-1
 160 351 l 1,5,-1
 160 0 l 1,6,-1
 60 0 l 1,7,-1
 60 725 l 1,8,-1
 565 725 l 1,9,-1
 565 650 l 1,0,-1
EndSplineSet
Validated: 1
EndChar

StartChar: G
Encoding: 71 71 42
Width: 600
GlyphClass: 2
Flags: W
LayerCount: 2
Fore
SplineSet
20.5 360.5 m 0,0,1
 21 547 21 547 107.5 651.5 c 0,2,3
 183 743 183 743 356 743 c 0,4,5
 455 743 455 743 565 700 c 1,6,-1
 565 615 l 1,7,8
 432 668 432 668 356 668 c 0,9,10
 244 668 244 668 198 618 c 0,11,12
 131 545 131 545 130.5 361 c 128,-1,13
 130 177 130 177 197 104 c 0,14,15
 240 57 240 57 352 57 c 0,16,17
 398 57 398 57 465 78 c 1,18,-1
 465 326 l 1,19,-1
 307 326 l 1,20,-1
 352 401 l 1,21,-1
 565 401 l 1,22,-1
 565 31 l 1,23,24
 444 -18 444 -18 351 -18 c 0,25,26
 181 -18 181 -18 106.5 70.5 c 0,27,28
 20 173 20 173 20.5 360.5 c 0,0,1
EndSplineSet
Validated: 33
EndChar

StartChar: H
Encoding: 72 72 43
Width: 600
GlyphClass: 2
Flags: W
LayerCount: 2
Fore
SplineSet
540 0 m 1,0,-1
 440 0 l 1,1,-1
 440 325 l 1,2,-1
 160 325 l 5,3,-1
 160 0 l 1,4,-1
 60 0 l 1,5,-1
 60 725 l 1,6,-1
 160 725 l 1,7,-1
 160 400 l 1,8,-1
 440 400 l 1,9,-1
 440 725 l 1,10,-1
 540 725 l 1,11,-1
 540 0 l 1,0,-1
EndSplineSet
Validated: 1
EndChar

StartChar: I
Encoding: 73 73 44
Width: 600
GlyphClass: 2
Flags: W
LayerCount: 2
Fore
SplineSet
350 75 m 1,0,-1
 512 75 l 1,1,-1
 512 0 l 1,2,-1
 88 0 l 1,3,-1
 88 75 l 1,4,-1
 250 75 l 1,5,-1
 250 650 l 1,6,-1
 88 650 l 1,7,-1
 88 725 l 1,8,-1
 512 725 l 1,9,-1
 512 650 l 1,10,-1
 350 650 l 1,11,-1
 350 75 l 1,0,-1
EndSplineSet
Validated: 1
EndChar

StartChar: J
Encoding: 74 74 45
Width: 600
GlyphClass: 2
Flags: W
LayerCount: 2
Fore
SplineSet
432 270 m 2,0,1
 432 213 432 213 430 182 c 128,-1,2
 428 151 428 151 413 109 c 128,-1,3
 398 67 398 67 368 40 c 0,4,5
 302 -18 302 -18 182 -18 c 0,6,7
 104 -18 104 -18 35 6 c 1,8,-1
 35 89 l 1,9,10
 127 57 127 57 177 57 c 0,11,12
 248 57 248 57 290 96 c 0,13,14
 310 114 310 114 319.5 142.5 c 128,-1,15
 329 171 329 171 330.5 191.5 c 128,-1,16
 332 212 332 212 332 250 c 2,17,-1
 332 650 l 1,18,-1
 139 650 l 1,19,-1
 139 725 l 1,20,-1
 565 725 l 1,21,-1
 565 650 l 1,22,-1
 432 650 l 1,23,-1
 432 270 l 2,0,1
EndSplineSet
Validated: 1
EndChar

StartChar: K
Encoding: 75 75 46
Width: 600
GlyphClass: 2
Flags: W
LayerCount: 2
Fore
SplineSet
582 0 m 1,0,-1
 482 0 l 1,1,-1
 201 327 l 1,2,-1
 160 283 l 1,3,-1
 160 0 l 1,4,-1
 60 0 l 1,5,-1
 60 725 l 1,6,-1
 160 725 l 1,7,-1
 160 400 l 1,8,-1
 461 725 l 1,9,-1
 569 725 l 1,10,-1
 253 384 l 1,11,-1
 582 0 l 1,0,-1
EndSplineSet
Validated: 1
EndChar

StartChar: L
Encoding: 76 76 47
Width: 600
GlyphClass: 2
Flags: W
LayerCount: 2
Fore
SplineSet
590 0 m 1,0,-1
 60 0 l 1,1,-1
 60 725 l 1,2,-1
 160 725 l 1,3,-1
 160 75 l 1,4,-1
 590 75 l 1,5,-1
 590 0 l 1,0,-1
EndSplineSet
Validated: 1
EndChar

StartChar: M
Encoding: 77 77 48
Width: 600
GlyphClass: 2
Flags: W
LayerCount: 2
Fore
SplineSet
565 0 m 1,0,-1
 465 0 l 1,1,-1
 465 589 l 1,2,-1
 328 245 l 1,3,-1
 265 245 l 1,4,-1
 118 591 l 1,5,-1
 118 0 l 1,6,-1
 35 0 l 1,7,-1
 35 725 l 1,8,-1
 161 725 l 1,9,-1
 303 391 l 1,10,-1
 436 725 l 1,11,-1
 565 725 l 1,12,-1
 565 0 l 1,0,-1
EndSplineSet
Validated: 1
EndChar

StartChar: N
Encoding: 78 78 49
Width: 600
GlyphClass: 2
Flags: W
LayerCount: 2
Fore
SplineSet
143 0 m 1,0,-1
 60 0 l 1,1,-1
 60 725 l 1,2,-1
 160 725 l 1,3,-1
 457 158 l 1,4,-1
 457 725 l 1,5,-1
 540 725 l 1,6,-1
 540 0 l 1,7,-1
 440 0 l 1,8,-1
 143 567 l 1,9,-1
 143 0 l 1,0,-1
EndSplineSet
Validated: 1
EndChar

StartChar: O
Encoding: 79 79 50
Width: 600
VWidth: 1064
GlyphClass: 2
Flags: W
HStem: -6.67999 81.6816<235.321 371.262 235.321 409.186> 654.198 81.6816<235.321 371.262>
VStem: 27.0329 100.352<251.625 474.923 251.625 506.747> 478.615 100.352<251.625 474.923>
LayerCount: 2
Fore
SplineSet
303.083007812 -6.6806640625 m 0,0,1
 145 -7 145 -7 85.9599609375 71.2890625 c 0,2,3
 27 149 27 149 27.0322265625 362.477539062 c 0,4,5
 27 578 27 578 85.9599609375 656.850585938 c 4,6,7
 145 736 145 736 303.083007812 735.879882812 c 0,8,9
 456 736 456 736 514.625 656.850585938 c 0,10,11
 573 578 573 578 572.967773438 362.477539062 c 0,12,13
 573 150 573 150 514.625 71.818359375 c 0,14,15
 456 -7 456 -7 303.083007812 -6.6806640625 c 0,0,1
127.384765625 362.477539062 m 0,16,17
 127 196 127 196 164.140625 135.466796875 c 0,18,19
 201 75 201 75 303.583007812 75.0009765625 c 0,20,21
 399 75 399 75 435.858398438 135.466796875 c 0,22,23
 473 196 473 196 472.615234375 362.477539062 c 0,24,25
 473 531 473 531 435.858398438 592.671875 c 0,26,27
 399 654 399 654 303.583007812 654.198242188 c 0,28,29
 201 654 201 654 164.140625 592.671875 c 4,30,31
 127 531 127 531 127.384765625 362.477539062 c 0,16,17
EndSplineSet
Validated: 33
EndChar

StartChar: P
Encoding: 80 80 51
Width: 600
GlyphClass: 2
Flags: W
LayerCount: 2
Fore
SplineSet
578 519 m 128,-1,1
 582 393 582 393 531 350 c 0,2,3
 499 322 499 322 453 307.5 c 128,-1,4
 407 293 407 293 374.5 291 c 128,-1,5
 342 289 342 289 252 289 c 2,6,-1
 160 289 l 1,7,-1
 160 0 l 1,8,-1
 60 0 l 1,9,-1
 60 725 l 1,10,-1
 251 725 l 2,11,12
 342 725 342 725 375.5 723 c 128,-1,13
 409 721 409 721 456 708.5 c 0,14,15
 492 699 492 699 534 671 c 0,16,17
 574 645 574 645 578 519 c 128,-1,1
160 364 m 1,18,-1
 277 364 l 2,19,20
 344 364 344 364 364 365.5 c 128,-1,21
 384 367 384 367 412.5 376.5 c 128,-1,22
 441 386 441 386 460 405 c 0,23,24
 474 418 474 418 474 517 c 0,25,26
 474 605 474 605 461 616 c 0,27,28
 442 632 442 632 413.5 640 c 128,-1,29
 385 648 385 648 364.5 649 c 128,-1,30
 344 650 344 650 277 650 c 2,31,-1
 160 650 l 1,32,-1
 160 364 l 1,18,-1
EndSplineSet
Validated: 33
EndChar

StartChar: Q
Encoding: 81 81 52
Width: 600
GlyphClass: 2
Flags: W
LayerCount: 2
Fore
SplineSet
460 363 m 0,0,1
 460 418 460 418 457.5 453 c 128,-1,2
 455 488 455 488 442 533.5 c 128,-1,3
 429 579 429 579 404 612 c 0,4,5
 362 668 362 668 300 668 c 128,-1,6
 238 668 238 668 196 612 c 0,7,8
 171 579 171 579 158 533.5 c 128,-1,9
 145 488 145 488 142.5 453 c 128,-1,10
 140 418 140 418 140 363 c 256,11,12
 140 308 140 308 142.5 272.5 c 128,-1,13
 145 237 145 237 158 191.5 c 128,-1,14
 171 146 171 146 196 113 c 0,15,16
 238 57 238 57 300 57 c 0,17,18
 330 57 330 57 357 72 c 1,19,20
 344 103 344 103 331 123.5 c 128,-1,21
 318 144 318 144 300 159.5 c 128,-1,22
 282 175 282 175 260 181 c 1,23,-1
 280 254 l 1,24,25
 363 232 363 232 411 123 c 1,26,27
 442 169 442 169 451 225.5 c 128,-1,28
 460 282 460 282 460 363 c 0,0,1
300 743 m 128,-1,30
 335 743 335 743 369.5 733 c 128,-1,31
 404 723 404 723 441.5 696.5 c 128,-1,32
 479 670 479 670 506.5 628.5 c 128,-1,33
 534 587 534 587 552 518.5 c 128,-1,34
 570 450 570 450 570 363 c 0,35,36
 570 290 570 290 558 230.5 c 128,-1,37
 546 171 546 171 526 132.5 c 128,-1,38
 506 94 506 94 487 71 c 128,-1,39
 468 48 468 48 447 32 c 1,40,41
 472 -23 472 -23 499.5 -51.5 c 128,-1,42
 527 -80 527 -80 565 -80 c 1,43,-1
 565 -155 l 1,44,45
 538 -155 538 -155 513.5 -145.5 c 128,-1,46
 489 -136 489 -136 470 -121 c 128,-1,47
 451 -106 451 -106 434.5 -85 c 128,-1,48
 418 -64 418 -64 406.5 -44 c 128,-1,49
 395 -24 395 -24 386 -2 c 1,50,51
 345 -18 345 -18 300 -18 c 0,52,53
 271 -18 271 -18 242.5 -10.5 c 128,-1,54
 214 -3 214 -3 182.5 13 c 128,-1,55
 151 29 151 29 124.5 58.5 c 128,-1,56
 98 88 98 88 76.5 128.5 c 128,-1,57
 55 169 55 169 42.5 229 c 128,-1,58
 30 289 30 289 30 363 c 0,59,60
 30 450 30 450 48 518.5 c 128,-1,61
 66 587 66 587 93.5 628.5 c 128,-1,62
 121 670 121 670 158.5 696.5 c 128,-1,63
 196 723 196 723 230.5 733 c 128,-1,29
 265 743 265 743 300 743 c 128,-1,30
EndSplineSet
Validated: 1
EndChar

StartChar: R
Encoding: 82 82 53
Width: 600
GlyphClass: 2
Flags: W
LayerCount: 2
Fore
SplineSet
540 513 m 4,0,1
 539 487 539 487 538.5 485 c 4,2,3
 538 459 538 459 536.5 447.5 c 4,4,5
 533 424 533 424 529 403.5 c 4,6,7
 523 374 523 374 506.5 361.5 c 4,8,9
 458 324 458 324 456.5 323.5 c 4,10,11
 409 299 409 299 409 299 c 5,12,-1
 598 0 l 5,13,-1
 482 0 l 5,14,-1
 300 289 l 5,15,16
 251.5 289 251.5 289 203 289 c 6,17,-1
 160 289 l 5,18,-1
 160 0 l 5,19,-1
 60 0 l 5,20,-1
 60 725 l 5,21,-1
 227 725 l 6,22,23
 285 725 285 725 343.5 725 c 132,-1,24
 402 725 402 725 421.5 719.5 c 4,25,26
 461 709 461 709 497 681 c 4,27,28
 545 644 545 644 540 513 c 4,0,1
160 364 m 5,29,-1
 229 364 l 6,30,31
 270 364 270 364 291.5 365.5 c 132,-1,32
 313 367 313 367 355 376 c 4,33,34
 394 384 394 384 418 403 c 4,35,36
 440 420 440 420 440 516.5 c 132,-1,37
 440 613 440 613 424 626 c 4,38,39
 402 646 402 646 379 648.5 c 4,40,41
 367 650 367 650 332.5 650 c 4,42,43
 292.25 650 292.25 650 252 650 c 6,44,-1
 160 650 l 5,45,-1
 160 364 l 5,29,-1
EndSplineSet
Validated: 33
EndChar

StartChar: S
Encoding: 83 83 54
Width: 630
VWidth: 1050
GlyphClass: 2
Flags: W
HStem: -7.35 79.8 643.65 79.8<254.625 363.825>
VStem: 76.65 87.15<515.55 585.375 515.55 618.975> 471.45 87.15<133.875 219.45>
LayerCount: 2
Fore
SplineSet
315 -7.349609375 m 132,-1,1
 172.200195312 -7.349609375 172.200195312 -7.349609375 121.799804688 32.5498046875 c 132,-1,2
 71.400390625 72.4501953125 71.400390625 72.4501953125 71.400390625 186.900390625 c 5,3,-1
 162.75 186.900390625 l 5,4,5
 169.049804688 119.700195312 169.049804688 119.700195312 200.025390625 96.599609375 c 132,-1,6
 231 73.5 231 73.5 317.099609375 72.4501953125 c 4,7,8
 405.299804688 71.400390625 405.299804688 71.400390625 438.375 92.9248046875 c 132,-1,9
 471.450195312 114.450195312 471.450195312 114.450195312 471.450195312 176.400390625 c 4,10,11
 471.450195312 240.450195312 471.450195312 240.450195312 432.599609375 273.525390625 c 132,-1,12
 393.75 306.599609375 393.75 306.599609375 280.349609375 342.299804688 c 4,13,14
 159.599609375 380.099609375 159.599609375 380.099609375 118.125 422.625 c 132,-1,15
 76.650390625 465.150390625 76.650390625 465.150390625 76.650390625 552.299804688 c 4,16,17
 76.650390625 652.049804688 76.650390625 652.049804688 126 687.75 c 132,-1,18
 175.349609375 723.450195312 175.349609375 723.450195312 310.799804688 723.450195312 c 4,19,20
 443.099609375 723.450195312 443.099609375 723.450195312 491.400390625 688.799804688 c 132,-1,21
 539.700195312 654.150390625 539.700195312 654.150390625 544.950195312 554.400390625 c 5,22,-1
 454.650390625 554.400390625 l 5,23,24
 449.400390625 606.900390625 449.400390625 606.900390625 420 625.275390625 c 132,-1,25
 390.599609375 643.650390625 390.599609375 643.650390625 312.900390625 643.650390625 c 4,26,27
 226.799804688 643.650390625 226.799804688 643.650390625 195.299804688 623.700195312 c 132,-1,28
 163.799804688 603.75 163.799804688 603.75 163.799804688 551.25 c 132,-1,29
 163.799804688 498.75 163.799804688 498.75 202.125 470.924804688 c 132,-1,30
 240.450195312 443.099609375 240.450195312 443.099609375 358.049804688 403.200195312 c 4,31,32
 476.700195312 362.25 476.700195312 362.25 517.650390625 317.099609375 c 132,-1,33
 558.599609375 271.950195312 558.599609375 271.950195312 558.599609375 175.349609375 c 4,34,35
 558.599609375 69.2998046875 558.599609375 69.2998046875 508.200195312 30.974609375 c 132,-1,0
 457.799804688 -7.349609375 457.799804688 -7.349609375 315 -7.349609375 c 132,-1,1
EndSplineSet
Validated: 33
EndChar

StartChar: T
Encoding: 84 84 55
Width: 600
GlyphClass: 2
Flags: W
LayerCount: 2
Fore
SplineSet
590 650 m 1,0,-1
 350 650 l 1,1,-1
 350 0 l 1,2,-1
 250 0 l 1,3,-1
 250 650 l 1,4,-1
 10 650 l 1,5,-1
 10 725 l 1,6,-1
 590 725 l 1,7,-1
 590 650 l 1,0,-1
EndSplineSet
Validated: 1
EndChar

StartChar: U
Encoding: 85 85 56
Width: 600
GlyphClass: 2
Flags: W
LayerCount: 2
Fore
SplineSet
540 278 m 2,0,1
 540 220 540 220 538 189 c 128,-1,2
 536 158 536 158 521.5 115 c 128,-1,3
 507 72 507 72 478 44 c 0,4,5
 415 -18 415 -18 300 -18 c 128,-1,6
 185 -18 185 -18 122 44 c 0,7,8
 93 72 93 72 78.5 115 c 128,-1,9
 64 158 64 158 62 189 c 128,-1,10
 60 220 60 220 60 278 c 2,11,-1
 60 725 l 1,12,-1
 160 725 l 1,13,-1
 160 259 l 2,14,15
 160 220 160 220 161.5 199 c 128,-1,16
 163 178 163 178 171.5 149 c 128,-1,17
 180 120 180 120 197 100 c 0,18,19
 235 57 235 57 300 57 c 128,-1,20
 365 57 365 57 404 100 c 0,21,22
 421 120 421 120 429.5 149 c 128,-1,23
 438 178 438 178 439 199 c 128,-1,24
 440 220 440 220 440 259 c 2,25,-1
 440 725 l 1,26,-1
 540 725 l 1,27,-1
 540 278 l 2,0,1
EndSplineSet
Validated: 1
EndChar

StartChar: V
Encoding: 86 86 57
Width: 600
GlyphClass: 2
Flags: W
LayerCount: 2
Fore
SplineSet
312 125 m 1,0,-1
 507 725 l 1,1,-1
 590 725 l 1,2,-1
 354 0 l 1,3,-1
 254 0 l 1,4,-1
 10 725 l 1,5,-1
 110 725 l 1,6,-1
 312 125 l 1,0,-1
EndSplineSet
Validated: 1
EndChar

StartChar: W
Encoding: 87 87 58
Width: 600
VWidth: 1203
GlyphClass: 2
Flags: W
LayerCount: 2
Fore
SplineSet
-127.0234375 724.76953125 m 1,0,-1
 -118.26171875 724.76953125 l 2,1,2
 -115 725 -115 725 -112.94921875 723.611328125 c 0,3,4
 -112.26578125 722.451171875 -112.26578125 722.451171875 -104.555664062 722.451171875 c 2,5,-1
 -19.369140625 722.451171875 l 2,6,7
 1 722 1 722 2.5224609375 723.610351562 c 0,8,9
 4.58910806849 724.76953125 4.58910806849 724.76953125 5.3349609375 724.76953125 c 2,10,-1
 14.095703125 724.76953125 l 1,11,-1
 9.2275390625 704.487304688 l 1,12,-1
 10.439453125 704.487304688 l 1,13,14
 3 702 3 702 -0.873046875 688.840820312 c 0,15,16
 -2 685 -2 685 -1.8466796875 680.727539062 c 0,17,18
 -1.99234211361 673.385967229 -1.99234211361 673.385967229 7.40234375 646.538085938 c 2,19,-1
 167.866210938 187.96875 l 1,20,-1
 251.592773438 382.100585938 l 1,21,-1
 168.93359375 538.85546875 l 2,22,23
 144 581 144 581 144.338867188 581.484375 c 0,24,25
 135 588 135 588 141.901367188 594.487304688 c 1,26,-1
 135.0859375 594.487304688 l 1,27,-1
 129.245117188 614.76953125 l 1,28,-1
 138.006835938 614.76953125 l 2,29,30
 147 615 147 615 149.563476562 613.611328125 c 0,31,32
 150.597773437 612.451171875 150.597773437 612.451171875 158.7109375 612.451171875 c 2,33,-1
 220.411132812 612.451171875 l 2,34,35
 241 612 241 612 242.803710938 613.611328125 c 0,36,37
 244 614 244 614 244.6015625 614.76953125 c 2,38,-1
 253.364257812 614.76953125 l 1,39,-1
 248.498046875 594.487304688 l 1,40,-1
 251.22265625 594.487304688 l 1,41,42
 244 592 244 592 239.396484375 578.840820312 c 0,43,44
 238 575 238 575 237.935546875 571.307617188 c 0,45,46
 238.00008472 545.966734666 238.00008472 545.966734666 247.671875 536.538085938 c 2,47,-1
 300.26953125 485.262695312 l 1,48,-1
 352.328125 536.538085938 l 2,49,50
 362 546 362 546 362.063476562 571.307617188 c 0,51,52
 362 575 362 575 361.090820312 578.840820312 c 0,53,54
 357 592 357 592 350.291015625 594.487304688 c 1,55,-1
 351.475585938 594.487304688 l 1,56,-1
 345.147460938 614.76953125 l 1,57,-1
 354.3984375 614.76953125 l 2,58,59
 369 615 369 615 371.7109375 613.611328125 c 0,60,61
 372.6390625 612.451171875 372.6390625 612.451171875 379.102539062 612.451171875 c 2,62,-1
 448.80078125 612.451171875 l 2,63,64
 453 614 453 614 455.192382812 613.611328125 c 0,65,66
 460.505859375 612.137099719 460.505859375 612.137099719 460.505859375 614.76953125 c 2,67,-1
 460.505859375 614.76953125 l 1,68,-1
 463.912109375 594.487304688 l 1,69,-1
 461.612304688 594.487304688 l 1,70,71
 454 589 454 589 453.91796875 581.448242188 c 0,72,73
 453.998708279 565.259005453 453.998708279 565.259005453 439.065429688 538.85546875 c 2,74,-1
 350.408203125 382.100585938 l 1,75,-1
 434.134765625 187.96875 l 1,76,-1
 591.598632812 646.538085938 l 2,77,78
 602 677 602 677 601.333007812 681.307617188 c 0,79,80
 601 685 601 685 600.360351562 688.840820312 c 0,81,82
 596 702 596 702 590.560546875 704.487304688 c 1,83,-1
 590.258789062 704.487304688 l 1,84,-1
 584.41796875 724.76953125 l 1,85,-1
 586.665039062 724.76953125 l 2,86,87
 595 725 595 725 595.977539062 723.611328125 c 0,88,89
 596.713710937 722.451171875 596.713710937 722.451171875 618.370117188 722.451171875 c 2,90,-1
 703.0703125 722.451171875 l 2,91,92
 708 722 708 722 709.462890625 723.611328125 c 0,93,94
 711.578932621 724.76953125 711.578932621 724.76953125 722.7734375 724.76953125 c 2,95,-1
 732.0234375 724.76953125 l 1,96,-1
 725.696289062 704.487304688 l 1,97,-1
 718.879882812 704.487304688 l 1,98,99
 718 693 718 693 716.943359375 691.448242188 c 0,100,101
 701.9916388 672.989677726 701.9916388 672.989677726 692.84765625 648.85546875 c 2,102,-1
 434.134765625 -33.9794921875 l 1,103,-1
 300.26953125 269.677734375 l 1,104,-1
 167.866210938 -33.9794921875 l 1,105,-1
 -94.333984375 648.85546875 l 2,106,107
 -113 691 -113 691 -113 691.5 c 0,108,109
 -118 698 -118 698 -114.3671875 704.487304688 c 1,110,-1
 -121.182617188 704.487304688 l 1,111,-1
 -127.0234375 724.76953125 l 1,0,-1
EndSplineSet
Validated: 33
EndChar

StartChar: X
Encoding: 88 88 59
Width: 600
GlyphClass: 2
Flags: W
LayerCount: 2
Fore
SplineSet
577 0 m 1,0,-1
 467 0 l 1,1,-1
 295 283 l 1,2,-1
 117 0 l 5,3,-1
 22 0 l 1,4,-1
 249 360 l 1,5,-1
 27 725 l 1,6,-1
 137 725 l 1,7,-1
 305 449 l 1,8,-1
 478 725 l 1,9,-1
 574 725 l 1,10,-1
 351 372 l 1,11,-1
 577 0 l 1,0,-1
EndSplineSet
Validated: 1
EndChar

StartChar: Y
Encoding: 89 89 60
Width: 600
GlyphClass: 2
Flags: W
LayerCount: 2
Fore
SplineSet
354 0 m 1,0,-1
 254 0 l 1,1,-1
 254 290 l 1,2,-1
 28 725 l 1,3,-1
 128 725 l 1,4,-1
 312 371 l 1,5,-1
 489 725 l 1,6,-1
 572 725 l 1,7,-1
 354 290 l 1,8,-1
 354 0 l 1,0,-1
EndSplineSet
Validated: 1
EndChar

StartChar: Z
Encoding: 90 90 61
Width: 600
GlyphClass: 2
Flags: W
LayerCount: 2
Fore
SplineSet
565 0 m 1,0,-1
 35 0 l 1,1,-1
 35 93 l 1,2,-1
 463 650 l 1,3,-1
 51 650 l 1,4,-1
 51 725 l 1,5,-1
 565 725 l 1,6,-1
 565 632 l 1,7,-1
 137 75 l 1,8,-1
 565 75 l 1,9,-1
 565 0 l 1,0,-1
EndSplineSet
Validated: 1
EndChar

StartChar: bracketleft
Encoding: 91 91 62
Width: 600
VWidth: 1336
GlyphClass: 2
Flags: W
HStem: -334.5 109.5<254.5 415.5 254.5 415.5> 879 109.5<254.5 415.5 254.5 254.5>
VStem: 172.5 82<-225 879 -225 988.5 -225 988.5> 172.5 243<-334.5 -225 879 988.5>
LayerCount: 2
Fore
SplineSet
29.5 -334.5 m 1,0,-1
 29.5 988.5 l 1,1,-1
 284.5 988.5 l 1,2,-1
 284.5 879 l 1,3,-1
 101.5 879 l 1,4,-1
 101.5 -225 l 1,5,-1
 284.5 -225 l 1,6,-1
 284.5 -334.5 l 1,7,-1
 29.5 -334.5 l 1,0,-1
172.5 -334.5 m 1,8,-1
 172.5 988.5 l 1,9,-1
 427.5 988.5 l 1,10,-1
 427.5 879 l 1,11,-1
 245.5 879 l 1,12,-1
 245.5 -225 l 1,13,-1
 427.5 -225 l 1,14,-1
 427.5 -334.5 l 1,15,-1
 172.5 -334.5 l 1,8,-1
EndSplineSet
Validated: 5
EndChar

StartChar: backslash
Encoding: 92 92 63
Width: 600
GlyphClass: 2
Flags: W
LayerCount: 2
Fore
SplineSet
605 -129 m 1,0,-1
 516 -129 l 1,1,-1
 -5 759 l 1,2,-1
 84 759 l 1,3,-1
 605 -129 l 1,0,-1
EndSplineSet
Validated: 1
EndChar

StartChar: bracketright
Encoding: 93 93 64
Width: 600
VWidth: 1336
GlyphClass: 2
Flags: W
HStem: -334.5 109.5<184.5 345.5 184.5 427.5 184.5 345.5> 879 109.5<184.5 345.5 184.5 427.5>
VStem: 184.5 243<-334.5 -225 -225 -225 879 988.5> 345.5 82<-225 879 879 879>
LayerCount: 2
Fore
SplineSet
561.5 -334.5 m 1,0,-1
 306.5 -334.5 l 1,1,-1
 306.5 -225 l 1,2,-1
 489.5 -225 l 1,3,-1
 489.5 879 l 1,4,-1
 306.5 879 l 1,5,-1
 306.5 988.5 l 1,6,-1
 561.5 988.5 l 1,7,-1
 561.5 -334.5 l 1,0,-1
427.5 -334.5 m 1,8,-1
 172.5 -334.5 l 1,9,-1
 172.5 -225 l 1,10,-1
 355.5 -225 l 1,11,-1
 355.5 879 l 1,12,-1
 172.5 879 l 1,13,-1
 172.5 988.5 l 1,14,-1
 427.5 988.5 l 1,15,-1
 427.5 -334.5 l 1,8,-1
EndSplineSet
Validated: 5
EndChar

StartChar: asciicircum
Encoding: 94 94 65
Width: 600
GlyphClass: 2
Flags: W
LayerCount: 2
Fore
SplineSet
589 362 m 1,0,-1
 496 362 l 1,1,-1
 300 654 l 1,2,-1
 104 362 l 1,3,-1
 11 362 l 1,4,-1
 254 723 l 1,5,-1
 346 723 l 1,6,-1
 589 362 l 1,0,-1
EndSplineSet
Validated: 1
EndChar

StartChar: underscore
Encoding: 95 95 66
Width: 600
GlyphClass: 2
Flags: W
LayerCount: 2
Fore
SplineSet
580 -71 m 1,0,-1
 20 -71 l 1,1,-1
 0 0 l 1,2,-1
 600 0 l 1,3,-1
 580 -71 l 1,0,-1
EndSplineSet
Validated: 1
EndChar

StartChar: grave
Encoding: 96 96 67
Width: 600
GlyphClass: 2
Flags: W
HStem: 603 177<167 322 167 422>
VStem: 167 255<603 780>
LayerCount: 2
Fore
SplineSet
322 603 m 1,0,-1
 167 780 l 1,1,-1
 284 780 l 1,2,-1
 422 603 l 1,3,-1
 322 603 l 1,0,-1
EndSplineSet
Validated: 1
EndChar

StartChar: a
Encoding: 97 97 68
Width: 600
GlyphClass: 2
Flags: W
LayerCount: 2
Fore
SplineSet
311 542 m 0,0,1
 346 542 346 542 374.5 538 c 128,-1,2
 403 534 403 534 424 528 c 128,-1,3
 445 522 445 522 461 510.5 c 128,-1,4
 477 499 477 499 487.5 489.5 c 128,-1,5
 498 480 498 480 505.5 463 c 128,-1,6
 513 446 513 446 517 434 c 128,-1,7
 521 422 521 422 522.5 401 c 128,-1,8
 524 380 524 380 524.5 368 c 128,-1,9
 525 356 525 356 525 333 c 2,10,-1
 525 0 l 1,11,-1
 430 0 l 1,12,-1
 430 40 l 5,13,14
 296 5 296 5 222 -3.5 c 128,-1,15
 148 -12 148 -12 104 29.5 c 128,-1,16
 60 71 60 71 60 136 c 0,17,18
 60 238 60 238 113 266 c 0,19,20
 165 294 165 294 246.5 301.5 c 128,-1,21
 328 309 328 309 430 309 c 1,22,-1
 430 349 l 2,23,24
 430 380 430 380 426.5 398 c 128,-1,25
 423 416 423 416 411 435 c 128,-1,26
 399 454 399 454 371 462.5 c 128,-1,27
 343 471 343 471 297 471 c 0,28,29
 200 471 200 471 95 433 c 1,30,-1
 95 504 l 1,31,32
 200 542 200 542 311 542 c 0,0,1
430 98 m 5,33,-1
 430 252 l 1,34,-1
 428 252 l 2,35,36
 373 252 373 252 344 251 c 128,-1,37
 315 250 315 250 263.5 244.5 c 128,-1,38
 212 239 212 239 183 225 c 0,39,40
 155 211 155 211 155 141 c 0,41,42
 155 103 155 103 182.5 81 c 128,-1,43
 210 59 210 59 256 59 c 0,44,45
 382 59 382 59 430 98 c 5,33,-1
EndSplineSet
Validated: 33
EndChar

StartChar: b
Encoding: 98 98 69
Width: 600
GlyphClass: 2
Flags: W
LayerCount: 2
Fore
SplineSet
545 303 m 0,0,1
 545 265 545 265 539 230 c 128,-1,2
 533 195 533 195 533 158.5 c 128,-1,3
 533 122 533 122 509 92 c 132,-1,4
 485 62 485 62 453 38.5 c 132,-1,5
 421 15 421 15 360.5 1.5 c 128,-1,6
 300 -12 300 -12 241 -12 c 0,7,8
 146 -12 146 -12 75 18 c 1,9,-1
 75 770 l 1,10,-1
 170 770 l 1,11,-1
 170 443 l 1,12,13
 246 542 246 542 359 542 c 0,14,15
 394 542 394 542 424 531.5 c 128,-1,16
 454 521 454 521 483 496 c 128,-1,17
 512 471 512 471 528.5 421.5 c 128,-1,18
 545 372 545 372 545 303 c 0,0,1
245 59 m 0,19,20
 271 59 271 59 294 63 c 128,-1,21
 317 67 317 67 358 81.5 c 128,-1,22
 399 96 399 96 418.5 120 c 132,-1,23
 438 144 438 144 439 187.5 c 128,-1,24
 440 231 440 231 440 289 c 0,25,26
 440 471 440 471 322 471 c 0,27,28
 290 471 290 471 260.5 458 c 128,-1,29
 231 445 231 445 208 422 c 128,-1,30
 185 399 185 399 170 369 c 1,31,-1
 170 68 l 1,32,33
 209 59 209 59 245 59 c 0,19,20
EndSplineSet
Validated: 1
EndChar

StartChar: c
Encoding: 99 99 70
Width: 600
GlyphClass: 2
Flags: W
LayerCount: 2
Fore
SplineSet
155 265 m 0,0,1
 155 224 155 224 164 190 c 128,-1,2
 173 156 173 156 194 125 c 128,-1,3
 215 94 215 94 255 76.5 c 128,-1,4
 295 59 295 59 352 59 c 0,5,6
 416 59 416 59 540 90 c 1,7,-1
 540 15 l 1,8,9
 432 -12 432 -12 352 -12 c 0,10,11
 206 -12 206 -12 133 65.5 c 128,-1,12
 60 143 60 143 60 265 c 0,13,14
 60 315 60 315 73.5 360 c 128,-1,15
 87 405 87 405 118 448 c 128,-1,16
 149 491 149 491 209.5 516.5 c 128,-1,17
 270 542 270 542 354 542 c 0,18,19
 435 542 435 542 540 519 c 5,20,-1
 540 445 l 5,21,22
 421 471 421 471 354 471 c 0,23,24
 155 471 155 471 155 265 c 0,0,1
EndSplineSet
Validated: 1
EndChar

StartChar: d
Encoding: 100 100 71
Width: 600
GlyphClass: 2
Flags: WO
LayerCount: 2
Fore
SplineSet
54 364 m 1,0,1
 67 410 67 410 90 441.5 c 128,-1,2
 113 473 113 473 141.5 495.5 c 128,-1,3
 170 518 170 518 205.5 530.5 c 128,-1,4
 241 543 241 543 282 542.5 c 128,-1,5
 323 542 323 542 360 542 c 0,6,7
 396 542 396 542 430 537 c 1,8,-1
 430 770 l 1,9,-1
 525 819 l 1,10,-1
 525 0 l 1,11,-1
 430 0 l 1,12,-1
 430 77 l 1,13,14
 363 -12 363 -12 254 -12 c 0,15,16
 117 -12 117 -12 59 50 c 0,17,18
 59 50 59 50 54 364 c 1,0,1
358 471 m 0,19,20
 318 471 318 471 278 467 c 0,21,22
 233 463 233 463 208.5 440.5 c 128,-1,23
 184 418 184 418 153.5 349.5 c 1,24,25
 154 142 154 142 158.5 107.5 c 0,26,27
 166 59 166 59 295 59 c 0,28,29
 340 59 340 59 375.5 86.5 c 128,-1,30
 411 114 411 114 430 159 c 1,31,-1
 430 462 l 1,32,33
 393 471 393 471 358 471 c 0,19,20
EndSplineSet
EndChar

StartChar: e
Encoding: 101 101 72
Width: 600
GlyphClass: 2
Flags: W
LayerCount: 2
Fore
SplineSet
160 325 m 5,0,-1
 447 325 l 1,1,2
 440 419 440 419 425.5 433.5 c 0,3,4
 376 486 376 486 282 471 c 256,5,6
 222 462 222 462 178 421.5 c 4,7,8
 173 417 173 417 160 325 c 5,0,-1
346 -12 m 0,9,10
 290 -12 290 -12 244 -0.5 c 128,-1,11
 198 11 198 11 167 32.5 c 128,-1,12
 136 54 136 54 113.5 80.5 c 128,-1,13
 91 107 91 107 78.5 139.5 c 128,-1,14
 66 172 66 172 60.5 203.5 c 128,-1,15
 55 235 55 235 55 269 c 0,16,17
 55 343 55 343 64.5 398 c 128,-1,18
 74 453 74 453 112 483 c 128,-1,19
 150 513 150 513 192 527.5 c 128,-1,20
 234 542 234 542 307 542 c 256,21,22
 374 542 374 542 414 528 c 0,23,24
 461 512 461 512 488 485 c 0,25,26
 527.818181818 445.181818182 527.818181818 445.181818182 535.5 405 c 4,27,28
 542 367 542 367 540 288 c 0,29,30
 538.644331221 271.054140265 538.644331221 271.054140265 539 254 c 1,31,-1
 160 254 l 1,32,33
 160 197 160 197 174 157.5 c 128,-1,34
 188 118 188 118 215 97 c 128,-1,35
 242 76 242 76 274 67.5 c 128,-1,36
 306 59 306 59 349 59 c 0,37,38
 433 59 433 59 528 85 c 1,39,-1
 528 14 l 1,40,41
 433 -12 433 -12 346 -12 c 0,9,10
EndSplineSet
Validated: 33
EndChar

StartChar: f
Encoding: 102 102 73
Width: 600
GlyphClass: 2
Flags: W
HStem: -18.74 22.05G<208.55 208.55 208.55 293.6> 446.41 82.95<72.05 208.55 72.05 72.05 293.6 483.65> 688.96 77.7<494.15 494.15>
VStem: 208.55 85.05<-18.74 446.41 -18.74 446.41 529.36 600.76>
LayerCount: 2
Fore
SplineSet
207 0 m 1,0,-1
 207 446 l 1,1,-1
 45 446 l 1,2,-1
 45 530 l 1,3,-1
 207 530 l 1,4,-1
 207 624 l 2,5,6
 207 693 207 693 251 729.5 c 128,-1,7
 295 766 295 766 364 766 c 2,8,-1
 560 766 l 1,9,-1
 523 688 l 5,10,-1
 364 688 l 2,11,12
 296 688 296 688 296 624 c 2,13,-1
 296 530 l 1,14,-1
 523 530 l 1,15,-1
 482 446 l 1,16,-1
 296 446 l 1,17,-1
 296 0 l 1,18,-1
 207 0 l 1,0,-1
EndSplineSet
Validated: 1
EndChar

StartChar: g
Encoding: 103 103 74
Width: 600
GlyphClass: 2
Flags: W
LayerCount: 2
Fore
SplineSet
286 231 m 0,0,1
 390 231 390 231 415 263 c 0,2,3
 441 296 441 296 441 350 c 0,4,5
 441 406 441 406 413.5 438 c 0,6,7
 385 471 385 471 299.5 471 c 128,-1,8
 214 471 214 471 187.5 438 c 128,-1,9
 161 405 161 405 161 351 c 0,10,11
 161 295 161 295 188 263 c 128,-1,12
 215 231 215 231 286 231 c 0,0,1
56 351 m 0,13,14
 56 384 56 384 68.5 415.5 c 128,-1,15
 81 447 81 447 106.5 476.5 c 128,-1,16
 132 506 132 506 178.5 524 c 128,-1,17
 225 542 225 542 286 542 c 0,18,19
 384 542 384 542 439 516 c 1,20,21
 498 577 498 577 570 577 c 1,22,-1
 570 505 l 1,23,24
 519 505 519 505 484 486 c 1,25,26
 546 432 546 432 546 350 c 0,27,28
 546 318 546 318 534 286.5 c 128,-1,29
 522 255 522 255 497 225 c 128,-1,30
 472 195 472 195 425 176.5 c 0,31,32
 381 159 381 159 286 159 c 0,33,34
 243 159 243 159 205 169 c 1,35,36
 184 151 184 151 184 130 c 0,37,38
 184 106 184 106 209 95 c 0,39,40
 261 73 261 73 297 73 c 2,41,-1
 390 73 l 1,42,43
 390 73 390 73 405 70 c 128,-1,44
 420 67 420 67 424 66 c 128,-1,45
 428 65 428 65 443.5 61 c 128,-1,46
 459 57 459 57 465.5 54 c 128,-1,47
 472 51 472 51 486 45 c 128,-1,48
 500 39 500 39 506.5 33 c 128,-1,49
 513 27 513 27 522.5 18 c 128,-1,50
 532 9 532 9 537 -0.5 c 128,-1,51
 542 -10 542 -10 545.5 -23 c 128,-1,52
 549 -36 549 -36 549 -50 c 0,53,54
 549 -193 549 -193 292 -193 c 0,55,56
 147 -193 147 -193 61 -170 c 1,57,-1
 61 -88 l 1,58,59
 191 -122 191 -122 344 -122 c 0,60,61
 366 -122 366 -122 381 -121 c 128,-1,62
 396 -120 396 -120 415 -116 c 128,-1,63
 434 -112 434 -112 444 -93 c 128,-1,64
 454 -74 454 -74 454 -59 c 0,65,66
 454 -35 454 -35 434.5 -24 c 0,67,68
 396 -3 396 -3 363 -3 c 2,69,-1
 270 -3 l 2,70,71
 248 -3 248 -3 188 15 c 0,72,73
 151 26 151 26 129 54 c 128,-1,74
 107 82 107 82 107 112 c 0,75,76
 107 160 107 160 148 192 c 1,77,78
 105 217 105 217 80.5 259.5 c 128,-1,79
 56 302 56 302 56 351 c 0,13,14
EndSplineSet
Validated: 1
EndChar

StartChar: h
Encoding: 104 104 75
Width: 600
GlyphClass: 2
Flags: W
LayerCount: 2
Fore
SplineSet
430 345 m 2,0,1
 430 369 430 369 429.5 381 c 128,-1,2
 429 393 429 393 425 413 c 128,-1,3
 421 433 421 433 412.5 443 c 128,-1,4
 404 453 404 453 388 461 c 128,-1,5
 372 469 372 469 348 469 c 0,6,7
 181 469 181 469 170 447 c 1,8,-1
 170 0 l 1,9,-1
 75 0 l 1,10,-1
 75 770 l 5,11,-1
 170 770 l 1,12,-1
 170 525 l 1,13,14
 178 540 178 540 384 540 c 0,15,16
 414 540 414 540 437 532.5 c 128,-1,17
 460 525 460 525 474.5 514.5 c 128,-1,18
 489 504 489 504 499.5 484.5 c 128,-1,19
 510 465 510 465 514.5 450.5 c 128,-1,20
 519 436 519 436 521.5 409 c 128,-1,21
 524 382 524 382 524.5 368.5 c 128,-1,22
 525 355 525 355 525 327 c 2,23,-1
 525 0 l 1,24,-1
 430 0 l 1,25,-1
 430 345 l 2,0,1
EndSplineSet
Validated: 1
EndChar

StartChar: i
Encoding: 105 105 76
Width: 600
GlyphClass: 2
Flags: W
LayerCount: 2
Fore
SplineSet
235.614257812 679.740234375 m 1,0,-1
 303 744.456054688 l 1,1,-1
 372.385742188 676.740234375 l 1,2,-1
 305 611.354492188 l 1,3,-1
 235.614257812 679.740234375 l 1,0,-1
353 71 m 1,4,-1
 525 71 l 1,5,-1
 525 0 l 1,6,-1
 75 0 l 1,7,-1
 75 71 l 1,8,-1
 258 71 l 1,9,-1
 258 459 l 1,10,-1
 103 459 l 1,11,-1
 103 530 l 5,12,-1
 353 530 l 1,13,-1
 353 71 l 1,4,-1
EndSplineSet
Validated: 1
EndChar

StartChar: j
Encoding: 106 106 77
Width: 600
GlyphClass: 2
Flags: W
LayerCount: 2
Fore
SplineSet
437 630 m 1,0,-1
 342 630 l 1,1,-1
 342 725 l 1,2,-1
 437 725 l 1,3,-1
 437 630 l 1,0,-1
437 155 m 2,4,5
 437 104 437 104 435 76.5 c 0,6,7
 433 32 433 32 422.5 -5.5 c 128,-1,8
 412 -43 412 -43 367 -91.5 c 0,9,10
 316.295202952 -145.826568266 316.295202952 -145.826568266 224 -176 c 0,11,12
 123 -209 123 -209 110 -208 c 1,13,-1
 110 -127 l 1,14,15
 123 -130 123 -130 210 -94 c 0,16,17
 247 -78 247 -78 291 -41 c 0,18,19
 322 -16 322 -16 329 5 c 128,-1,20
 336 26 336 26 340.5 86 c 0,21,22
 342 104 342 104 342 137 c 2,23,-1
 342 459 l 1,24,-1
 169 459 l 1,25,-1
 169 530 l 1,26,-1
 437 530 l 1,27,-1
 437 155 l 2,4,5
EndSplineSet
Validated: 33
EndChar

StartChar: k
Encoding: 107 107 78
Width: 600
GlyphClass: 2
Flags: W
LayerCount: 2
Fore
SplineSet
584 0 m 1,0,-1
 477 0 l 1,1,-1
 261 253 l 1,2,-1
 170 253 l 1,3,-1
 170 0 l 1,4,-1
 75 0 l 1,5,-1
 75 770 l 1,6,-1
 170 770 l 1,7,-1
 170 340 l 1,8,-1
 243 340.984375 l 0,9,10
 243 340.984375 243 340.984375 422 530 c 1,11,-1
 533 530 l 1,12,-1
 322 309 l 1,13,-1
 584 0 l 1,0,-1
EndSplineSet
Validated: 1
EndChar

StartChar: l
Encoding: 108 108 79
Width: 600
GlyphClass: 2
Flags: W
LayerCount: 2
Fore
SplineSet
258 0 m 1,0,-1
 258 699 l 1,1,-1
 103 699 l 1,2,-1
 143 770 l 5,3,-1
 353 770 l 1,4,-1
 353 71 l 1,5,-1
 525 71 l 1,6,-1
 525 0 l 1,7,-1
 258 0 l 1,0,-1
EndSplineSet
Validated: 1
EndChar

StartChar: m
Encoding: 109 109 80
Width: 600
VWidth: 918
GlyphClass: 2
Flags: W
LayerCount: 2
Fore
SplineSet
-3.5732421875 -2.337890625 m 1,0,-1
 1.2333984375 13.28125 l 1,1,-1
 7.3525390625 13.28125 l 1,2,3
 15 19 15 19 16.2275390625 23.9921875 c 0,4,5
 23 57 23 57 23.4384765625 57.9111328125 c 2,6,-1
 23 530 l 1,7,8
 23 530 23 530 578 530 c 1,9,-1
 577.999023438 57.9111328125 l 2,10,11
 578 52 578 52 585.208984375 23.9921875 c 0,12,13
 588 13 588 13 593.084960938 13.28125 c 1,14,-1
 599.203125 13.28125 l 1,15,-1
 603.573242188 -2.337890625 l 1,16,-1
 596.581054688 -2.337890625 l 2,17,18
 594 -2 594 -2 584.857421875 -1.4462890625 c 0,19,20
 572 -1 572 -1 572.755859375 -0.5537109375 c 2,21,-1
 492.834960938 -0.5537109375 l 6,22,23
 492 -1 492 -1 480.733398438 -1.4462890625 c 4,24,25
 470 -2 470 -2 468.008789062 -2.337890625 c 6,26,-1
 460.580078125 -2.337890625 l 5,27,-1
 465.38671875 13.28125 l 5,28,-1
 471.505859375 13.28125 l 5,29,30
 472 15 472 15 480.380859375 23.9921875 c 4,31,32
 487.590820312 31.5699470088 487.590820312 31.5699470088 487.590820312 57.9111328125 c 6,33,-1
 487.590820312 460.09375 l 5,34,-1
 341.641601562 460.09375 l 1,35,-1
 341.641601562 57.9111328125 l 2,36,37
 342 30 342 30 348.633789062 23.76953125 c 0,38,39
 352 21 352 21 357.290039062 13.28125 c 1,40,-1
 363.845703125 13.28125 l 1,41,-1
 368.21484375 -2.337890625 l 1,42,-1
 361.22265625 -2.337890625 l 2,43,44
 360 -2 360 -2 348.499023438 -1.4462890625 c 0,45,46
 336 -1 336 -1 335.959960938 -0.5537109375 c 2,47,-1
 266.040039062 -0.5537109375 l 2,48,49
 260 -1 260 -1 253.938476562 -1.4462890625 c 0,50,51
 246 -2 246 -2 242.213867188 -2.337890625 c 2,52,-1
 235.221679688 -2.337890625 l 1,53,-1
 239.592773438 13.28125 l 1,54,-1
 245.709960938 13.28125 l 1,55,56
 246 14 246 14 253.584960938 23.9921875 c 0,57,58
 260.795898438 31.7795821398 260.795898438 31.7795821398 260.795898438 57.9111328125 c 2,59,-1
 260.795898438 460 l 1,60,-1
 114.845703125 460 l 1,61,-1
 114.845703125 57.9111328125 l 2,62,63
 115 30 115 30 118 24 c 0,64,65
 121 16 121 16 129.932617188 13.28125 c 1,66,-1
 136.049804688 13.28125 l 1,67,-1
 140.420898438 -2.337890625 l 1,68,-1
 133.427734375 -2.337890625 l 2,69,70
 131 -2 131 -2 121.921875 -1.4462890625 c 0,71,72
 109 -1 109 -1 109.602539062 -0.5537109375 c 2,73,-1
 28.6826171875 -0.5537109375 l 2,74,75
 28 -1 28 -1 16.580078125 -1.4462890625 c 0,76,77
 6 -2 6 -2 3.8564453125 -2.337890625 c 2,78,-1
 -3.5732421875 -2.337890625 l 1,0,-1
EndSplineSet
Validated: 1
EndChar

StartChar: n
Encoding: 110 110 81
Width: 600
VWidth: 839
GlyphClass: 2
Flags: W
LayerCount: 2
Fore
SplineSet
452.099609375 0.16015625 m 1,0,1
 452.099609375 0.16015625 452.099609375 0.16015625 147.099609375 406.319335938 c 1,2,-1
 147.099609375 0.16015625 l 1,3,-1
 55.099609375 0.16015625 l 1,4,-1
 55.099609375 505.83984375 l 1,5,-1
 166.700195312 530.83984375 l 1,6,7
 166.700195312 530.83984375 166.700195312 530.83984375 452.900390625 136.959960938 c 1,8,-1
 452.900390625 529.83984375 l 1,9,-1
 545.900390625 530.83984375 l 1,10,-1
 545.900390625 0.16015625 l 1,11,-1
 452.099609375 0.16015625 l 1,0,1
EndSplineSet
Validated: 1
EndChar

StartChar: o
Encoding: 111 111 82
Width: 600
GlyphClass: 2
Flags: W
HStem: -10 75<240.6 358.85 240.6 394.6> 461 74<240.6 358.85>
VStem: 54.1503 92.4<186 339 186 367.5> 453.45 92.4<186 339>
LayerCount: 2
Fore
SplineSet
300.5 -10 m 128,-1,1
 153 -10 153 -10 100.350585938 47.5 c 0,2,3
 54 99 54 99 54.150390625 262 c 4,4,5
 54 431 54 431 100.350585938 482.5 c 0,6,7
 153 540 153 540 300.5 540 c 128,-1,8
 448 540 448 540 500.150390625 482.5 c 0,9,10
 546 431 546 431 545.849609375 262 c 0,11,12
 546 99 546 99 500.150390625 47.5 c 0,13,0
 448 -10 448 -10 300.5 -10 c 128,-1,1
146.55078125 262 m 0,14,15
 147 143 147 143 174 106.5 c 0,16,17
 206 65 206 65 300.5 65 c 128,-1,18
 395 65 395 65 427 106.5 c 0,19,20
 453 142 453 142 453.451171875 262 c 0,21,22
 453 388 453 388 427 424 c 0,23,24
 395 466 395 466 300.5 466 c 128,-1,25
 206 466 206 466 174 424 c 0,26,27
 147 387 147 387 146.55078125 262 c 0,14,15
EndSplineSet
Validated: 33
EndChar

StartChar: p
Encoding: 112 112 83
Width: 600
GlyphClass: 2
Flags: W
LayerCount: 2
Fore
SplineSet
545 303 m 0,0,1
 545 265 545 265 539 230 c 128,-1,2
 533 195 533 195 525.5 153.5 c 128,-1,3
 518 112 518 112 494 82 c 128,-1,4
 470 52 470 52 438 28.5 c 128,-1,5
 406 5 406 5 353 -3.5 c 128,-1,6
 300 -12 300 -12 241 -12 c 0,7,8
 206 -12 206 -12 170 -12 c 1,9,-1
 170 -202 l 1,10,-1
 75 -236 l 1,11,-1
 75 530 l 1,12,-1
 170 530 l 1,13,-1
 170 502 l 1,14,15
 190 542 190 542 359 542 c 0,16,17
 394 542 394 542 424 531.5 c 128,-1,18
 454 521 454 521 483 496 c 128,-1,19
 512 471 512 471 528.5 421.5 c 128,-1,20
 545 372 545 372 545 303 c 0,0,1
245 59 m 0,21,22
 271 59 271 59 294 63 c 128,-1,23
 317 67 317 67 350.5 76.5 c 128,-1,24
 384 86 384 86 403.5 110 c 128,-1,25
 423 134 423 134 431.5 182.5 c 128,-1,26
 440 231 440 231 440 289 c 0,27,28
 440 471 440 471 322 471 c 0,29,30
 290 471 290 471 260.5 470.5 c 128,-1,31
 231 470 231 470 208 461.5 c 128,-1,32
 185 453 185 453 170 428 c 1,33,-1
 170 63 l 1,34,35
 188 59 188 59 245 59 c 0,21,22
EndSplineSet
Validated: 1
EndChar

StartChar: q
Encoding: 113 113 84
Width: 600
GlyphClass: 2
Flags: W
LayerCount: 2
Fore
SplineSet
55 249 m 0,0,1
 55 306 55 306 68 352 c 128,-1,2
 81 398 81 398 104 429.5 c 128,-1,3
 127 461 127 461 155.5 483.5 c 128,-1,4
 184 506 184 506 219.5 518.5 c 128,-1,5
 255 531 255 531 289 536.5 c 128,-1,6
 323 542 323 542 360 542 c 0,7,8
 455 542 455 542 525 512 c 1,9,-1
 525 -237 l 1,10,-1
 430 -199 l 1,11,-1
 430 77 l 1,12,13
 363 -12 363 -12 261 -12 c 0,14,15
 177 -12 177 -12 116 52 c 128,-1,16
 55 116 55 116 55 249 c 0,0,1
358 471 m 0,17,18
 318 471 318 471 285 461 c 128,-1,19
 252 451 252 451 222.5 428.5 c 128,-1,20
 193 406 193 406 176.5 362.5 c 128,-1,21
 160 319 160 319 160 258 c 0,22,23
 160 158 160 158 198.5 108.5 c 128,-1,24
 237 59 237 59 295 59 c 0,25,26
 340 59 340 59 375.5 86.5 c 128,-1,27
 411 114 411 114 430 159 c 1,28,-1
 430 462 l 1,29,30
 393 471 393 471 358 471 c 0,17,18
EndSplineSet
Validated: 1
EndChar

StartChar: r
Encoding: 114 114 85
Width: 600
GlyphClass: 2
Flags: W
LayerCount: 2
Fore
SplineSet
492 346 m 1,0,1
 496 367 496 367 480 402.247070312 c 0,2,3
 464 438 464 438 418 457 c 0,4,5
 370 477 370 477 277.5 412 c 0,6,7
 213 367 213 367 190 306 c 1,8,-1
 190 0 l 1,9,-1
 95 0 l 1,10,-1
 95 530 l 1,11,-1
 190 530 l 1,12,-1
 190 413 l 1,13,14
 214 453 214 453 249.5 481 c 128,-1,15
 285 509 285 509 331 525.5 c 0,16,17
 376 542 376 542 433 536.5 c 0,18,19
 500 531 500 531 566 453 c 1,20,-1
 566 346 l 0,21,22
 529 346 529 346 492 346 c 1,0,1
EndSplineSet
Validated: 33
EndChar

StartChar: s
Encoding: 115 115 86
Width: 600
GlyphClass: 2
Flags: W
HStem: -10 74<291 291> 461 74<241 329>
VStem: 83.9995 82<370 415.5 370 444.5> 416 83<110 166.5>
LayerCount: 2
Fore
SplineSet
300.5 -10 m 0,0,1
 156 -10 156 -10 110.999023438 23.5 c 128,-1,2
 66 57 66 57 65.9990234375 148 c 1,3,-1
 150.999023438 148 l 1,4,5
 154 100 154 100 181.499023438 82.5 c 0,6,7
 210 65 210 65 290.999023438 64 c 0,8,9
 417 62 417 62 424.499023438 66 c 0,10,11
 449 80 449 80 450.999023438 140 c 0,12,13
 452 180 452 180 419.499023438 200.5 c 0,14,15
 406 209 406 209 253.999023438 239 c 0,16,17
 150 260 150 260 111.499023438 291.5 c 0,18,19
 73 324 73 324 72.9990234375 388 c 0,20,21
 74 473 74 473 109.998046875 504 c 128,-1,22
 146 535 146 535 291 535 c 128,-1,23
 436 535 436 535 476.499023438 506.5 c 0,24,25
 518 478 518 478 522.999023438 398 c 1,26,-1
 439.999023438 398 l 1,27,28
 436 433 436 433 409.999023438 448 c 0,29,30
 388 461 388 461 291 461 c 128,-1,31
 194 461 194 461 174.498046875 445 c 0,32,33
 154 429 154 429 154.999023438 387 c 0,34,35
 156 357 156 357 200.999023438 343.5 c 0,36,37
 206 342 206 342 360.999023438 303 c 0,38,39
 462 278 462 278 497.99609375 235.5 c 128,-1,40
 534 193 534 193 533.999023438 125 c 0,41,42
 534 37 534 37 489.49609375 13.5 c 0,43,44
 446 -10 446 -10 300.5 -10 c 0,0,1
EndSplineSet
Validated: 524321
EndChar

StartChar: t
Encoding: 116 116 87
Width: 612
VWidth: 1020
GlyphClass: 2
Flags: W
HStem: -11.22 77.52<374.26 403.33> 456.96 75.48<115.18 232.48 94.7797 236.56 316.12 502.78>
VStem: 232.48 83.64<160.14 164.22 164.22 456.96> 236.56 79.56<532.44 651.78 651.78 651.78>
LayerCount: 2
Fore
SplineSet
385.48046875 -11.2197265625 m 4,0,1
 290.240234375 -11 290.240234375 -11 261.548828125 26.009765625 c 4,2,3
 232.48046875 62.697265625 232.48046875 62.697265625 232.48046875 160.139648438 c 6,4,-1
 232.48046875 445.959960938 l 5,5,-1
 72.779296875 444.959960938 l 5,6,-1
 105.1796875 530.440429688 l 5,7,-1
 236.560546875 530.440429688 l 5,8,-1
 236.560546875 770.780273438 l 5,9,-1
 323.119140625 770.440429688 l 5,10,-1
 323.119140625 530.440429688 l 5,11,-1
 498.779296875 530.440429688 l 5,12,-1
 498.779296875 445.959960938 l 5,13,-1
 323.119140625 445.959960938 l 5,14,-1
 323.119140625 164.219726562 l 6,15,16
 323.240234375 111 323.240234375 111 343.009765625 88.740234375 c 4,17,18
 363.240234375 66 363.240234375 66 419.140625 66.2998046875 c 4,19,20
 472.240234375 66 472.240234375 66 539.220703125 75.48046875 c 5,21,-1
 539.220703125 0 l 5,22,23
 449.240234375 -11 449.240234375 -11 385.48046875 -11.2197265625 c 4,0,1
EndSplineSet
Validated: 33
EndChar

StartChar: u
Encoding: 117 117 88
Width: 600
GlyphClass: 2
Flags: W
LayerCount: 2
Fore
SplineSet
75 142 m 2,0,-1
 75 530 l 5,1,-1
 170 530 l 1,2,-1
 170 160 l 2,3,4
 170 72 170 72 293 72 c 2,5,-1
 310 72 l 2,6,7
 431 72 431 72 431 157 c 2,8,-1
 431 530 l 1,9,-1
 525 530 l 1,10,-1
 525 142 l 2,11,12
 525 54 525 54 457 16 c 0,13,14
 428 0 428 0 363 0 c 2,15,-1
 238 0 l 2,16,17
 172 0 172 0 143 16 c 0,18,19
 75 54 75 54 75 142 c 2,0,-1
EndSplineSet
Validated: 1
EndChar

StartChar: v
Encoding: 118 118 89
Width: 600
VWidth: 956
GlyphClass: 2
Flags: W
LayerCount: 2
Fore
SplineSet
56.5400390625 530 m 1,0,-1
 151.639648438 530 l 1,1,-1
 268.200195312 169.200195312 l 2,2,3
 277 138 277 138 279.009765625 132.540039062 c 0,4,5
 284 120 284 120 289.1796875 102.459960938 c 0,6,7
 294 89 294 89 298.059570312 75.2001953125 c 1,8,-1
 320.580078125 75.2001953125 l 1,9,10
 325 89 325 89 329.459960938 102.459960938 c 0,11,12
 334 117 334 117 338.629882812 131.540039062 c 0,13,14
 341.309570312 139.3046875 341.309570312 139.3046875 350.5 169.200195312 c 2,15,-1
 461.419921875 530 l 1,16,-1
 543.459960938 530 l 1,17,-1
 362.040039062 0 l 1,18,-1
 241.719726562 0 l 1,19,-1
 56.5400390625 530 l 1,0,-1
EndSplineSet
Validated: 1
EndChar

StartChar: w
Encoding: 119 119 90
Width: 600
GlyphClass: 2
Flags: W
LayerCount: 2
Fore
SplineSet
590 530 m 1,0,-1
 497 0 l 1,1,-1
 402 0 l 1,2,-1
 305 266 l 1,3,-1
 203 0 l 1,4,-1
 113 0 l 1,5,-1
 10 530 l 1,6,-1
 95 530 l 5,7,-1
 173 128 l 1,8,-1
 283 414 l 1,9,-1
 337 414 l 1,10,-1
 440 128 l 1,11,-1
 511 530 l 1,12,-1
 590 530 l 1,0,-1
EndSplineSet
Validated: 1
EndChar

StartChar: x
Encoding: 120 120 91
Width: 600
GlyphClass: 2
Flags: W
LayerCount: 2
Fore
SplineSet
549 0 m 5,0,-1
 454 0 l 1,1,-1
 295 212 l 1,2,-1
 138 0 l 1,3,-1
 43 0 l 1,4,-1
 247 276 l 1,5,-1
 55 530 l 1,6,-1
 150 530 l 5,7,-1
 305 324 l 1,8,-1
 458 530 l 1,9,-1
 553 530 l 1,10,-1
 354 260 l 1,11,-1
 549 0 l 5,0,-1
EndSplineSet
Validated: 1
EndChar

StartChar: y
Encoding: 121 121 92
Width: 600
GlyphClass: 2
Flags: W
LayerCount: 2
Fore
SplineSet
549 530 m 1,0,-1
 280 -193 l 1,1,-1
 201 -193 l 1,2,-1
 264 -25 l 1,3,-1
 51 530 l 1,4,-1
 146 530 l 1,5,-1
 312 106 l 1,6,-1
 470 530 l 1,7,-1
 549 530 l 1,0,-1
EndSplineSet
Validated: 1
EndChar

StartChar: z
Encoding: 122 122 93
Width: 600
GlyphClass: 2
Flags: W
LayerCount: 2
Fore
SplineSet
540 0 m 1,0,-1
 60 0 l 1,1,-1
 60 74 l 1,2,-1
 427 459 l 1,3,-1
 74 459 l 1,4,-1
 74 530 l 1,5,-1
 540 530 l 1,6,-1
 540 456 l 1,7,-1
 173 71 l 1,8,-1
 540 71 l 1,9,-1
 540 0 l 1,0,-1
EndSplineSet
Validated: 1
EndChar

StartChar: braceleft
Encoding: 123 123 94
Width: 600
VWidth: 1336
GlyphClass: 2
Flags: W
HStem: -334.5 117<408.75 537.75 408.75 537.75> 871.5 117<408.75 537.75>
VStem: 62.25 118.5<310.5 343.5 310.5 408 310.5 408> 195.75 117 245.25 117
LayerCount: 2
Fore
SplineSet
537.75 -334.5 m 1,0,1
 473.25 -334.5 473.25 -334.5 435 -334.5 c 128,-1,2
 396.75 -334.5 396.75 -334.5 354.75 -329.25 c 128,-1,3
 312.75 -324 312.75 -324 291 -321.75 c 128,-1,4
 269.25 -319.5 269.25 -319.5 246.75 -303.75 c 128,-1,5
 224.25 -288 224.25 -288 216 -279.75 c 128,-1,6
 207.75 -271.5 207.75 -271.5 201 -242.25 c 128,-1,7
 194.25 -213 194.25 -213 195 -194.25 c 128,-1,8
 195.75 -175.5 195.75 -175.5 201.75 -127.5 c 128,-1,9
 207.75 -79.5 207.75 -79.5 213.75 -47.25 c 128,-1,10
 219.75 -15 219.75 -15 233.25 55.5 c 0,11,12
 239.25 88.5 239.25 88.5 242.25 102.75 c 128,-1,13
 245.25 117 245.25 117 246 138 c 128,-1,14
 246.75 159 246.75 159 244.5 166.5 c 128,-1,15
 242.25 174 242.25 174 232.5 187.5 c 128,-1,16
 222.75 201 222.75 201 211.5 205.5 c 128,-1,17
 200.25 210 200.25 210 177 218.25 c 128,-1,18
 153.75 226.5 153.75 226.5 128.25 231.75 c 128,-1,19
 102.75 237 102.75 237 62.25 246 c 1,20,-1
 62.25 408 l 1,21,22
 117.75 418.5 117.75 418.5 147 424.5 c 128,-1,23
 176.25 430.5 176.25 430.5 201 443.25 c 128,-1,24
 225.75 456 225.75 456 234 463.5 c 128,-1,25
 242.25 471 242.25 471 244.5 495 c 128,-1,26
 246.75 519 246.75 519 244.5 537 c 128,-1,27
 242.25 555 242.25 555 233.25 598.5 c 0,28,29
 219.75 669 219.75 669 213.75 701.25 c 128,-1,30
 207.75 733.5 207.75 733.5 201.75 781.5 c 128,-1,31
 195.75 829.5 195.75 829.5 195 848.25 c 128,-1,32
 194.25 867 194.25 867 201 896.25 c 128,-1,33
 207.75 925.5 207.75 925.5 216 933.75 c 128,-1,34
 224.25 942 224.25 942 246.75 957.75 c 128,-1,35
 269.25 973.5 269.25 973.5 291 975.75 c 128,-1,36
 312.75 978 312.75 978 354.75 983.25 c 128,-1,37
 396.75 988.5 396.75 988.5 435 988.5 c 128,-1,38
 473.25 988.5 473.25 988.5 537.75 988.5 c 1,39,-1
 537.75 871.5 l 1,40,41
 354.75 871.5 354.75 871.5 329.25 849 c 128,-1,42
 303.75 826.5 303.75 826.5 331.377929688 692.982421875 c 0,43,44
 335.25 672 335.25 672 338.25 660 c 0,45,46
 356.25 574.5 356.25 574.5 360 524.25 c 128,-1,47
 363.75 474 363.75 474 360 440.25 c 128,-1,48
 356.25 406.5 356.25 406.5 329.25 388.5 c 128,-1,49
 302.25 370.5 302.25 370.5 273 362.25 c 128,-1,50
 243.75 354 243.75 354 180.75 343.5 c 1,51,-1
 180.75 310.5 l 1,52,53
 243.75 300 243.75 300 273 291.75 c 128,-1,54
 302.25 283.5 302.25 283.5 329.25 265.5 c 128,-1,55
 356.25 247.5 356.25 247.5 360 213.75 c 128,-1,56
 363.75 180 363.75 180 360 129.75 c 128,-1,57
 356.25 79.5 356.25 79.5 338.25 -6 c 0,58,59
 310.823242188 -139.350585938 310.823242188 -139.350585938 314.014648438 -164.310546875 c 0,60,61
 318.907226562 -202.565429688 318.907226562 -202.565429688 371.036132812 -211.517578125 c 0,62,63
 405.873046875 -217.5 405.873046875 -217.5 537.75 -217.5 c 1,64,-1
 537.75 -334.5 l 1,0,1
EndSplineSet
Validated: 33
EndChar

StartChar: bar
Encoding: 124 124 95
Width: 600
VWidth: 1068
GlyphClass: 2
Flags: W
LayerCount: 2
Fore
SplineSet
339 -173.400390625 m 1,0,-1
 261 -173.400390625 l 1,1,-1
 261 803.400390625 l 1,2,-1
 339 803.400390625 l 1,3,-1
 339 -173.400390625 l 1,0,-1
EndSplineSet
Validated: 1
EndChar

StartChar: braceright
Encoding: 125 125 96
Width: 600
VWidth: 1336
GlyphClass: 2
Flags: W
HStem: -334.5 117<62.25 191.25 62.25 251.25> 871.5 117<62.25 191.25>
VStem: 237.75 117 287.25 117 419.25 118.5<310.5 343.5 343.5 343.5>
LayerCount: 2
Fore
SplineSet
62.25 -217.5 m 1,0,1
 245.25 -217.5 245.25 -217.5 270.75 -195 c 128,-1,2
 296.25 -172.5 296.25 -172.5 268.622070312 -38.982421875 c 0,3,4
 264.75 -18 264.75 -18 261.75 -6 c 0,5,6
 243.75 79.5 243.75 79.5 240 129.75 c 128,-1,7
 236.25 180 236.25 180 240 213.75 c 128,-1,8
 243.75 247.5 243.75 247.5 270.75 265.5 c 128,-1,9
 297.75 283.5 297.75 283.5 327 291.75 c 128,-1,10
 356.25 300 356.25 300 419.25 310.5 c 1,11,-1
 419.25 343.5 l 1,12,13
 356.25 354 356.25 354 327 362.25 c 128,-1,14
 297.75 370.5 297.75 370.5 270.75 388.5 c 128,-1,15
 243.75 406.5 243.75 406.5 240 440.25 c 128,-1,16
 236.25 474 236.25 474 240 524.25 c 128,-1,17
 243.75 574.5 243.75 574.5 261.75 660 c 0,18,19
 289.176757812 793.350585938 289.176757812 793.350585938 285.985351562 818.310546875 c 0,20,21
 281.092773438 856.565429688 281.092773438 856.565429688 228.963867188 865.517578125 c 0,22,23
 194.126953125 871.5 194.126953125 871.5 62.25 871.5 c 1,24,-1
 62.25 988.5 l 1,25,26
 126.75 988.5 126.75 988.5 165 988.5 c 128,-1,27
 203.25 988.5 203.25 988.5 245.25 983.25 c 128,-1,28
 287.25 978 287.25 978 309 975.75 c 128,-1,29
 330.75 973.5 330.75 973.5 353.25 957.75 c 128,-1,30
 375.75 942 375.75 942 384 933.75 c 128,-1,31
 392.25 925.5 392.25 925.5 399 896.25 c 128,-1,32
 405.75 867 405.75 867 405 848.25 c 128,-1,33
 404.25 829.5 404.25 829.5 398.25 781.5 c 128,-1,34
 392.25 733.5 392.25 733.5 386.25 701.25 c 128,-1,35
 380.25 669 380.25 669 366.75 598.5 c 0,36,37
 357.75 555 357.75 555 355.5 537 c 128,-1,38
 353.25 519 353.25 519 355.5 495 c 128,-1,39
 357.75 471 357.75 471 366 463.5 c 128,-1,40
 374.25 456 374.25 456 399 443.25 c 128,-1,41
 423.75 430.5 423.75 430.5 453 424.5 c 128,-1,42
 482.25 418.5 482.25 418.5 537.75 408 c 1,43,-1
 537.75 246 l 1,44,45
 497.25 237 497.25 237 471.75 231.75 c 128,-1,46
 446.25 226.5 446.25 226.5 423 218.25 c 128,-1,47
 399.75 210 399.75 210 388.5 205.5 c 128,-1,48
 377.25 201 377.25 201 367.5 187.5 c 128,-1,49
 357.75 174 357.75 174 355.5 166.5 c 128,-1,50
 353.25 159 353.25 159 354 138 c 128,-1,51
 354.75 117 354.75 117 357.75 102.75 c 128,-1,52
 360.75 88.5 360.75 88.5 366.75 55.5 c 0,53,54
 380.25 -15 380.25 -15 386.25 -47.25 c 128,-1,55
 392.25 -79.5 392.25 -79.5 398.25 -127.5 c 128,-1,56
 404.25 -175.5 404.25 -175.5 405 -194.25 c 128,-1,57
 405.75 -213 405.75 -213 399 -242.25 c 128,-1,58
 392.25 -271.5 392.25 -271.5 384 -279.75 c 128,-1,59
 375.75 -288 375.75 -288 353.25 -303.75 c 128,-1,60
 330.75 -319.5 330.75 -319.5 309 -321.75 c 128,-1,61
 287.25 -324 287.25 -324 245.25 -329.25 c 128,-1,62
 203.25 -334.5 203.25 -334.5 165 -334.5 c 128,-1,63
 126.75 -334.5 126.75 -334.5 62.25 -334.5 c 1,64,-1
 62.25 -217.5 l 1,0,1
EndSplineSet
Validated: 33
EndChar

StartChar: asciitilde
Encoding: 126 126 97
Width: 600
GlyphClass: 2
Flags: W
HStem: 195 67<409.5 442.5 409.5 473> 195 171<469 473> 335 67<157.5 191>
VStem: 55 77<235 279.5 235 310> 469 76<320 366>
LayerCount: 2
Fore
SplineSet
416 205 m 0,0,1
 367 205 367 205 349 217 c 0,2,3
 279 261 279 261 279 264 c 128,-1,4
 279 267 279 267 217 298.5 c 0,5,6
 193 311 193 311 178 311 c 0,7,8
 147 311 147 311 139.5 290 c 128,-1,9
 132 269 132 269 132 226 c 1,10,-1
 55 226 l 1,11,12
 55 262 55 262 58.5 296.5 c 128,-1,13
 62 331 62 331 77 350 c 128,-1,14
 92 369 92 369 114.5 373.5 c 128,-1,15
 137 378 137 378 183 367 c 128,-1,16
 229 356 229 356 252.5 344 c 0,17,18
 323 309 323 309 323 308 c 0,19,20
 365 265 365 265 384 263.5 c 128,-1,21
 403 262 403 262 421 262 c 0,22,23
 453 262 453 262 469.5 282 c 128,-1,24
 486 302 486 302 486 371 c 1,25,-1
 562 371 l 1,26,27
 562 310 562 310 550 281.5 c 128,-1,28
 538 253 538 253 523 233.5 c 128,-1,29
 508 214 508 214 485 209.5 c 128,-1,30
 462 205 462 205 416 205 c 0,0,1
EndSplineSet
Validated: 33
EndChar

StartChar: dieresis
Encoding: 168 168 99
Width: 600
GlyphClass: 2
Flags: W
LayerCount: 2
Fore
SplineSet
442 630 m 1,0,-1
 347 630 l 1,1,-1
 347 725 l 1,2,-1
 442 725 l 1,3,-1
 442 630 l 1,0,-1
253 630 m 1,4,-1
 158 630 l 1,5,-1
 158 725 l 1,6,-1
 253 725 l 1,7,-1
 253 630 l 1,4,-1
EndSplineSet
Validated: 1
EndChar

StartChar: macron
Encoding: 175 175 100
Width: 600
GlyphClass: 2
Flags: W
HStem: 661 66<148 451 148 451>
VStem: 148 303<661 727 661 727>
LayerCount: 2
Fore
SplineSet
148 661 m 1,0,-1
 148 727 l 1,1,-1
 451 727 l 1,2,-1
 451 661 l 1,3,-1
 148 661 l 1,0,-1
EndSplineSet
Validated: 1
EndChar

StartChar: acute
Encoding: 180 180 101
Width: 600
GlyphClass: 2
Flags: W
HStem: 603 177<172 427 172 427>
VStem: 172 255<603 780>
LayerCount: 2
Fore
SplineSet
272 603 m 1,0,-1
 172 603 l 1,1,-1
 310 780 l 1,2,-1
 427 780 l 1,3,-1
 272 603 l 1,0,-1
EndSplineSet
Validated: 1
EndChar

StartChar: Agrave
Encoding: 192 192 102
Width: 600
GlyphClass: 2
Flags: W
LayerCount: 2
Fore
SplineSet
344 796 m 1,0,-1
 287 796 l 1,1,-1
 173 956 l 1,2,-1
 268 956 l 1,3,-1
 344 796 l 1,0,-1
590 0 m 1,4,-1
 490 0 l 1,5,-1
 422 202 l 1,6,-1
 159 202 l 1,7,-1
 93 0 l 1,8,-1
 10 0 l 1,9,-1
 246 725 l 1,10,-1
 346 725 l 1,11,-1
 590 0 l 1,4,-1
397 277 m 1,12,-1
 288 600 l 1,13,-1
 183 277 l 1,14,-1
 397 277 l 1,12,-1
EndSplineSet
Validated: 1
EndChar

StartChar: Aacute
Encoding: 193 193 103
Width: 600
GlyphClass: 2
Flags: W
LayerCount: 2
Fore
SplineSet
401 956 m 1,0,-1
 287 796 l 1,1,-1
 230 796 l 1,2,-1
 306 956 l 1,3,-1
 401 956 l 1,0,-1
590 0 m 1,4,-1
 490 0 l 1,5,-1
 422 202 l 1,6,-1
 159 202 l 1,7,-1
 93 0 l 1,8,-1
 10 0 l 1,9,-1
 246 725 l 1,10,-1
 346 725 l 1,11,-1
 590 0 l 1,4,-1
397 277 m 1,12,-1
 288 600 l 1,13,-1
 183 277 l 1,14,-1
 397 277 l 1,12,-1
EndSplineSet
Validated: 1
EndChar

StartChar: Acircumflex
Encoding: 194 194 104
Width: 600
GlyphClass: 2
Flags: W
LayerCount: 2
Fore
SplineSet
444 796 m 1,0,-1
 368 796 l 1,1,-1
 287 886 l 1,2,-1
 206 796 l 1,3,-1
 130 796 l 1,4,-1
 240 938 l 1,5,-1
 334 938 l 1,6,-1
 444 796 l 1,0,-1
590 0 m 1,7,-1
 490 0 l 1,8,-1
 422 202 l 1,9,-1
 159 202 l 1,10,-1
 93 0 l 1,11,-1
 10 0 l 1,12,-1
 246 725 l 1,13,-1
 346 725 l 1,14,-1
 590 0 l 1,7,-1
397 277 m 1,15,-1
 288 600 l 1,16,-1
 183 277 l 1,17,-1
 397 277 l 1,15,-1
EndSplineSet
Validated: 1
EndChar

StartChar: Adieresis
Encoding: 196 196 105
Width: 600
GlyphClass: 2
Flags: W
LayerCount: 2
Fore
SplineSet
429 825 m 1,0,-1
 334 825 l 1,1,-1
 334 920 l 1,2,-1
 429 920 l 1,3,-1
 429 825 l 1,0,-1
240 825 m 1,4,-1
 145 825 l 1,5,-1
 145 920 l 1,6,-1
 240 920 l 1,7,-1
 240 825 l 1,4,-1
590 0 m 1,8,-1
 490 0 l 1,9,-1
 422 202 l 1,10,-1
 159 202 l 1,11,-1
 93 0 l 1,12,-1
 10 0 l 1,13,-1
 246 725 l 1,14,-1
 346 725 l 1,15,-1
 590 0 l 1,8,-1
397 277 m 1,16,-1
 288 600 l 1,17,-1
 183 277 l 1,18,-1
 397 277 l 1,16,-1
EndSplineSet
Validated: 1
EndChar

StartChar: Aring
Encoding: 197 197 106
Width: 600
GlyphClass: 2
Flags: W
LayerCount: 2
Fore
SplineSet
344 894 m 0,0,1
 344 918 344 918 327 934.5 c 128,-1,2
 310 951 310 951 287 951 c 128,-1,3
 264 951 264 951 247 934.5 c 128,-1,4
 230 918 230 918 230 894 c 0,5,6
 230 871 230 871 247 854.5 c 128,-1,7
 264 838 264 838 287 838 c 128,-1,8
 310 838 310 838 327 854.5 c 128,-1,9
 344 871 344 871 344 894 c 0,0,1
401 894 m 128,-1,11
 401 850 401 850 367 820 c 128,-1,12
 333 790 333 790 287 790 c 128,-1,13
 241 790 241 790 207 820 c 128,-1,14
 173 850 173 850 173 894 c 128,-1,15
 173 938 173 938 206.5 968 c 128,-1,16
 240 998 240 998 287 998 c 128,-1,17
 334 998 334 998 367.5 968 c 128,-1,10
 401 938 401 938 401 894 c 128,-1,11
590 0 m 1,18,-1
 490 0 l 1,19,-1
 422 202 l 1,20,-1
 159 202 l 1,21,-1
 93 0 l 1,22,-1
 10 0 l 1,23,-1
 246 725 l 1,24,-1
 346 725 l 1,25,-1
 590 0 l 1,18,-1
397 277 m 1,26,-1
 288 600 l 1,27,-1
 183 277 l 1,28,-1
 397 277 l 1,26,-1
EndSplineSet
Validated: 1
EndChar

StartChar: Egrave
Encoding: 200 200 107
Width: 600
GlyphClass: 2
Flags: W
LayerCount: 2
Fore
SplineSet
370 796 m 1,0,-1
 313 796 l 1,1,-1
 199 956 l 1,2,-1
 294 956 l 1,3,-1
 370 796 l 1,0,-1
576 0 m 1,4,-1
 60 0 l 1,5,-1
 60 725 l 1,6,-1
 565 725 l 1,7,-1
 565 650 l 1,8,-1
 160 650 l 1,9,-1
 160 426 l 1,10,-1
 488 426 l 1,11,-1
 488 351 l 1,12,-1
 160 351 l 1,13,-1
 160 75 l 1,14,-1
 576 75 l 1,15,-1
 576 0 l 1,4,-1
EndSplineSet
Validated: 1
EndChar

StartChar: Eacute
Encoding: 201 201 108
Width: 600
GlyphClass: 2
Flags: W
LayerCount: 2
Fore
SplineSet
426 956 m 1,0,-1
 312 796 l 1,1,-1
 255 796 l 1,2,-1
 331 956 l 1,3,-1
 426 956 l 1,0,-1
576 0 m 1,4,-1
 60 0 l 1,5,-1
 60 725 l 1,6,-1
 565 725 l 1,7,-1
 565 650 l 1,8,-1
 160 650 l 1,9,-1
 160 426 l 1,10,-1
 488 426 l 1,11,-1
 488 351 l 1,12,-1
 160 351 l 1,13,-1
 160 75 l 1,14,-1
 576 75 l 1,15,-1
 576 0 l 1,4,-1
EndSplineSet
Validated: 1
EndChar

StartChar: Ecircumflex
Encoding: 202 202 109
Width: 600
GlyphClass: 2
Flags: W
LayerCount: 2
Fore
SplineSet
470 796 m 1,0,-1
 394 796 l 1,1,-1
 313 886 l 1,2,-1
 232 796 l 1,3,-1
 156 796 l 1,4,-1
 266 938 l 1,5,-1
 360 938 l 1,6,-1
 470 796 l 1,0,-1
576 0 m 1,7,-1
 60 0 l 1,8,-1
 60 725 l 1,9,-1
 565 725 l 1,10,-1
 565 650 l 1,11,-1
 160 650 l 1,12,-1
 160 426 l 1,13,-1
 488 426 l 1,14,-1
 488 351 l 1,15,-1
 160 351 l 1,16,-1
 160 75 l 1,17,-1
 576 75 l 1,18,-1
 576 0 l 1,7,-1
EndSplineSet
Validated: 1
EndChar

StartChar: Edieresis
Encoding: 203 203 110
Width: 600
GlyphClass: 2
Flags: W
LayerCount: 2
Fore
SplineSet
455 825 m 1,0,-1
 360 825 l 1,1,-1
 360 920 l 1,2,-1
 455 920 l 1,3,-1
 455 825 l 1,0,-1
266 825 m 1,4,-1
 171 825 l 1,5,-1
 171 920 l 1,6,-1
 266 920 l 1,7,-1
 266 825 l 1,4,-1
576 0 m 1,8,-1
 60 0 l 1,9,-1
 60 725 l 1,10,-1
 565 725 l 1,11,-1
 565 650 l 1,12,-1
 160 650 l 1,13,-1
 160 426 l 1,14,-1
 488 426 l 1,15,-1
 488 351 l 1,16,-1
 160 351 l 1,17,-1
 160 75 l 1,18,-1
 576 75 l 1,19,-1
 576 0 l 1,8,-1
EndSplineSet
Validated: 1
EndChar

StartChar: Igrave
Encoding: 204 204 111
Width: 600
GlyphClass: 2
Flags: W
LayerCount: 2
Fore
SplineSet
357 796 m 1,0,-1
 300 796 l 1,1,-1
 186 956 l 1,2,-1
 281 956 l 1,3,-1
 357 796 l 1,0,-1
350 75 m 1,4,-1
 512 75 l 1,5,-1
 512 0 l 1,6,-1
 88 0 l 1,7,-1
 88 75 l 1,8,-1
 250 75 l 1,9,-1
 250 650 l 1,10,-1
 88 650 l 1,11,-1
 88 725 l 1,12,-1
 512 725 l 1,13,-1
 512 650 l 1,14,-1
 350 650 l 1,15,-1
 350 75 l 1,4,-1
EndSplineSet
Validated: 1
EndChar

StartChar: Iacute
Encoding: 205 205 112
Width: 600
GlyphClass: 2
Flags: W
LayerCount: 2
Fore
SplineSet
414 956 m 1,0,-1
 300 796 l 1,1,-1
 243 796 l 1,2,-1
 319 956 l 1,3,-1
 414 956 l 1,0,-1
350 75 m 1,4,-1
 512 75 l 1,5,-1
 512 0 l 1,6,-1
 88 0 l 1,7,-1
 88 75 l 1,8,-1
 250 75 l 1,9,-1
 250 650 l 1,10,-1
 88 650 l 1,11,-1
 88 725 l 1,12,-1
 512 725 l 1,13,-1
 512 650 l 1,14,-1
 350 650 l 1,15,-1
 350 75 l 1,4,-1
EndSplineSet
Validated: 1
EndChar

StartChar: Icircumflex
Encoding: 206 206 113
Width: 600
GlyphClass: 2
Flags: W
LayerCount: 2
Fore
SplineSet
457 796 m 1,0,-1
 381 796 l 1,1,-1
 300 886 l 1,2,-1
 219 796 l 1,3,-1
 143 796 l 1,4,-1
 253 938 l 1,5,-1
 347 938 l 1,6,-1
 457 796 l 1,0,-1
350 75 m 1,7,-1
 512 75 l 1,8,-1
 512 0 l 1,9,-1
 88 0 l 1,10,-1
 88 75 l 1,11,-1
 250 75 l 1,12,-1
 250 650 l 1,13,-1
 88 650 l 1,14,-1
 88 725 l 1,15,-1
 512 725 l 1,16,-1
 512 650 l 1,17,-1
 350 650 l 1,18,-1
 350 75 l 1,7,-1
EndSplineSet
Validated: 1
EndChar

StartChar: Idieresis
Encoding: 207 207 114
Width: 600
GlyphClass: 2
Flags: W
LayerCount: 2
Fore
SplineSet
442 825 m 1,0,-1
 347 825 l 1,1,-1
 347 920 l 1,2,-1
 442 920 l 1,3,-1
 442 825 l 1,0,-1
253 825 m 1,4,-1
 158 825 l 1,5,-1
 158 920 l 1,6,-1
 253 920 l 1,7,-1
 253 825 l 1,4,-1
350 75 m 1,8,-1
 512 75 l 1,9,-1
 512 0 l 1,10,-1
 88 0 l 1,11,-1
 88 75 l 1,12,-1
 250 75 l 1,13,-1
 250 650 l 1,14,-1
 88 650 l 1,15,-1
 88 725 l 1,16,-1
 512 725 l 1,17,-1
 512 650 l 1,18,-1
 350 650 l 1,19,-1
 350 75 l 1,8,-1
EndSplineSet
Validated: 1
EndChar

StartChar: Eth
Encoding: 208 208 115
Width: 600
GlyphClass: 2
Flags: W
LayerCount: 2
Fore
SplineSet
465 365 m 0,0,1
 465 487 465 487 415 570 c 0,2,3
 398 599 398 599 378 616 c 128,-1,4
 358 633 358 633 333 640 c 128,-1,5
 308 647 308 647 291.5 648.5 c 128,-1,6
 275 650 275 650 245 650 c 2,7,-1
 160 650 l 1,8,-1
 160 400 l 1,9,-1
 297 400 l 1,10,-1
 297 325 l 1,11,-1
 160 325 l 1,12,-1
 160 75 l 1,13,-1
 218 75 l 2,14,15
 252 75 252 75 270.5 76.5 c 128,-1,16
 289 78 289 78 317 85 c 128,-1,17
 345 92 345 92 367 109.5 c 128,-1,18
 389 127 389 127 409 156 c 0,19,20
 465 240 465 240 465 365 c 0,0,1
565 364 m 0,21,22
 565 213 565 213 479 106 c 0,23,24
 448 68 448 68 413.5 45 c 128,-1,25
 379 22 379 22 335.5 13 c 128,-1,26
 292 4 292 4 263.5 2 c 128,-1,27
 235 0 235 0 182 0 c 2,28,-1
 60 0 l 1,29,-1
 60 325 l 1,30,-1
 6 325 l 1,31,-1
 6 400 l 1,32,-1
 60 400 l 1,33,-1
 60 725 l 1,34,-1
 208 725 l 2,35,36
 247 725 247 725 267.5 724 c 128,-1,37
 288 723 288 723 323 718 c 128,-1,38
 358 713 358 713 381.5 702 c 128,-1,39
 405 691 405 691 433 670 c 128,-1,40
 461 649 461 649 484 618 c 0,41,42
 565 510 565 510 565 364 c 0,21,22
EndSplineSet
Validated: 1
EndChar

StartChar: Ograve
Encoding: 210 210 116
Width: 600
GlyphClass: 2
Flags: W
LayerCount: 2
Fore
SplineSet
357 796 m 1,0,-1
 300 796 l 1,1,-1
 186 956 l 1,2,-1
 281 956 l 1,3,-1
 357 796 l 1,0,-1
460 363 m 128,-1,5
 460 418 460 418 457.5 453 c 128,-1,6
 455 488 455 488 442 533.5 c 128,-1,7
 429 579 429 579 404 612 c 0,8,9
 362 668 362 668 300 668 c 128,-1,10
 238 668 238 668 196 612 c 0,11,12
 171 579 171 579 158 533.5 c 128,-1,13
 145 488 145 488 142.5 453 c 128,-1,14
 140 418 140 418 140 363 c 128,-1,15
 140 308 140 308 142.5 272.5 c 128,-1,16
 145 237 145 237 158 191.5 c 128,-1,17
 171 146 171 146 196 113 c 0,18,19
 238 57 238 57 300 57 c 128,-1,20
 362 57 362 57 404 113 c 0,21,22
 429 146 429 146 442 191.5 c 128,-1,23
 455 237 455 237 457.5 272.5 c 128,-1,4
 460 308 460 308 460 363 c 128,-1,5
300 743 m 128,-1,25
 335 743 335 743 369.5 733 c 128,-1,26
 404 723 404 723 441.5 696.5 c 128,-1,27
 479 670 479 670 506.5 628.5 c 128,-1,28
 534 587 534 587 552 518.5 c 128,-1,29
 570 450 570 450 570 363 c 0,30,31
 570 275 570 275 552 206.5 c 128,-1,32
 534 138 534 138 506.5 96.5 c 128,-1,33
 479 55 479 55 441.5 28.5 c 128,-1,34
 404 2 404 2 369.5 -8 c 128,-1,35
 335 -18 335 -18 300 -18 c 128,-1,36
 265 -18 265 -18 230.5 -8 c 128,-1,37
 196 2 196 2 158.5 28.5 c 128,-1,38
 121 55 121 55 93.5 96.5 c 128,-1,39
 66 138 66 138 48 206.5 c 128,-1,40
 30 275 30 275 30 363 c 0,41,42
 30 450 30 450 48 518.5 c 128,-1,43
 66 587 66 587 93.5 628.5 c 128,-1,44
 121 670 121 670 158.5 696.5 c 128,-1,45
 196 723 196 723 230.5 733 c 128,-1,24
 265 743 265 743 300 743 c 128,-1,25
EndSplineSet
Validated: 1
EndChar

StartChar: Oacute
Encoding: 211 211 117
Width: 600
GlyphClass: 2
Flags: W
LayerCount: 2
Fore
SplineSet
414 956 m 1,0,-1
 300 796 l 1,1,-1
 243 796 l 1,2,-1
 319 956 l 1,3,-1
 414 956 l 1,0,-1
460 363 m 128,-1,5
 460 418 460 418 457.5 453 c 128,-1,6
 455 488 455 488 442 533.5 c 128,-1,7
 429 579 429 579 404 612 c 0,8,9
 362 668 362 668 300 668 c 128,-1,10
 238 668 238 668 196 612 c 0,11,12
 171 579 171 579 158 533.5 c 128,-1,13
 145 488 145 488 142.5 453 c 128,-1,14
 140 418 140 418 140 363 c 128,-1,15
 140 308 140 308 142.5 272.5 c 128,-1,16
 145 237 145 237 158 191.5 c 128,-1,17
 171 146 171 146 196 113 c 0,18,19
 238 57 238 57 300 57 c 128,-1,20
 362 57 362 57 404 113 c 0,21,22
 429 146 429 146 442 191.5 c 128,-1,23
 455 237 455 237 457.5 272.5 c 128,-1,4
 460 308 460 308 460 363 c 128,-1,5
300 743 m 128,-1,25
 335 743 335 743 369.5 733 c 128,-1,26
 404 723 404 723 441.5 696.5 c 128,-1,27
 479 670 479 670 506.5 628.5 c 128,-1,28
 534 587 534 587 552 518.5 c 128,-1,29
 570 450 570 450 570 363 c 0,30,31
 570 275 570 275 552 206.5 c 128,-1,32
 534 138 534 138 506.5 96.5 c 128,-1,33
 479 55 479 55 441.5 28.5 c 128,-1,34
 404 2 404 2 369.5 -8 c 128,-1,35
 335 -18 335 -18 300 -18 c 128,-1,36
 265 -18 265 -18 230.5 -8 c 128,-1,37
 196 2 196 2 158.5 28.5 c 128,-1,38
 121 55 121 55 93.5 96.5 c 128,-1,39
 66 138 66 138 48 206.5 c 128,-1,40
 30 275 30 275 30 363 c 0,41,42
 30 450 30 450 48 518.5 c 128,-1,43
 66 587 66 587 93.5 628.5 c 128,-1,44
 121 670 121 670 158.5 696.5 c 128,-1,45
 196 723 196 723 230.5 733 c 128,-1,24
 265 743 265 743 300 743 c 128,-1,25
EndSplineSet
Validated: 1
EndChar

StartChar: Ocircumflex
Encoding: 212 212 118
Width: 600
GlyphClass: 2
Flags: W
LayerCount: 2
Fore
SplineSet
457 796 m 1,0,-1
 381 796 l 1,1,-1
 300 886 l 1,2,-1
 219 796 l 1,3,-1
 143 796 l 1,4,-1
 253 938 l 1,5,-1
 347 938 l 1,6,-1
 457 796 l 1,0,-1
460 363 m 128,-1,8
 460 418 460 418 457.5 453 c 128,-1,9
 455 488 455 488 442 533.5 c 128,-1,10
 429 579 429 579 404 612 c 0,11,12
 362 668 362 668 300 668 c 128,-1,13
 238 668 238 668 196 612 c 0,14,15
 171 579 171 579 158 533.5 c 128,-1,16
 145 488 145 488 142.5 453 c 128,-1,17
 140 418 140 418 140 363 c 128,-1,18
 140 308 140 308 142.5 272.5 c 128,-1,19
 145 237 145 237 158 191.5 c 128,-1,20
 171 146 171 146 196 113 c 0,21,22
 238 57 238 57 300 57 c 128,-1,23
 362 57 362 57 404 113 c 0,24,25
 429 146 429 146 442 191.5 c 128,-1,26
 455 237 455 237 457.5 272.5 c 128,-1,7
 460 308 460 308 460 363 c 128,-1,8
300 743 m 128,-1,28
 335 743 335 743 369.5 733 c 128,-1,29
 404 723 404 723 441.5 696.5 c 128,-1,30
 479 670 479 670 506.5 628.5 c 128,-1,31
 534 587 534 587 552 518.5 c 128,-1,32
 570 450 570 450 570 363 c 0,33,34
 570 275 570 275 552 206.5 c 128,-1,35
 534 138 534 138 506.5 96.5 c 128,-1,36
 479 55 479 55 441.5 28.5 c 128,-1,37
 404 2 404 2 369.5 -8 c 128,-1,38
 335 -18 335 -18 300 -18 c 128,-1,39
 265 -18 265 -18 230.5 -8 c 128,-1,40
 196 2 196 2 158.5 28.5 c 128,-1,41
 121 55 121 55 93.5 96.5 c 128,-1,42
 66 138 66 138 48 206.5 c 128,-1,43
 30 275 30 275 30 363 c 0,44,45
 30 450 30 450 48 518.5 c 128,-1,46
 66 587 66 587 93.5 628.5 c 128,-1,47
 121 670 121 670 158.5 696.5 c 128,-1,48
 196 723 196 723 230.5 733 c 128,-1,27
 265 743 265 743 300 743 c 128,-1,28
EndSplineSet
Validated: 1
EndChar

StartChar: Odieresis
Encoding: 214 214 119
Width: 600
GlyphClass: 2
Flags: W
LayerCount: 2
Fore
SplineSet
442 825 m 1,0,-1
 347 825 l 1,1,-1
 347 920 l 1,2,-1
 442 920 l 1,3,-1
 442 825 l 1,0,-1
253 825 m 1,4,-1
 158 825 l 1,5,-1
 158 920 l 1,6,-1
 253 920 l 1,7,-1
 253 825 l 1,4,-1
460 363 m 128,-1,9
 460 418 460 418 457.5 453 c 128,-1,10
 455 488 455 488 442 533.5 c 128,-1,11
 429 579 429 579 404 612 c 0,12,13
 362 668 362 668 300 668 c 128,-1,14
 238 668 238 668 196 612 c 0,15,16
 171 579 171 579 158 533.5 c 128,-1,17
 145 488 145 488 142.5 453 c 128,-1,18
 140 418 140 418 140 363 c 128,-1,19
 140 308 140 308 142.5 272.5 c 128,-1,20
 145 237 145 237 158 191.5 c 128,-1,21
 171 146 171 146 196 113 c 0,22,23
 238 57 238 57 300 57 c 128,-1,24
 362 57 362 57 404 113 c 0,25,26
 429 146 429 146 442 191.5 c 128,-1,27
 455 237 455 237 457.5 272.5 c 128,-1,8
 460 308 460 308 460 363 c 128,-1,9
300 743 m 128,-1,29
 335 743 335 743 369.5 733 c 128,-1,30
 404 723 404 723 441.5 696.5 c 128,-1,31
 479 670 479 670 506.5 628.5 c 128,-1,32
 534 587 534 587 552 518.5 c 128,-1,33
 570 450 570 450 570 363 c 0,34,35
 570 275 570 275 552 206.5 c 128,-1,36
 534 138 534 138 506.5 96.5 c 128,-1,37
 479 55 479 55 441.5 28.5 c 128,-1,38
 404 2 404 2 369.5 -8 c 128,-1,39
 335 -18 335 -18 300 -18 c 128,-1,40
 265 -18 265 -18 230.5 -8 c 128,-1,41
 196 2 196 2 158.5 28.5 c 128,-1,42
 121 55 121 55 93.5 96.5 c 128,-1,43
 66 138 66 138 48 206.5 c 128,-1,44
 30 275 30 275 30 363 c 0,45,46
 30 450 30 450 48 518.5 c 128,-1,47
 66 587 66 587 93.5 628.5 c 128,-1,48
 121 670 121 670 158.5 696.5 c 128,-1,49
 196 723 196 723 230.5 733 c 128,-1,28
 265 743 265 743 300 743 c 128,-1,29
EndSplineSet
Validated: 1
EndChar

StartChar: Ugrave
Encoding: 217 217 120
Width: 600
GlyphClass: 2
Flags: W
LayerCount: 2
Fore
SplineSet
357 796 m 1,0,-1
 300 796 l 1,1,-1
 186 956 l 1,2,-1
 281 956 l 1,3,-1
 357 796 l 1,0,-1
540 278 m 2,4,5
 540 220 540 220 538 189 c 128,-1,6
 536 158 536 158 521.5 115 c 128,-1,7
 507 72 507 72 478 44 c 0,8,9
 415 -18 415 -18 300 -18 c 128,-1,10
 185 -18 185 -18 122 44 c 0,11,12
 93 72 93 72 78.5 115 c 128,-1,13
 64 158 64 158 62 189 c 128,-1,14
 60 220 60 220 60 278 c 2,15,-1
 60 725 l 1,16,-1
 160 725 l 1,17,-1
 160 259 l 2,18,19
 160 220 160 220 161.5 199 c 128,-1,20
 163 178 163 178 171.5 149 c 128,-1,21
 180 120 180 120 197 100 c 0,22,23
 235 57 235 57 300 57 c 128,-1,24
 365 57 365 57 404 100 c 0,25,26
 421 120 421 120 429.5 149 c 128,-1,27
 438 178 438 178 439 199 c 128,-1,28
 440 220 440 220 440 259 c 2,29,-1
 440 725 l 1,30,-1
 540 725 l 1,31,-1
 540 278 l 2,4,5
EndSplineSet
Validated: 1
EndChar

StartChar: Uacute
Encoding: 218 218 121
Width: 600
GlyphClass: 2
Flags: W
LayerCount: 2
Fore
SplineSet
414 956 m 1,0,-1
 300 796 l 1,1,-1
 243 796 l 1,2,-1
 319 956 l 1,3,-1
 414 956 l 1,0,-1
540 278 m 2,4,5
 540 220 540 220 538 189 c 128,-1,6
 536 158 536 158 521.5 115 c 128,-1,7
 507 72 507 72 478 44 c 0,8,9
 415 -18 415 -18 300 -18 c 128,-1,10
 185 -18 185 -18 122 44 c 0,11,12
 93 72 93 72 78.5 115 c 128,-1,13
 64 158 64 158 62 189 c 128,-1,14
 60 220 60 220 60 278 c 2,15,-1
 60 725 l 1,16,-1
 160 725 l 1,17,-1
 160 259 l 2,18,19
 160 220 160 220 161.5 199 c 128,-1,20
 163 178 163 178 171.5 149 c 128,-1,21
 180 120 180 120 197 100 c 0,22,23
 235 57 235 57 300 57 c 128,-1,24
 365 57 365 57 404 100 c 0,25,26
 421 120 421 120 429.5 149 c 128,-1,27
 438 178 438 178 439 199 c 128,-1,28
 440 220 440 220 440 259 c 2,29,-1
 440 725 l 1,30,-1
 540 725 l 1,31,-1
 540 278 l 2,4,5
EndSplineSet
Validated: 1
EndChar

StartChar: Ucircumflex
Encoding: 219 219 122
Width: 600
GlyphClass: 2
Flags: W
LayerCount: 2
Fore
SplineSet
457 796 m 1,0,-1
 381 796 l 1,1,-1
 300 886 l 1,2,-1
 219 796 l 1,3,-1
 143 796 l 1,4,-1
 253 938 l 1,5,-1
 347 938 l 1,6,-1
 457 796 l 1,0,-1
540 278 m 2,7,8
 540 220 540 220 538 189 c 128,-1,9
 536 158 536 158 521.5 115 c 128,-1,10
 507 72 507 72 478 44 c 0,11,12
 415 -18 415 -18 300 -18 c 128,-1,13
 185 -18 185 -18 122 44 c 0,14,15
 93 72 93 72 78.5 115 c 128,-1,16
 64 158 64 158 62 189 c 128,-1,17
 60 220 60 220 60 278 c 2,18,-1
 60 725 l 1,19,-1
 160 725 l 1,20,-1
 160 259 l 2,21,22
 160 220 160 220 161.5 199 c 128,-1,23
 163 178 163 178 171.5 149 c 128,-1,24
 180 120 180 120 197 100 c 0,25,26
 235 57 235 57 300 57 c 128,-1,27
 365 57 365 57 404 100 c 0,28,29
 421 120 421 120 429.5 149 c 128,-1,30
 438 178 438 178 439 199 c 128,-1,31
 440 220 440 220 440 259 c 2,32,-1
 440 725 l 1,33,-1
 540 725 l 1,34,-1
 540 278 l 2,7,8
EndSplineSet
Validated: 1
EndChar

StartChar: Udieresis
Encoding: 220 220 123
Width: 600
GlyphClass: 2
Flags: W
LayerCount: 2
Fore
SplineSet
442 825 m 1,0,-1
 347 825 l 1,1,-1
 347 920 l 1,2,-1
 442 920 l 1,3,-1
 442 825 l 1,0,-1
253 825 m 1,4,-1
 158 825 l 1,5,-1
 158 920 l 1,6,-1
 253 920 l 1,7,-1
 253 825 l 1,4,-1
540 278 m 2,8,9
 540 220 540 220 538 189 c 128,-1,10
 536 158 536 158 521.5 115 c 128,-1,11
 507 72 507 72 478 44 c 0,12,13
 415 -18 415 -18 300 -18 c 128,-1,14
 185 -18 185 -18 122 44 c 0,15,16
 93 72 93 72 78.5 115 c 128,-1,17
 64 158 64 158 62 189 c 128,-1,18
 60 220 60 220 60 278 c 2,19,-1
 60 725 l 1,20,-1
 160 725 l 1,21,-1
 160 259 l 2,22,23
 160 220 160 220 161.5 199 c 128,-1,24
 163 178 163 178 171.5 149 c 128,-1,25
 180 120 180 120 197 100 c 0,26,27
 235 57 235 57 300 57 c 128,-1,28
 365 57 365 57 404 100 c 0,29,30
 421 120 421 120 429.5 149 c 128,-1,31
 438 178 438 178 439 199 c 128,-1,32
 440 220 440 220 440 259 c 2,33,-1
 440 725 l 1,34,-1
 540 725 l 1,35,-1
 540 278 l 2,8,9
EndSplineSet
Validated: 1
EndChar

StartChar: Yacute
Encoding: 221 221 124
Width: 600
GlyphClass: 2
Flags: W
LayerCount: 2
Fore
SplineSet
414 956 m 1,0,-1
 300 796 l 1,1,-1
 243 796 l 1,2,-1
 319 956 l 1,3,-1
 414 956 l 1,0,-1
354 0 m 1,4,-1
 254 0 l 1,5,-1
 254 290 l 1,6,-1
 28 725 l 1,7,-1
 128 725 l 1,8,-1
 312 371 l 1,9,-1
 489 725 l 1,10,-1
 572 725 l 1,11,-1
 354 290 l 1,12,-1
 354 0 l 1,4,-1
EndSplineSet
Validated: 1
EndChar

StartChar: Thorn
Encoding: 222 222 125
Width: 600
GlyphClass: 2
Flags: W
LayerCount: 2
Fore
SplineSet
160 0 m 1,0,-1
 60 0 l 1,1,-1
 60 725 l 1,2,-1
 160 725 l 1,3,-1
 160 587 l 1,4,-1
 251 587 l 2,5,6
 314 587 314 587 347 585 c 128,-1,7
 380 583 380 583 427 570.5 c 128,-1,8
 474 558 474 558 505 533 c 0,9,10
 574 477 574 477 574 381 c 0,11,12
 574 277 574 277 501 212 c 0,13,14
 469 184 469 184 423 169.5 c 128,-1,15
 377 155 377 155 344.5 153 c 128,-1,16
 312 151 312 151 252 151 c 2,17,-1
 160 151 l 1,18,-1
 160 0 l 1,0,-1
160 512 m 1,19,-1
 160 226 l 1,20,-1
 317 226 l 2,21,22
 399 226 399 226 436.5 273 c 128,-1,23
 474 320 474 320 474 379 c 0,24,25
 474 436 474 436 436.5 474 c 128,-1,26
 399 512 399 512 317 512 c 2,27,-1
 160 512 l 1,19,-1
EndSplineSet
Validated: 1
EndChar

StartChar: germandbls
Encoding: 223 223 126
Width: 600
GlyphClass: 2
Flags: W
LayerCount: 2
Fore
SplineSet
465 627 m 0,0,1
 465 589 465 589 445 551 c 128,-1,2
 425 513 425 513 400.5 487.5 c 128,-1,3
 376 462 376 462 356 434 c 128,-1,4
 336 406 336 406 336 386 c 0,5,6
 336 348 336 348 400 317 c 2,7,-1
 436 300 l 2,8,9
 485 278 485 278 512.5 245.5 c 128,-1,10
 540 213 540 213 540 158 c 0,11,12
 540 84 540 84 489.5 36 c 128,-1,13
 439 -12 439 -12 354 -12 c 0,14,15
 273 -12 273 -12 223 15 c 1,16,-1
 223 99 l 1,17,18
 298 59 298 59 362 59 c 0,19,20
 403 59 403 59 424 80.5 c 128,-1,21
 445 102 445 102 445 132 c 0,22,23
 445 149 445 149 438.5 162 c 128,-1,24
 432 175 432 175 417.5 186 c 128,-1,25
 403 197 403 197 394 202 c 128,-1,26
 385 207 385 207 366 216 c 2,27,-1
 329 233 l 2,28,29
 288 252 288 252 264.5 290.5 c 128,-1,30
 241 329 241 329 241 373 c 0,31,32
 241 412 241 412 261 448.5 c 128,-1,33
 281 485 281 485 305.5 509.5 c 128,-1,34
 330 534 330 534 350 565 c 128,-1,35
 370 596 370 596 370 625 c 0,36,37
 370 661 370 661 344 686 c 128,-1,38
 318 711 318 711 277 711 c 0,39,40
 229 711 229 711 199 681 c 0,41,42
 185 667 185 667 178.5 646.5 c 128,-1,43
 172 626 172 626 171 611 c 128,-1,44
 170 596 170 596 170 568 c 2,45,-1
 170 0 l 1,46,-1
 75 0 l 1,47,-1
 75 550 l 2,48,49
 75 596 75 596 77 620.5 c 128,-1,50
 79 645 79 645 91 679 c 128,-1,51
 103 713 103 713 128 735 c 0,52,53
 181 782 181 782 271 782 c 0,54,55
 353 782 353 782 409 738 c 128,-1,56
 465 694 465 694 465 627 c 0,0,1
EndSplineSet
Validated: 1
EndChar

StartChar: agrave
Encoding: 224 224 127
Width: 600
GlyphClass: 2
Flags: W
LayerCount: 2
Fore
SplineSet
363 601 m 1,0,-1
 306 601 l 1,1,-1
 192 761 l 1,2,-1
 287 761 l 1,3,-1
 363 601 l 1,0,-1
311 542 m 0,4,5
 346 542 346 542 374.5 538 c 128,-1,6
 403 534 403 534 424 528 c 128,-1,7
 445 522 445 522 461 510.5 c 128,-1,8
 477 499 477 499 487.5 489.5 c 128,-1,9
 498 480 498 480 505.5 463 c 128,-1,10
 513 446 513 446 517 434 c 128,-1,11
 521 422 521 422 522.5 401 c 128,-1,12
 524 380 524 380 524.5 368 c 128,-1,13
 525 356 525 356 525 333 c 2,14,-1
 525 0 l 1,15,-1
 430 0 l 1,16,-1
 430 83 l 1,17,18
 324 -12 324 -12 222 -12 c 0,19,20
 148 -12 148 -12 104 29.5 c 128,-1,21
 60 71 60 71 60 136 c 0,22,23
 60 219 60 219 139 264 c 0,24,25
 191 292 191 292 259.5 300.5 c 128,-1,26
 328 309 328 309 430 309 c 1,27,-1
 430 349 l 2,28,29
 430 380 430 380 426.5 398 c 128,-1,30
 423 416 423 416 411 435 c 128,-1,31
 399 454 399 454 371 462.5 c 128,-1,32
 343 471 343 471 297 471 c 0,33,34
 200 471 200 471 95 433 c 1,35,-1
 95 504 l 1,36,37
 200 542 200 542 311 542 c 0,4,5
430 141 m 1,38,-1
 430 252 l 1,39,-1
 428 252 l 2,40,41
 373 252 373 252 344 251 c 128,-1,42
 315 250 315 250 275 243.5 c 128,-1,43
 235 237 235 237 209 223 c 0,44,45
 155 193 155 193 155 141 c 0,46,47
 155 103 155 103 182.5 81 c 128,-1,48
 210 59 210 59 256 59 c 0,49,50
 339 59 339 59 430 141 c 1,38,-1
EndSplineSet
Validated: 1
EndChar

StartChar: aacute
Encoding: 225 225 128
Width: 600
GlyphClass: 2
Flags: W
LayerCount: 2
Fore
SplineSet
420 761 m 1,0,-1
 306 601 l 1,1,-1
 249 601 l 1,2,-1
 325 761 l 1,3,-1
 420 761 l 1,0,-1
311 542 m 0,4,5
 346 542 346 542 374.5 538 c 128,-1,6
 403 534 403 534 424 528 c 128,-1,7
 445 522 445 522 461 510.5 c 128,-1,8
 477 499 477 499 487.5 489.5 c 128,-1,9
 498 480 498 480 505.5 463 c 128,-1,10
 513 446 513 446 517 434 c 128,-1,11
 521 422 521 422 522.5 401 c 128,-1,12
 524 380 524 380 524.5 368 c 128,-1,13
 525 356 525 356 525 333 c 2,14,-1
 525 0 l 1,15,-1
 430 0 l 1,16,-1
 430 83 l 1,17,18
 324 -12 324 -12 222 -12 c 0,19,20
 148 -12 148 -12 104 29.5 c 128,-1,21
 60 71 60 71 60 136 c 0,22,23
 60 219 60 219 139 264 c 0,24,25
 191 292 191 292 259.5 300.5 c 128,-1,26
 328 309 328 309 430 309 c 1,27,-1
 430 349 l 2,28,29
 430 380 430 380 426.5 398 c 128,-1,30
 423 416 423 416 411 435 c 128,-1,31
 399 454 399 454 371 462.5 c 128,-1,32
 343 471 343 471 297 471 c 0,33,34
 200 471 200 471 95 433 c 1,35,-1
 95 504 l 1,36,37
 200 542 200 542 311 542 c 0,4,5
430 141 m 1,38,-1
 430 252 l 1,39,-1
 428 252 l 2,40,41
 373 252 373 252 344 251 c 128,-1,42
 315 250 315 250 275 243.5 c 128,-1,43
 235 237 235 237 209 223 c 0,44,45
 155 193 155 193 155 141 c 0,46,47
 155 103 155 103 182.5 81 c 128,-1,48
 210 59 210 59 256 59 c 0,49,50
 339 59 339 59 430 141 c 1,38,-1
EndSplineSet
Validated: 1
EndChar

StartChar: acircumflex
Encoding: 226 226 129
Width: 600
GlyphClass: 2
Flags: W
LayerCount: 2
Fore
SplineSet
463 601 m 1,0,-1
 387 601 l 1,1,-1
 306 691 l 1,2,-1
 225 601 l 1,3,-1
 149 601 l 1,4,-1
 259 743 l 1,5,-1
 353 743 l 1,6,-1
 463 601 l 1,0,-1
311 542 m 0,7,8
 346 542 346 542 374.5 538 c 128,-1,9
 403 534 403 534 424 528 c 128,-1,10
 445 522 445 522 461 510.5 c 128,-1,11
 477 499 477 499 487.5 489.5 c 128,-1,12
 498 480 498 480 505.5 463 c 128,-1,13
 513 446 513 446 517 434 c 128,-1,14
 521 422 521 422 522.5 401 c 128,-1,15
 524 380 524 380 524.5 368 c 128,-1,16
 525 356 525 356 525 333 c 2,17,-1
 525 0 l 1,18,-1
 430 0 l 1,19,-1
 430 83 l 1,20,21
 324 -12 324 -12 222 -12 c 0,22,23
 148 -12 148 -12 104 29.5 c 128,-1,24
 60 71 60 71 60 136 c 0,25,26
 60 219 60 219 139 264 c 0,27,28
 191 292 191 292 259.5 300.5 c 128,-1,29
 328 309 328 309 430 309 c 1,30,-1
 430 349 l 2,31,32
 430 380 430 380 426.5 398 c 128,-1,33
 423 416 423 416 411 435 c 128,-1,34
 399 454 399 454 371 462.5 c 128,-1,35
 343 471 343 471 297 471 c 0,36,37
 200 471 200 471 95 433 c 1,38,-1
 95 504 l 1,39,40
 200 542 200 542 311 542 c 0,7,8
430 141 m 1,41,-1
 430 252 l 1,42,-1
 428 252 l 2,43,44
 373 252 373 252 344 251 c 128,-1,45
 315 250 315 250 275 243.5 c 128,-1,46
 235 237 235 237 209 223 c 0,47,48
 155 193 155 193 155 141 c 0,49,50
 155 103 155 103 182.5 81 c 128,-1,51
 210 59 210 59 256 59 c 0,52,53
 339 59 339 59 430 141 c 1,41,-1
EndSplineSet
Validated: 1
EndChar

StartChar: adieresis
Encoding: 228 228 130
Width: 600
GlyphClass: 2
Flags: W
LayerCount: 2
Fore
SplineSet
448 630 m 1,0,-1
 353 630 l 1,1,-1
 353 725 l 1,2,-1
 448 725 l 1,3,-1
 448 630 l 1,0,-1
259 630 m 1,4,-1
 164 630 l 1,5,-1
 164 725 l 1,6,-1
 259 725 l 1,7,-1
 259 630 l 1,4,-1
311 542 m 0,8,9
 346 542 346 542 374.5 538 c 128,-1,10
 403 534 403 534 424 528 c 128,-1,11
 445 522 445 522 461 510.5 c 128,-1,12
 477 499 477 499 487.5 489.5 c 128,-1,13
 498 480 498 480 505.5 463 c 128,-1,14
 513 446 513 446 517 434 c 128,-1,15
 521 422 521 422 522.5 401 c 128,-1,16
 524 380 524 380 524.5 368 c 128,-1,17
 525 356 525 356 525 333 c 2,18,-1
 525 0 l 1,19,-1
 430 0 l 1,20,-1
 430 83 l 1,21,22
 324 -12 324 -12 222 -12 c 0,23,24
 148 -12 148 -12 104 29.5 c 128,-1,25
 60 71 60 71 60 136 c 0,26,27
 60 219 60 219 139 264 c 0,28,29
 191 292 191 292 259.5 300.5 c 128,-1,30
 328 309 328 309 430 309 c 1,31,-1
 430 349 l 2,32,33
 430 380 430 380 426.5 398 c 128,-1,34
 423 416 423 416 411 435 c 128,-1,35
 399 454 399 454 371 462.5 c 128,-1,36
 343 471 343 471 297 471 c 0,37,38
 200 471 200 471 95 433 c 1,39,-1
 95 504 l 1,40,41
 200 542 200 542 311 542 c 0,8,9
430 141 m 1,42,-1
 430 252 l 1,43,-1
 428 252 l 2,44,45
 373 252 373 252 344 251 c 128,-1,46
 315 250 315 250 275 243.5 c 128,-1,47
 235 237 235 237 209 223 c 0,48,49
 155 193 155 193 155 141 c 0,50,51
 155 103 155 103 182.5 81 c 128,-1,52
 210 59 210 59 256 59 c 0,53,54
 339 59 339 59 430 141 c 1,42,-1
EndSplineSet
Validated: 1
EndChar

StartChar: aring
Encoding: 229 229 131
Width: 600
GlyphClass: 2
Flags: W
LayerCount: 2
Fore
SplineSet
363 699 m 0,0,1
 363 723 363 723 346 739.5 c 128,-1,2
 329 756 329 756 306 756 c 128,-1,3
 283 756 283 756 266 739.5 c 128,-1,4
 249 723 249 723 249 699 c 0,5,6
 249 676 249 676 266 659.5 c 128,-1,7
 283 643 283 643 306 643 c 128,-1,8
 329 643 329 643 346 659.5 c 128,-1,9
 363 676 363 676 363 699 c 0,0,1
420 699 m 128,-1,11
 420 655 420 655 386 625 c 128,-1,12
 352 595 352 595 306 595 c 128,-1,13
 260 595 260 595 226 625 c 128,-1,14
 192 655 192 655 192 699 c 128,-1,15
 192 743 192 743 225.5 773 c 128,-1,16
 259 803 259 803 306 803 c 128,-1,17
 353 803 353 803 386.5 773 c 128,-1,10
 420 743 420 743 420 699 c 128,-1,11
311 542 m 0,18,19
 346 542 346 542 374.5 538 c 128,-1,20
 403 534 403 534 424 528 c 128,-1,21
 445 522 445 522 461 510.5 c 128,-1,22
 477 499 477 499 487.5 489.5 c 128,-1,23
 498 480 498 480 505.5 463 c 128,-1,24
 513 446 513 446 517 434 c 128,-1,25
 521 422 521 422 522.5 401 c 128,-1,26
 524 380 524 380 524.5 368 c 128,-1,27
 525 356 525 356 525 333 c 2,28,-1
 525 0 l 1,29,-1
 430 0 l 1,30,-1
 430 83 l 1,31,32
 324 -12 324 -12 222 -12 c 0,33,34
 148 -12 148 -12 104 29.5 c 128,-1,35
 60 71 60 71 60 136 c 0,36,37
 60 219 60 219 139 264 c 0,38,39
 191 292 191 292 259.5 300.5 c 128,-1,40
 328 309 328 309 430 309 c 1,41,-1
 430 349 l 2,42,43
 430 380 430 380 426.5 398 c 128,-1,44
 423 416 423 416 411 435 c 128,-1,45
 399 454 399 454 371 462.5 c 128,-1,46
 343 471 343 471 297 471 c 0,47,48
 200 471 200 471 95 433 c 1,49,-1
 95 504 l 1,50,51
 200 542 200 542 311 542 c 0,18,19
430 141 m 1,52,-1
 430 252 l 1,53,-1
 428 252 l 2,54,55
 373 252 373 252 344 251 c 128,-1,56
 315 250 315 250 275 243.5 c 128,-1,57
 235 237 235 237 209 223 c 0,58,59
 155 193 155 193 155 141 c 0,60,61
 155 103 155 103 182.5 81 c 128,-1,62
 210 59 210 59 256 59 c 0,63,64
 339 59 339 59 430 141 c 1,52,-1
EndSplineSet
Validated: 1
EndChar

StartChar: egrave
Encoding: 232 232 132
Width: 600
GlyphClass: 2
Flags: W
LayerCount: 2
Fore
SplineSet
376 601 m 1,0,-1
 319 601 l 1,1,-1
 205 761 l 1,2,-1
 300 761 l 1,3,-1
 376 601 l 1,0,-1
166 325 m 1,4,-1
 443 325 l 1,5,6
 436 396 436 396 400.5 433.5 c 128,-1,7
 365 471 365 471 312 471 c 256,8,9
 259 471 259 471 219 434.5 c 128,-1,10
 179 398 179 398 166 325 c 1,4,-1
346 -12 m 0,11,12
 290 -12 290 -12 244 -0.5 c 128,-1,13
 198 11 198 11 167 32.5 c 128,-1,14
 136 54 136 54 113.5 80.5 c 128,-1,15
 91 107 91 107 78.5 139.5 c 128,-1,16
 66 172 66 172 60.5 203.5 c 128,-1,17
 55 235 55 235 55 269 c 0,18,19
 55 343 55 343 78 398 c 128,-1,20
 101 453 101 453 139 483 c 128,-1,21
 177 513 177 513 219 527.5 c 128,-1,22
 261 542 261 542 307 542 c 256,23,24
 353 542 353 542 393 528 c 128,-1,25
 433 514 433 514 467 485 c 128,-1,26
 501 456 501 456 520.5 405 c 128,-1,27
 540 354 540 354 540 288 c 0,28,29
 540 271 540 271 539 254 c 1,30,-1
 160 254 l 1,31,32
 160 197 160 197 174 157.5 c 128,-1,33
 188 118 188 118 215 97 c 128,-1,34
 242 76 242 76 274 67.5 c 128,-1,35
 306 59 306 59 349 59 c 0,36,37
 433 59 433 59 528 85 c 1,38,-1
 528 14 l 1,39,40
 433 -12 433 -12 346 -12 c 0,11,12
EndSplineSet
Validated: 1
EndChar

StartChar: eacute
Encoding: 233 233 133
Width: 600
GlyphClass: 2
Flags: W
LayerCount: 2
Fore
SplineSet
433 761 m 1,0,-1
 319 601 l 1,1,-1
 262 601 l 1,2,-1
 338 761 l 1,3,-1
 433 761 l 1,0,-1
166 325 m 1,4,-1
 443 325 l 1,5,6
 436 396 436 396 400.5 433.5 c 128,-1,7
 365 471 365 471 312 471 c 256,8,9
 259 471 259 471 219 434.5 c 128,-1,10
 179 398 179 398 166 325 c 1,4,-1
346 -12 m 0,11,12
 290 -12 290 -12 244 -0.5 c 128,-1,13
 198 11 198 11 167 32.5 c 128,-1,14
 136 54 136 54 113.5 80.5 c 128,-1,15
 91 107 91 107 78.5 139.5 c 128,-1,16
 66 172 66 172 60.5 203.5 c 128,-1,17
 55 235 55 235 55 269 c 0,18,19
 55 343 55 343 78 398 c 128,-1,20
 101 453 101 453 139 483 c 128,-1,21
 177 513 177 513 219 527.5 c 128,-1,22
 261 542 261 542 307 542 c 256,23,24
 353 542 353 542 393 528 c 128,-1,25
 433 514 433 514 467 485 c 128,-1,26
 501 456 501 456 520.5 405 c 128,-1,27
 540 354 540 354 540 288 c 0,28,29
 540 271 540 271 539 254 c 1,30,-1
 160 254 l 1,31,32
 160 197 160 197 174 157.5 c 128,-1,33
 188 118 188 118 215 97 c 128,-1,34
 242 76 242 76 274 67.5 c 128,-1,35
 306 59 306 59 349 59 c 0,36,37
 433 59 433 59 528 85 c 1,38,-1
 528 14 l 1,39,40
 433 -12 433 -12 346 -12 c 0,11,12
EndSplineSet
Validated: 1
EndChar

StartChar: ecircumflex
Encoding: 234 234 134
Width: 600
GlyphClass: 2
Flags: W
LayerCount: 2
Fore
SplineSet
476 601 m 1,0,-1
 400 601 l 1,1,-1
 319 691 l 1,2,-1
 238 601 l 1,3,-1
 162 601 l 1,4,-1
 272 743 l 1,5,-1
 366 743 l 1,6,-1
 476 601 l 1,0,-1
166 325 m 1,7,-1
 443 325 l 1,8,9
 436 396 436 396 400.5 433.5 c 128,-1,10
 365 471 365 471 312 471 c 256,11,12
 259 471 259 471 219 434.5 c 128,-1,13
 179 398 179 398 166 325 c 1,7,-1
346 -12 m 0,14,15
 290 -12 290 -12 244 -0.5 c 128,-1,16
 198 11 198 11 167 32.5 c 128,-1,17
 136 54 136 54 113.5 80.5 c 128,-1,18
 91 107 91 107 78.5 139.5 c 128,-1,19
 66 172 66 172 60.5 203.5 c 128,-1,20
 55 235 55 235 55 269 c 0,21,22
 55 343 55 343 78 398 c 128,-1,23
 101 453 101 453 139 483 c 128,-1,24
 177 513 177 513 219 527.5 c 128,-1,25
 261 542 261 542 307 542 c 256,26,27
 353 542 353 542 393 528 c 128,-1,28
 433 514 433 514 467 485 c 128,-1,29
 501 456 501 456 520.5 405 c 128,-1,30
 540 354 540 354 540 288 c 0,31,32
 540 271 540 271 539 254 c 1,33,-1
 160 254 l 1,34,35
 160 197 160 197 174 157.5 c 128,-1,36
 188 118 188 118 215 97 c 128,-1,37
 242 76 242 76 274 67.5 c 128,-1,38
 306 59 306 59 349 59 c 0,39,40
 433 59 433 59 528 85 c 1,41,-1
 528 14 l 1,42,43
 433 -12 433 -12 346 -12 c 0,14,15
EndSplineSet
Validated: 1
EndChar

StartChar: edieresis
Encoding: 235 235 135
Width: 600
GlyphClass: 2
Flags: W
LayerCount: 2
Fore
SplineSet
461 630 m 1,0,-1
 366 630 l 1,1,-1
 366 725 l 1,2,-1
 461 725 l 1,3,-1
 461 630 l 1,0,-1
272 630 m 1,4,-1
 177 630 l 1,5,-1
 177 725 l 1,6,-1
 272 725 l 1,7,-1
 272 630 l 1,4,-1
166 325 m 1,8,-1
 443 325 l 1,9,10
 436 396 436 396 400.5 433.5 c 128,-1,11
 365 471 365 471 312 471 c 256,12,13
 259 471 259 471 219 434.5 c 128,-1,14
 179 398 179 398 166 325 c 1,8,-1
346 -12 m 0,15,16
 290 -12 290 -12 244 -0.5 c 128,-1,17
 198 11 198 11 167 32.5 c 128,-1,18
 136 54 136 54 113.5 80.5 c 128,-1,19
 91 107 91 107 78.5 139.5 c 128,-1,20
 66 172 66 172 60.5 203.5 c 128,-1,21
 55 235 55 235 55 269 c 0,22,23
 55 343 55 343 78 398 c 128,-1,24
 101 453 101 453 139 483 c 128,-1,25
 177 513 177 513 219 527.5 c 128,-1,26
 261 542 261 542 307 542 c 256,27,28
 353 542 353 542 393 528 c 128,-1,29
 433 514 433 514 467 485 c 128,-1,30
 501 456 501 456 520.5 405 c 128,-1,31
 540 354 540 354 540 288 c 0,32,33
 540 271 540 271 539 254 c 1,34,-1
 160 254 l 1,35,36
 160 197 160 197 174 157.5 c 128,-1,37
 188 118 188 118 215 97 c 128,-1,38
 242 76 242 76 274 67.5 c 128,-1,39
 306 59 306 59 349 59 c 0,40,41
 433 59 433 59 528 85 c 1,42,-1
 528 14 l 1,43,44
 433 -12 433 -12 346 -12 c 0,15,16
EndSplineSet
Validated: 1
EndChar

StartChar: igrave
Encoding: 236 236 136
Width: 600
GlyphClass: 2
Flags: W
LayerCount: 2
Fore
SplineSet
357 601 m 1,0,-1
 300 601 l 1,1,-1
 186 761 l 1,2,-1
 281 761 l 1,3,-1
 357 601 l 1,0,-1
353 71 m 1,4,-1
 525 71 l 1,5,-1
 525 0 l 1,6,-1
 75 0 l 1,7,-1
 75 71 l 1,8,-1
 258 71 l 1,9,-1
 258 459 l 1,10,-1
 103 459 l 1,11,-1
 103 530 l 1,12,-1
 353 530 l 1,13,-1
 353 71 l 1,4,-1
EndSplineSet
Validated: 1
EndChar

StartChar: iacute
Encoding: 237 237 137
Width: 600
GlyphClass: 2
Flags: W
LayerCount: 2
Fore
SplineSet
414 761 m 1,0,-1
 300 601 l 1,1,-1
 243 601 l 1,2,-1
 319 761 l 1,3,-1
 414 761 l 1,0,-1
353 71 m 1,4,-1
 525 71 l 1,5,-1
 525 0 l 1,6,-1
 75 0 l 1,7,-1
 75 71 l 1,8,-1
 258 71 l 1,9,-1
 258 459 l 1,10,-1
 103 459 l 1,11,-1
 103 530 l 1,12,-1
 353 530 l 1,13,-1
 353 71 l 1,4,-1
EndSplineSet
Validated: 1
EndChar

StartChar: icircumflex
Encoding: 238 238 138
Width: 600
GlyphClass: 2
Flags: W
LayerCount: 2
Fore
SplineSet
457 601 m 1,0,-1
 381 601 l 1,1,-1
 300 691 l 1,2,-1
 219 601 l 1,3,-1
 143 601 l 1,4,-1
 253 743 l 1,5,-1
 347 743 l 1,6,-1
 457 601 l 1,0,-1
353 71 m 1,7,-1
 525 71 l 1,8,-1
 525 0 l 1,9,-1
 75 0 l 1,10,-1
 75 71 l 1,11,-1
 258 71 l 1,12,-1
 258 459 l 1,13,-1
 103 459 l 1,14,-1
 103 530 l 1,15,-1
 353 530 l 1,16,-1
 353 71 l 1,7,-1
EndSplineSet
Validated: 1
EndChar

StartChar: idieresis
Encoding: 239 239 139
Width: 600
GlyphClass: 2
Flags: W
LayerCount: 2
Fore
SplineSet
442 630 m 1,0,-1
 347 630 l 1,1,-1
 347 725 l 1,2,-1
 442 725 l 1,3,-1
 442 630 l 1,0,-1
253 630 m 1,4,-1
 158 630 l 1,5,-1
 158 725 l 1,6,-1
 253 725 l 1,7,-1
 253 630 l 1,4,-1
353 71 m 1,8,-1
 525 71 l 1,9,-1
 525 0 l 1,10,-1
 75 0 l 1,11,-1
 75 71 l 1,12,-1
 258 71 l 1,13,-1
 258 459 l 1,14,-1
 103 459 l 1,15,-1
 103 530 l 1,16,-1
 353 530 l 1,17,-1
 353 71 l 1,8,-1
EndSplineSet
Validated: 1
EndChar

StartChar: eth
Encoding: 240 240 140
Width: 600
GlyphClass: 2
Flags: W
LayerCount: 2
Fore
SplineSet
540 263 m 0,0,1
 540 201 540 201 526 152.5 c 128,-1,2
 512 104 512 104 488.5 74 c 128,-1,3
 465 44 465 44 433.5 24 c 128,-1,4
 402 4 402 4 369 -4 c 128,-1,5
 336 -12 336 -12 300 -12 c 128,-1,6
 264 -12 264 -12 231 -4 c 128,-1,7
 198 4 198 4 166.5 23.5 c 128,-1,8
 135 43 135 43 111.5 73.5 c 128,-1,9
 88 104 88 104 74 152.5 c 128,-1,10
 60 201 60 201 60 262 c 0,11,12
 60 314 60 314 70 356.5 c 128,-1,13
 80 399 80 399 97 428.5 c 128,-1,14
 114 458 114 458 136.5 479 c 128,-1,15
 159 500 159 500 186 512 c 128,-1,16
 213 524 213 524 239 529.5 c 128,-1,17
 265 535 265 535 293 535 c 0,18,19
 341 535 341 535 375 518 c 1,20,21
 340 576 340 576 292 622 c 1,22,-1
 152 571 l 1,23,-1
 137 613 l 1,24,-1
 253 655 l 1,25,26
 197 697 197 697 132 722 c 1,27,-1
 199 761 l 1,28,29
 272 733 272 733 334 685 c 1,30,-1
 475 736 l 1,31,-1
 490 694 l 1,32,-1
 373 651 l 1,33,34
 452 577 452 577 496 476 c 128,-1,35
 540 375 540 375 540 263 c 0,0,1
445 265 m 0,36,37
 445 478 445 478 307 478 c 0,38,39
 238 478 238 478 196.5 426 c 128,-1,40
 155 374 155 374 155 268 c 0,41,42
 155 161 155 161 195.5 110 c 128,-1,43
 236 59 236 59 300 59 c 128,-1,44
 364 59 364 59 404.5 109.5 c 128,-1,45
 445 160 445 160 445 265 c 0,36,37
EndSplineSet
Validated: 1
EndChar

StartChar: ograve
Encoding: 242 242 141
Width: 600
GlyphClass: 2
Flags: W
LayerCount: 2
Fore
SplineSet
357 601 m 1,0,-1
 300 601 l 1,1,-1
 186 761 l 1,2,-1
 281 761 l 1,3,-1
 357 601 l 1,0,-1
440 265 m 128,-1,5
 440 384 440 384 394 433 c 0,6,7
 356 471 356 471 300 471 c 128,-1,8
 244 471 244 471 206 433 c 0,9,10
 160 384 160 384 160 265 c 128,-1,11
 160 146 160 146 206 97 c 0,12,13
 244 59 244 59 300 59 c 128,-1,14
 356 59 356 59 394 97 c 0,15,4
 440 146 440 146 440 265 c 128,-1,5
300 542 m 0,16,17
 410 542 410 542 477.5 466.5 c 128,-1,18
 545 391 545 391 545 265 c 128,-1,19
 545 139 545 139 478 63.5 c 128,-1,20
 411 -12 411 -12 300 -12 c 0,21,22
 190 -12 190 -12 122.5 63.5 c 128,-1,23
 55 139 55 139 55 265 c 128,-1,24
 55 391 55 391 122 466.5 c 128,-1,25
 189 542 189 542 300 542 c 0,16,17
EndSplineSet
Validated: 1
EndChar

StartChar: oacute
Encoding: 243 243 142
Width: 600
GlyphClass: 2
Flags: W
LayerCount: 2
Fore
SplineSet
414 761 m 1,0,-1
 300 601 l 1,1,-1
 243 601 l 1,2,-1
 319 761 l 1,3,-1
 414 761 l 1,0,-1
440 265 m 128,-1,5
 440 384 440 384 394 433 c 0,6,7
 356 471 356 471 300 471 c 128,-1,8
 244 471 244 471 206 433 c 0,9,10
 160 384 160 384 160 265 c 128,-1,11
 160 146 160 146 206 97 c 0,12,13
 244 59 244 59 300 59 c 128,-1,14
 356 59 356 59 394 97 c 0,15,4
 440 146 440 146 440 265 c 128,-1,5
300 542 m 0,16,17
 410 542 410 542 477.5 466.5 c 128,-1,18
 545 391 545 391 545 265 c 128,-1,19
 545 139 545 139 478 63.5 c 128,-1,20
 411 -12 411 -12 300 -12 c 0,21,22
 190 -12 190 -12 122.5 63.5 c 128,-1,23
 55 139 55 139 55 265 c 128,-1,24
 55 391 55 391 122 466.5 c 128,-1,25
 189 542 189 542 300 542 c 0,16,17
EndSplineSet
Validated: 1
EndChar

StartChar: ocircumflex
Encoding: 244 244 143
Width: 600
GlyphClass: 2
Flags: W
LayerCount: 2
Fore
SplineSet
457 601 m 1,0,-1
 381 601 l 1,1,-1
 300 691 l 1,2,-1
 219 601 l 1,3,-1
 143 601 l 1,4,-1
 253 743 l 1,5,-1
 347 743 l 1,6,-1
 457 601 l 1,0,-1
440 265 m 128,-1,8
 440 384 440 384 394 433 c 0,9,10
 356 471 356 471 300 471 c 128,-1,11
 244 471 244 471 206 433 c 0,12,13
 160 384 160 384 160 265 c 128,-1,14
 160 146 160 146 206 97 c 0,15,16
 244 59 244 59 300 59 c 128,-1,17
 356 59 356 59 394 97 c 0,18,7
 440 146 440 146 440 265 c 128,-1,8
300 542 m 0,19,20
 410 542 410 542 477.5 466.5 c 128,-1,21
 545 391 545 391 545 265 c 128,-1,22
 545 139 545 139 478 63.5 c 128,-1,23
 411 -12 411 -12 300 -12 c 0,24,25
 190 -12 190 -12 122.5 63.5 c 128,-1,26
 55 139 55 139 55 265 c 128,-1,27
 55 391 55 391 122 466.5 c 128,-1,28
 189 542 189 542 300 542 c 0,19,20
EndSplineSet
Validated: 1
EndChar

StartChar: odieresis
Encoding: 246 246 144
Width: 600
GlyphClass: 2
Flags: W
LayerCount: 2
Fore
SplineSet
442 630 m 1,0,-1
 347 630 l 1,1,-1
 347 725 l 1,2,-1
 442 725 l 1,3,-1
 442 630 l 1,0,-1
253 630 m 1,4,-1
 158 630 l 1,5,-1
 158 725 l 1,6,-1
 253 725 l 1,7,-1
 253 630 l 1,4,-1
440 265 m 128,-1,9
 440 384 440 384 394 433 c 0,10,11
 356 471 356 471 300 471 c 128,-1,12
 244 471 244 471 206 433 c 0,13,14
 160 384 160 384 160 265 c 128,-1,15
 160 146 160 146 206 97 c 0,16,17
 244 59 244 59 300 59 c 128,-1,18
 356 59 356 59 394 97 c 0,19,8
 440 146 440 146 440 265 c 128,-1,9
300 542 m 0,20,21
 410 542 410 542 477.5 466.5 c 128,-1,22
 545 391 545 391 545 265 c 128,-1,23
 545 139 545 139 478 63.5 c 128,-1,24
 411 -12 411 -12 300 -12 c 0,25,26
 190 -12 190 -12 122.5 63.5 c 128,-1,27
 55 139 55 139 55 265 c 128,-1,28
 55 391 55 391 122 466.5 c 128,-1,29
 189 542 189 542 300 542 c 0,20,21
EndSplineSet
Validated: 1
EndChar

StartChar: ugrave
Encoding: 249 249 145
Width: 600
GlyphClass: 2
Flags: W
LayerCount: 2
Fore
SplineSet
357 601 m 1,0,-1
 300 601 l 1,1,-1
 186 761 l 1,2,-1
 281 761 l 1,3,-1
 357 601 l 1,0,-1
170 185 m 2,4,5
 170 162 170 162 170.5 149 c 128,-1,6
 171 136 171 136 175.5 116 c 128,-1,7
 180 96 180 96 188 85.5 c 128,-1,8
 196 75 196 75 212.5 67 c 128,-1,9
 229 59 229 59 253 59 c 0,10,11
 305 59 305 59 350.5 91 c 128,-1,12
 396 123 396 123 430 176 c 1,13,-1
 430 530 l 1,14,-1
 525 530 l 1,15,-1
 525 0 l 1,16,-1
 430 0 l 1,17,-1
 430 98 l 1,18,19
 335 -12 335 -12 218 -12 c 0,20,21
 188 -12 188 -12 164.5 -3.5 c 128,-1,22
 141 5 141 5 126 15.5 c 128,-1,23
 111 26 111 26 100.5 47.5 c 128,-1,24
 90 69 90 69 85 83 c 128,-1,25
 80 97 80 97 77.5 125 c 128,-1,26
 75 153 75 153 75 164.5 c 128,-1,27
 75 176 75 176 75 203 c 2,28,-1
 75 530 l 1,29,-1
 170 530 l 1,30,-1
 170 185 l 2,4,5
EndSplineSet
Validated: 1
EndChar

StartChar: uacute
Encoding: 250 250 146
Width: 600
GlyphClass: 2
Flags: W
LayerCount: 2
Fore
SplineSet
414 761 m 1,0,-1
 300 601 l 1,1,-1
 243 601 l 1,2,-1
 319 761 l 1,3,-1
 414 761 l 1,0,-1
170 185 m 2,4,5
 170 162 170 162 170.5 149 c 128,-1,6
 171 136 171 136 175.5 116 c 128,-1,7
 180 96 180 96 188 85.5 c 128,-1,8
 196 75 196 75 212.5 67 c 128,-1,9
 229 59 229 59 253 59 c 0,10,11
 305 59 305 59 350.5 91 c 128,-1,12
 396 123 396 123 430 176 c 1,13,-1
 430 530 l 1,14,-1
 525 530 l 1,15,-1
 525 0 l 1,16,-1
 430 0 l 1,17,-1
 430 98 l 1,18,19
 335 -12 335 -12 218 -12 c 0,20,21
 188 -12 188 -12 164.5 -3.5 c 128,-1,22
 141 5 141 5 126 15.5 c 128,-1,23
 111 26 111 26 100.5 47.5 c 128,-1,24
 90 69 90 69 85 83 c 128,-1,25
 80 97 80 97 77.5 125 c 128,-1,26
 75 153 75 153 75 164.5 c 128,-1,27
 75 176 75 176 75 203 c 2,28,-1
 75 530 l 1,29,-1
 170 530 l 1,30,-1
 170 185 l 2,4,5
EndSplineSet
Validated: 1
EndChar

StartChar: ucircumflex
Encoding: 251 251 147
Width: 600
GlyphClass: 2
Flags: W
LayerCount: 2
Fore
SplineSet
457 601 m 1,0,-1
 381 601 l 1,1,-1
 300 691 l 1,2,-1
 219 601 l 1,3,-1
 143 601 l 1,4,-1
 253 743 l 1,5,-1
 347 743 l 1,6,-1
 457 601 l 1,0,-1
170 185 m 2,7,8
 170 162 170 162 170.5 149 c 128,-1,9
 171 136 171 136 175.5 116 c 128,-1,10
 180 96 180 96 188 85.5 c 128,-1,11
 196 75 196 75 212.5 67 c 128,-1,12
 229 59 229 59 253 59 c 0,13,14
 305 59 305 59 350.5 91 c 128,-1,15
 396 123 396 123 430 176 c 1,16,-1
 430 530 l 1,17,-1
 525 530 l 1,18,-1
 525 0 l 1,19,-1
 430 0 l 1,20,-1
 430 98 l 1,21,22
 335 -12 335 -12 218 -12 c 0,23,24
 188 -12 188 -12 164.5 -3.5 c 128,-1,25
 141 5 141 5 126 15.5 c 128,-1,26
 111 26 111 26 100.5 47.5 c 128,-1,27
 90 69 90 69 85 83 c 128,-1,28
 80 97 80 97 77.5 125 c 128,-1,29
 75 153 75 153 75 164.5 c 128,-1,30
 75 176 75 176 75 203 c 2,31,-1
 75 530 l 1,32,-1
 170 530 l 1,33,-1
 170 185 l 2,7,8
EndSplineSet
Validated: 1
EndChar

StartChar: udieresis
Encoding: 252 252 148
Width: 600
GlyphClass: 2
Flags: W
LayerCount: 2
Fore
SplineSet
442 630 m 1,0,-1
 347 630 l 1,1,-1
 347 725 l 1,2,-1
 442 725 l 1,3,-1
 442 630 l 1,0,-1
253 630 m 1,4,-1
 158 630 l 1,5,-1
 158 725 l 1,6,-1
 253 725 l 1,7,-1
 253 630 l 1,4,-1
170 185 m 2,8,9
 170 162 170 162 170.5 149 c 128,-1,10
 171 136 171 136 175.5 116 c 128,-1,11
 180 96 180 96 188 85.5 c 128,-1,12
 196 75 196 75 212.5 67 c 128,-1,13
 229 59 229 59 253 59 c 0,14,15
 305 59 305 59 350.5 91 c 128,-1,16
 396 123 396 123 430 176 c 1,17,-1
 430 530 l 1,18,-1
 525 530 l 1,19,-1
 525 0 l 1,20,-1
 430 0 l 1,21,-1
 430 98 l 1,22,23
 335 -12 335 -12 218 -12 c 0,24,25
 188 -12 188 -12 164.5 -3.5 c 128,-1,26
 141 5 141 5 126 15.5 c 128,-1,27
 111 26 111 26 100.5 47.5 c 128,-1,28
 90 69 90 69 85 83 c 128,-1,29
 80 97 80 97 77.5 125 c 128,-1,30
 75 153 75 153 75 164.5 c 128,-1,31
 75 176 75 176 75 203 c 2,32,-1
 75 530 l 1,33,-1
 170 530 l 1,34,-1
 170 185 l 2,8,9
EndSplineSet
Validated: 1
EndChar

StartChar: yacute
Encoding: 253 253 149
Width: 600
GlyphClass: 2
Flags: W
LayerCount: 2
Fore
SplineSet
414 761 m 1,0,-1
 300 601 l 1,1,-1
 243 601 l 1,2,-1
 319 761 l 1,3,-1
 414 761 l 1,0,-1
549 530 m 1,4,-1
 280 -193 l 1,5,-1
 201 -193 l 1,6,-1
 264 -25 l 1,7,-1
 51 530 l 1,8,-1
 146 530 l 1,9,-1
 312 106 l 1,10,-1
 470 530 l 1,11,-1
 549 530 l 1,4,-1
EndSplineSet
Validated: 1
EndChar

StartChar: thorn
Encoding: 254 254 150
Width: 600
GlyphClass: 2
Flags: W
LayerCount: 2
Fore
SplineSet
545 303 m 0,0,1
 545 265 545 265 539 230 c 128,-1,2
 533 195 533 195 520.5 158.5 c 128,-1,3
 508 122 508 122 484 92 c 128,-1,4
 460 62 460 62 428 38.5 c 128,-1,5
 396 15 396 15 348 1.5 c 128,-1,6
 300 -12 300 -12 241 -12 c 0,7,8
 204 -12 204 -12 170 -7 c 1,9,-1
 170 -193 l 1,10,-1
 75 -193 l 1,11,-1
 75 770 l 1,12,-1
 170 770 l 1,13,-1
 170 443 l 1,14,15
 246 542 246 542 359 542 c 0,16,17
 394 542 394 542 424 531.5 c 128,-1,18
 454 521 454 521 483 496 c 128,-1,19
 512 471 512 471 528.5 421.5 c 128,-1,20
 545 372 545 372 545 303 c 0,0,1
245 59 m 0,21,22
 271 59 271 59 294 63 c 128,-1,23
 317 67 317 67 345.5 81.5 c 128,-1,24
 374 96 374 96 393.5 120 c 128,-1,25
 413 144 413 144 426.5 187.5 c 128,-1,26
 440 231 440 231 440 289 c 0,27,28
 440 471 440 471 322 471 c 0,29,30
 290 471 290 471 260.5 458 c 128,-1,31
 231 445 231 445 208 422 c 128,-1,32
 185 399 185 399 170 369 c 1,33,-1
 170 68 l 1,34,35
 209 59 209 59 245 59 c 0,21,22
EndSplineSet
Validated: 1
EndChar

StartChar: ydieresis
Encoding: 255 255 151
Width: 600
GlyphClass: 2
Flags: W
LayerCount: 2
Fore
SplineSet
442 630 m 1,0,-1
 347 630 l 1,1,-1
 347 725 l 1,2,-1
 442 725 l 1,3,-1
 442 630 l 1,0,-1
253 630 m 1,4,-1
 158 630 l 1,5,-1
 158 725 l 1,6,-1
 253 725 l 1,7,-1
 253 630 l 1,4,-1
549 530 m 1,8,-1
 280 -193 l 1,9,-1
 201 -193 l 1,10,-1
 264 -25 l 1,11,-1
 51 530 l 1,12,-1
 146 530 l 1,13,-1
 312 106 l 1,14,-1
 470 530 l 1,15,-1
 549 530 l 1,8,-1
EndSplineSet
Validated: 1
EndChar

StartChar: Amacron
Encoding: 256 256 152
Width: 600
GlyphClass: 2
Flags: W
LayerCount: 2
Fore
SplineSet
429 825 m 1,0,-1
 145 825 l 1,1,-1
 145 896 l 1,2,-1
 429 896 l 1,3,-1
 429 825 l 1,0,-1
590 0 m 1,4,-1
 490 0 l 1,5,-1
 422 202 l 1,6,-1
 159 202 l 1,7,-1
 93 0 l 1,8,-1
 10 0 l 1,9,-1
 246 725 l 1,10,-1
 346 725 l 1,11,-1
 590 0 l 1,4,-1
397 277 m 1,12,-1
 288 600 l 1,13,-1
 183 277 l 1,14,-1
 397 277 l 1,12,-1
EndSplineSet
Validated: 1
EndChar

StartChar: amacron
Encoding: 257 257 153
Width: 600
GlyphClass: 2
Flags: W
LayerCount: 2
Fore
SplineSet
448 630 m 1,0,-1
 164 630 l 1,1,-1
 164 701 l 1,2,-1
 448 701 l 1,3,-1
 448 630 l 1,0,-1
311 542 m 0,4,5
 346 542 346 542 374.5 538 c 128,-1,6
 403 534 403 534 424 528 c 128,-1,7
 445 522 445 522 461 510.5 c 128,-1,8
 477 499 477 499 487.5 489.5 c 128,-1,9
 498 480 498 480 505.5 463 c 128,-1,10
 513 446 513 446 517 434 c 128,-1,11
 521 422 521 422 522.5 401 c 128,-1,12
 524 380 524 380 524.5 368 c 128,-1,13
 525 356 525 356 525 333 c 2,14,-1
 525 0 l 1,15,-1
 430 0 l 1,16,-1
 430 83 l 1,17,18
 324 -12 324 -12 222 -12 c 0,19,20
 148 -12 148 -12 104 29.5 c 128,-1,21
 60 71 60 71 60 136 c 0,22,23
 60 219 60 219 139 264 c 0,24,25
 191 292 191 292 259.5 300.5 c 128,-1,26
 328 309 328 309 430 309 c 1,27,-1
 430 349 l 2,28,29
 430 380 430 380 426.5 398 c 128,-1,30
 423 416 423 416 411 435 c 128,-1,31
 399 454 399 454 371 462.5 c 128,-1,32
 343 471 343 471 297 471 c 0,33,34
 200 471 200 471 95 433 c 1,35,-1
 95 504 l 1,36,37
 200 542 200 542 311 542 c 0,4,5
430 141 m 1,38,-1
 430 252 l 1,39,-1
 428 252 l 2,40,41
 373 252 373 252 344 251 c 128,-1,42
 315 250 315 250 275 243.5 c 128,-1,43
 235 237 235 237 209 223 c 0,44,45
 155 193 155 193 155 141 c 0,46,47
 155 103 155 103 182.5 81 c 128,-1,48
 210 59 210 59 256 59 c 0,49,50
 339 59 339 59 430 141 c 1,38,-1
EndSplineSet
Validated: 1
EndChar

StartChar: Abreve
Encoding: 258 258 154
Width: 600
GlyphClass: 2
Flags: W
LayerCount: 2
Fore
SplineSet
407 903 m 1,0,1
 407 860 407 860 371.5 831.5 c 128,-1,2
 336 803 336 803 287 803 c 128,-1,3
 238 803 238 803 202.5 831.5 c 128,-1,4
 167 860 167 860 167 903 c 1,5,-1
 243 903 l 1,6,7
 243 885 243 885 256 872.5 c 128,-1,8
 269 860 269 860 287 860 c 128,-1,9
 305 860 305 860 318 872.5 c 128,-1,10
 331 885 331 885 331 903 c 1,11,-1
 407 903 l 1,0,1
590 0 m 1,12,-1
 490 0 l 1,13,-1
 422 202 l 1,14,-1
 159 202 l 1,15,-1
 93 0 l 1,16,-1
 10 0 l 1,17,-1
 246 725 l 1,18,-1
 346 725 l 1,19,-1
 590 0 l 1,12,-1
397 277 m 1,20,-1
 288 600 l 1,21,-1
 183 277 l 1,22,-1
 397 277 l 1,20,-1
EndSplineSet
Validated: 1
EndChar

StartChar: abreve
Encoding: 259 259 155
Width: 600
GlyphClass: 2
Flags: W
LayerCount: 2
Fore
SplineSet
426 708 m 1,0,1
 426 665 426 665 390.5 636.5 c 128,-1,2
 355 608 355 608 306 608 c 128,-1,3
 257 608 257 608 221.5 636.5 c 128,-1,4
 186 665 186 665 186 708 c 1,5,-1
 262 708 l 1,6,7
 262 690 262 690 275 677.5 c 128,-1,8
 288 665 288 665 306 665 c 128,-1,9
 324 665 324 665 337 677.5 c 128,-1,10
 350 690 350 690 350 708 c 1,11,-1
 426 708 l 1,0,1
311 542 m 0,12,13
 346 542 346 542 374.5 538 c 128,-1,14
 403 534 403 534 424 528 c 128,-1,15
 445 522 445 522 461 510.5 c 128,-1,16
 477 499 477 499 487.5 489.5 c 128,-1,17
 498 480 498 480 505.5 463 c 128,-1,18
 513 446 513 446 517 434 c 128,-1,19
 521 422 521 422 522.5 401 c 128,-1,20
 524 380 524 380 524.5 368 c 128,-1,21
 525 356 525 356 525 333 c 2,22,-1
 525 0 l 1,23,-1
 430 0 l 1,24,-1
 430 83 l 1,25,26
 324 -12 324 -12 222 -12 c 0,27,28
 148 -12 148 -12 104 29.5 c 128,-1,29
 60 71 60 71 60 136 c 0,30,31
 60 219 60 219 139 264 c 0,32,33
 191 292 191 292 259.5 300.5 c 128,-1,34
 328 309 328 309 430 309 c 1,35,-1
 430 349 l 2,36,37
 430 380 430 380 426.5 398 c 128,-1,38
 423 416 423 416 411 435 c 128,-1,39
 399 454 399 454 371 462.5 c 128,-1,40
 343 471 343 471 297 471 c 0,41,42
 200 471 200 471 95 433 c 1,43,-1
 95 504 l 1,44,45
 200 542 200 542 311 542 c 0,12,13
430 141 m 1,46,-1
 430 252 l 1,47,-1
 428 252 l 2,48,49
 373 252 373 252 344 251 c 128,-1,50
 315 250 315 250 275 243.5 c 128,-1,51
 235 237 235 237 209 223 c 0,52,53
 155 193 155 193 155 141 c 0,54,55
 155 103 155 103 182.5 81 c 128,-1,56
 210 59 210 59 256 59 c 0,57,58
 339 59 339 59 430 141 c 1,46,-1
EndSplineSet
Validated: 1
EndChar

StartChar: Cacute
Encoding: 262 262 156
Width: 600
GlyphClass: 2
Flags: W
LayerCount: 2
Fore
SplineSet
463 956 m 1,0,-1
 349 796 l 1,1,-1
 292 796 l 1,2,-1
 368 956 l 1,3,-1
 463 956 l 1,0,-1
30 362 m 0,4,5
 30 538 30 538 116.5 640.5 c 128,-1,6
 203 743 203 743 356 743 c 0,7,8
 455 743 455 743 565 700 c 1,9,-1
 565 615 l 1,10,11
 432 668 432 668 356 668 c 0,12,13
 264 668 264 668 207 607 c 0,14,15
 140 534 140 534 140 362 c 0,16,17
 140 191 140 191 207 118 c 0,18,19
 264 57 264 57 350 57 c 0,20,21
 386 57 386 57 426.5 69.5 c 128,-1,22
 467 82 467 82 495 96 c 128,-1,23
 523 110 523 110 565 135 c 1,24,-1
 565 41 l 1,25,26
 463 -18 463 -18 352 -18 c 0,27,28
 203 -18 203 -18 116.5 84.5 c 128,-1,29
 30 187 30 187 30 362 c 0,4,5
EndSplineSet
Validated: 1
EndChar

StartChar: cacute
Encoding: 263 263 157
Width: 600
GlyphClass: 2
Flags: W
LayerCount: 2
Fore
SplineSet
459 761 m 1,0,-1
 345 601 l 1,1,-1
 288 601 l 1,2,-1
 364 761 l 1,3,-1
 459 761 l 1,0,-1
155 265 m 0,4,5
 155 224 155 224 164 190 c 128,-1,6
 173 156 173 156 194 125 c 128,-1,7
 215 94 215 94 255 76.5 c 128,-1,8
 295 59 295 59 352 59 c 0,9,10
 416 59 416 59 540 90 c 1,11,-1
 540 15 l 1,12,13
 432 -12 432 -12 352 -12 c 0,14,15
 206 -12 206 -12 133 65.5 c 128,-1,16
 60 143 60 143 60 265 c 0,17,18
 60 315 60 315 73.5 360 c 128,-1,19
 87 405 87 405 118 448 c 128,-1,20
 149 491 149 491 209.5 516.5 c 128,-1,21
 270 542 270 542 354 542 c 0,22,23
 435 542 435 542 540 519 c 1,24,-1
 540 445 l 1,25,26
 421 471 421 471 354 471 c 0,27,28
 155 471 155 471 155 265 c 0,4,5
EndSplineSet
Validated: 1
EndChar

StartChar: Ccircumflex
Encoding: 264 264 158
Width: 600
GlyphClass: 2
Flags: W
LayerCount: 2
Fore
SplineSet
506 796 m 1,0,-1
 430 796 l 1,1,-1
 349 886 l 1,2,-1
 268 796 l 1,3,-1
 192 796 l 1,4,-1
 302 938 l 1,5,-1
 396 938 l 1,6,-1
 506 796 l 1,0,-1
30 362 m 0,7,8
 30 538 30 538 116.5 640.5 c 128,-1,9
 203 743 203 743 356 743 c 0,10,11
 455 743 455 743 565 700 c 1,12,-1
 565 615 l 1,13,14
 432 668 432 668 356 668 c 0,15,16
 264 668 264 668 207 607 c 0,17,18
 140 534 140 534 140 362 c 0,19,20
 140 191 140 191 207 118 c 0,21,22
 264 57 264 57 350 57 c 0,23,24
 386 57 386 57 426.5 69.5 c 128,-1,25
 467 82 467 82 495 96 c 128,-1,26
 523 110 523 110 565 135 c 1,27,-1
 565 41 l 1,28,29
 463 -18 463 -18 352 -18 c 0,30,31
 203 -18 203 -18 116.5 84.5 c 128,-1,32
 30 187 30 187 30 362 c 0,7,8
EndSplineSet
Validated: 1
EndChar

StartChar: ccircumflex
Encoding: 265 265 159
Width: 600
GlyphClass: 2
Flags: W
LayerCount: 2
Fore
SplineSet
502 601 m 1,0,-1
 426 601 l 1,1,-1
 345 691 l 1,2,-1
 264 601 l 1,3,-1
 188 601 l 1,4,-1
 298 743 l 1,5,-1
 392 743 l 1,6,-1
 502 601 l 1,0,-1
155 265 m 0,7,8
 155 224 155 224 164 190 c 128,-1,9
 173 156 173 156 194 125 c 128,-1,10
 215 94 215 94 255 76.5 c 128,-1,11
 295 59 295 59 352 59 c 0,12,13
 416 59 416 59 540 90 c 1,14,-1
 540 15 l 1,15,16
 432 -12 432 -12 352 -12 c 0,17,18
 206 -12 206 -12 133 65.5 c 128,-1,19
 60 143 60 143 60 265 c 0,20,21
 60 315 60 315 73.5 360 c 128,-1,22
 87 405 87 405 118 448 c 128,-1,23
 149 491 149 491 209.5 516.5 c 128,-1,24
 270 542 270 542 354 542 c 0,25,26
 435 542 435 542 540 519 c 1,27,-1
 540 445 l 1,28,29
 421 471 421 471 354 471 c 0,30,31
 155 471 155 471 155 265 c 0,7,8
EndSplineSet
Validated: 1
EndChar

StartChar: Cdotaccent
Encoding: 266 266 160
Width: 600
GlyphClass: 2
Flags: W
LayerCount: 2
Fore
SplineSet
396 825 m 1,0,-1
 302 825 l 1,1,-1
 302 920 l 1,2,-1
 396 920 l 1,3,-1
 396 825 l 1,0,-1
30 362 m 0,4,5
 30 538 30 538 116.5 640.5 c 128,-1,6
 203 743 203 743 356 743 c 0,7,8
 455 743 455 743 565 700 c 1,9,-1
 565 615 l 1,10,11
 432 668 432 668 356 668 c 0,12,13
 264 668 264 668 207 607 c 0,14,15
 140 534 140 534 140 362 c 0,16,17
 140 191 140 191 207 118 c 0,18,19
 264 57 264 57 350 57 c 0,20,21
 386 57 386 57 426.5 69.5 c 128,-1,22
 467 82 467 82 495 96 c 128,-1,23
 523 110 523 110 565 135 c 1,24,-1
 565 41 l 1,25,26
 463 -18 463 -18 352 -18 c 0,27,28
 203 -18 203 -18 116.5 84.5 c 128,-1,29
 30 187 30 187 30 362 c 0,4,5
EndSplineSet
Validated: 1
EndChar

StartChar: cdotaccent
Encoding: 267 267 161
Width: 600
GlyphClass: 2
Flags: W
LayerCount: 2
Fore
SplineSet
392 630 m 1,0,-1
 298 630 l 1,1,-1
 298 725 l 1,2,-1
 392 725 l 1,3,-1
 392 630 l 1,0,-1
155 265 m 0,4,5
 155 224 155 224 164 190 c 128,-1,6
 173 156 173 156 194 125 c 128,-1,7
 215 94 215 94 255 76.5 c 128,-1,8
 295 59 295 59 352 59 c 0,9,10
 416 59 416 59 540 90 c 1,11,-1
 540 15 l 1,12,13
 432 -12 432 -12 352 -12 c 0,14,15
 206 -12 206 -12 133 65.5 c 128,-1,16
 60 143 60 143 60 265 c 0,17,18
 60 315 60 315 73.5 360 c 128,-1,19
 87 405 87 405 118 448 c 128,-1,20
 149 491 149 491 209.5 516.5 c 128,-1,21
 270 542 270 542 354 542 c 0,22,23
 435 542 435 542 540 519 c 1,24,-1
 540 445 l 1,25,26
 421 471 421 471 354 471 c 0,27,28
 155 471 155 471 155 265 c 0,4,5
EndSplineSet
Validated: 1
EndChar

StartChar: Ccaron
Encoding: 268 268 162
Width: 600
GlyphClass: 2
Flags: W
LayerCount: 2
Fore
SplineSet
30 362 m 0,0,1
 30 538 30 538 116.5 640.5 c 128,-1,2
 203 743 203 743 356 743 c 0,3,4
 455 743 455 743 565 700 c 1,5,-1
 565 615 l 1,6,7
 432 668 432 668 356 668 c 0,8,9
 264 668 264 668 207 607 c 0,10,11
 140 534 140 534 140 362 c 0,12,13
 140 191 140 191 207 118 c 0,14,15
 264 57 264 57 350 57 c 0,16,17
 386 57 386 57 426.5 69.5 c 128,-1,18
 467 82 467 82 495 96 c 128,-1,19
 523 110 523 110 565 135 c 1,20,-1
 565 41 l 1,21,22
 463 -18 463 -18 352 -18 c 0,23,24
 203 -18 203 -18 116.5 84.5 c 128,-1,25
 30 187 30 187 30 362 c 0,0,1
349 848 m 1,26,-1
 430 938 l 1,27,-1
 506 938 l 1,28,-1
 396 796 l 1,29,-1
 302 796 l 1,30,-1
 192 938 l 1,31,-1
 268 938 l 1,32,-1
 349 848 l 1,26,-1
EndSplineSet
Validated: 1
EndChar

StartChar: ccaron
Encoding: 269 269 163
Width: 600
GlyphClass: 2
Flags: W
LayerCount: 2
Fore
SplineSet
155 265 m 0,0,1
 155 224 155 224 164 190 c 128,-1,2
 173 156 173 156 194 125 c 128,-1,3
 215 94 215 94 255 76.5 c 128,-1,4
 295 59 295 59 352 59 c 0,5,6
 416 59 416 59 540 90 c 1,7,-1
 540 15 l 1,8,9
 432 -12 432 -12 352 -12 c 0,10,11
 206 -12 206 -12 133 65.5 c 128,-1,12
 60 143 60 143 60 265 c 0,13,14
 60 315 60 315 73.5 360 c 128,-1,15
 87 405 87 405 118 448 c 128,-1,16
 149 491 149 491 209.5 516.5 c 128,-1,17
 270 542 270 542 354 542 c 0,18,19
 435 542 435 542 540 519 c 1,20,-1
 540 445 l 1,21,22
 421 471 421 471 354 471 c 0,23,24
 155 471 155 471 155 265 c 0,0,1
345 653 m 1,25,-1
 426 743 l 1,26,-1
 502 743 l 1,27,-1
 392 601 l 1,28,-1
 298 601 l 1,29,-1
 188 743 l 1,30,-1
 264 743 l 1,31,-1
 345 653 l 1,25,-1
EndSplineSet
Validated: 1
EndChar

StartChar: Dcaron
Encoding: 270 270 164
Width: 600
GlyphClass: 2
Flags: W
LayerCount: 2
Fore
SplineSet
465 365 m 0,0,1
 465 487 465 487 415 570 c 0,2,3
 398 599 398 599 378 616 c 128,-1,4
 358 633 358 633 333 640 c 128,-1,5
 308 647 308 647 291.5 648.5 c 128,-1,6
 275 650 275 650 245 650 c 2,7,-1
 160 650 l 1,8,-1
 160 75 l 1,9,-1
 218 75 l 2,10,11
 252 75 252 75 270.5 76.5 c 128,-1,12
 289 78 289 78 317 85 c 128,-1,13
 345 92 345 92 367 109.5 c 128,-1,14
 389 127 389 127 409 156 c 0,15,16
 465 240 465 240 465 365 c 0,0,1
565 364 m 0,17,18
 565 213 565 213 479 106 c 0,19,20
 448 68 448 68 413.5 45 c 128,-1,21
 379 22 379 22 335.5 13 c 128,-1,22
 292 4 292 4 263.5 2 c 128,-1,23
 235 0 235 0 182 0 c 2,24,-1
 60 0 l 1,25,-1
 60 725 l 1,26,-1
 208 725 l 2,27,28
 247 725 247 725 267.5 724 c 128,-1,29
 288 723 288 723 323 718 c 128,-1,30
 358 713 358 713 381.5 702 c 128,-1,31
 405 691 405 691 433 670 c 128,-1,32
 461 649 461 649 484 618 c 0,33,34
 565 510 565 510 565 364 c 0,17,18
300 848 m 1,35,-1
 381 938 l 1,36,-1
 457 938 l 1,37,-1
 347 796 l 1,38,-1
 253 796 l 1,39,-1
 143 938 l 1,40,-1
 219 938 l 1,41,-1
 300 848 l 1,35,-1
EndSplineSet
Validated: 1
EndChar

StartChar: dcaron
Encoding: 271 271 165
Width: 600
GlyphClass: 2
Flags: W
LayerCount: 2
Fore
SplineSet
55 249 m 0,0,1
 55 306 55 306 68 352 c 128,-1,2
 81 398 81 398 104 429.5 c 128,-1,3
 127 461 127 461 155.5 483.5 c 128,-1,4
 184 506 184 506 219.5 518.5 c 128,-1,5
 255 531 255 531 289 536.5 c 128,-1,6
 323 542 323 542 360 542 c 0,7,8
 396 542 396 542 430 537 c 1,9,-1
 430 770 l 1,10,-1
 525 770 l 1,11,-1
 525 0 l 1,12,-1
 430 0 l 1,13,-1
 430 77 l 1,14,15
 363 -12 363 -12 261 -12 c 0,16,17
 177 -12 177 -12 116 52 c 128,-1,18
 55 116 55 116 55 249 c 0,0,1
300 893 m 1,19,-1
 381 983 l 1,20,-1
 457 983 l 1,21,-1
 347 841 l 1,22,-1
 253 841 l 1,23,-1
 143 983 l 1,24,-1
 219 983 l 1,25,-1
 300 893 l 1,19,-1
358 471 m 0,26,27
 318 471 318 471 285 461 c 128,-1,28
 252 451 252 451 222.5 428.5 c 128,-1,29
 193 406 193 406 176.5 362.5 c 128,-1,30
 160 319 160 319 160 258 c 0,31,32
 160 158 160 158 198.5 108.5 c 128,-1,33
 237 59 237 59 295 59 c 0,34,35
 340 59 340 59 375.5 86.5 c 128,-1,36
 411 114 411 114 430 159 c 1,37,-1
 430 462 l 1,38,39
 393 471 393 471 358 471 c 0,26,27
EndSplineSet
Validated: 1
EndChar

StartChar: Emacron
Encoding: 274 274 166
Width: 600
GlyphClass: 2
Flags: W
LayerCount: 2
Fore
SplineSet
455 825 m 1,0,-1
 171 825 l 1,1,-1
 171 896 l 1,2,-1
 455 896 l 1,3,-1
 455 825 l 1,0,-1
576 0 m 1,4,-1
 60 0 l 1,5,-1
 60 725 l 1,6,-1
 565 725 l 1,7,-1
 565 650 l 1,8,-1
 160 650 l 1,9,-1
 160 426 l 1,10,-1
 488 426 l 1,11,-1
 488 351 l 1,12,-1
 160 351 l 1,13,-1
 160 75 l 1,14,-1
 576 75 l 1,15,-1
 576 0 l 1,4,-1
EndSplineSet
Validated: 1
EndChar

StartChar: emacron
Encoding: 275 275 167
Width: 600
GlyphClass: 2
Flags: W
LayerCount: 2
Fore
SplineSet
461 630 m 1,0,-1
 177 630 l 1,1,-1
 177 701 l 1,2,-1
 461 701 l 1,3,-1
 461 630 l 1,0,-1
166 325 m 1,4,-1
 443 325 l 1,5,6
 436 396 436 396 400.5 433.5 c 128,-1,7
 365 471 365 471 312 471 c 256,8,9
 259 471 259 471 219 434.5 c 128,-1,10
 179 398 179 398 166 325 c 1,4,-1
346 -12 m 0,11,12
 290 -12 290 -12 244 -0.5 c 128,-1,13
 198 11 198 11 167 32.5 c 128,-1,14
 136 54 136 54 113.5 80.5 c 128,-1,15
 91 107 91 107 78.5 139.5 c 128,-1,16
 66 172 66 172 60.5 203.5 c 128,-1,17
 55 235 55 235 55 269 c 0,18,19
 55 343 55 343 78 398 c 128,-1,20
 101 453 101 453 139 483 c 128,-1,21
 177 513 177 513 219 527.5 c 128,-1,22
 261 542 261 542 307 542 c 256,23,24
 353 542 353 542 393 528 c 128,-1,25
 433 514 433 514 467 485 c 128,-1,26
 501 456 501 456 520.5 405 c 128,-1,27
 540 354 540 354 540 288 c 0,28,29
 540 271 540 271 539 254 c 1,30,-1
 160 254 l 1,31,32
 160 197 160 197 174 157.5 c 128,-1,33
 188 118 188 118 215 97 c 128,-1,34
 242 76 242 76 274 67.5 c 128,-1,35
 306 59 306 59 349 59 c 0,36,37
 433 59 433 59 528 85 c 1,38,-1
 528 14 l 1,39,40
 433 -12 433 -12 346 -12 c 0,11,12
EndSplineSet
Validated: 1
EndChar

StartChar: Ebreve
Encoding: 276 276 168
Width: 600
GlyphClass: 2
Flags: W
LayerCount: 2
Fore
SplineSet
433 903 m 1,0,1
 433 860 433 860 397.5 831.5 c 128,-1,2
 362 803 362 803 313 803 c 128,-1,3
 264 803 264 803 228.5 831.5 c 128,-1,4
 193 860 193 860 193 903 c 1,5,-1
 269 903 l 1,6,7
 269 885 269 885 282 872.5 c 128,-1,8
 295 860 295 860 313 860 c 128,-1,9
 331 860 331 860 344 872.5 c 128,-1,10
 357 885 357 885 357 903 c 1,11,-1
 433 903 l 1,0,1
576 0 m 1,12,-1
 60 0 l 1,13,-1
 60 725 l 1,14,-1
 565 725 l 1,15,-1
 565 650 l 1,16,-1
 160 650 l 1,17,-1
 160 426 l 1,18,-1
 488 426 l 1,19,-1
 488 351 l 1,20,-1
 160 351 l 1,21,-1
 160 75 l 1,22,-1
 576 75 l 1,23,-1
 576 0 l 1,12,-1
EndSplineSet
Validated: 1
EndChar

StartChar: ebreve
Encoding: 277 277 169
Width: 600
GlyphClass: 2
Flags: W
LayerCount: 2
Fore
SplineSet
439 708 m 1,0,1
 439 665 439 665 403.5 636.5 c 128,-1,2
 368 608 368 608 319 608 c 128,-1,3
 270 608 270 608 234.5 636.5 c 128,-1,4
 199 665 199 665 199 708 c 1,5,-1
 275 708 l 1,6,7
 275 690 275 690 288 677.5 c 128,-1,8
 301 665 301 665 319 665 c 128,-1,9
 337 665 337 665 350 677.5 c 128,-1,10
 363 690 363 690 363 708 c 1,11,-1
 439 708 l 1,0,1
166 325 m 1,12,-1
 443 325 l 1,13,14
 436 396 436 396 400.5 433.5 c 128,-1,15
 365 471 365 471 312 471 c 256,16,17
 259 471 259 471 219 434.5 c 128,-1,18
 179 398 179 398 166 325 c 1,12,-1
346 -12 m 0,19,20
 290 -12 290 -12 244 -0.5 c 128,-1,21
 198 11 198 11 167 32.5 c 128,-1,22
 136 54 136 54 113.5 80.5 c 128,-1,23
 91 107 91 107 78.5 139.5 c 128,-1,24
 66 172 66 172 60.5 203.5 c 128,-1,25
 55 235 55 235 55 269 c 0,26,27
 55 343 55 343 78 398 c 128,-1,28
 101 453 101 453 139 483 c 128,-1,29
 177 513 177 513 219 527.5 c 128,-1,30
 261 542 261 542 307 542 c 256,31,32
 353 542 353 542 393 528 c 128,-1,33
 433 514 433 514 467 485 c 128,-1,34
 501 456 501 456 520.5 405 c 128,-1,35
 540 354 540 354 540 288 c 0,36,37
 540 271 540 271 539 254 c 1,38,-1
 160 254 l 1,39,40
 160 197 160 197 174 157.5 c 128,-1,41
 188 118 188 118 215 97 c 128,-1,42
 242 76 242 76 274 67.5 c 128,-1,43
 306 59 306 59 349 59 c 0,44,45
 433 59 433 59 528 85 c 1,46,-1
 528 14 l 1,47,48
 433 -12 433 -12 346 -12 c 0,19,20
EndSplineSet
Validated: 1
EndChar

StartChar: Edotaccent
Encoding: 278 278 170
Width: 600
GlyphClass: 2
Flags: W
LayerCount: 2
Fore
SplineSet
360 825 m 1,0,-1
 266 825 l 1,1,-1
 266 920 l 1,2,-1
 360 920 l 1,3,-1
 360 825 l 1,0,-1
576 0 m 1,4,-1
 60 0 l 1,5,-1
 60 725 l 1,6,-1
 565 725 l 1,7,-1
 565 650 l 1,8,-1
 160 650 l 1,9,-1
 160 426 l 1,10,-1
 488 426 l 1,11,-1
 488 351 l 1,12,-1
 160 351 l 1,13,-1
 160 75 l 1,14,-1
 576 75 l 1,15,-1
 576 0 l 1,4,-1
EndSplineSet
Validated: 1
EndChar

StartChar: edotaccent
Encoding: 279 279 171
Width: 600
GlyphClass: 2
Flags: W
LayerCount: 2
Fore
SplineSet
366 630 m 1,0,-1
 272 630 l 1,1,-1
 272 725 l 1,2,-1
 366 725 l 1,3,-1
 366 630 l 1,0,-1
166 325 m 1,4,-1
 443 325 l 1,5,6
 436 396 436 396 400.5 433.5 c 128,-1,7
 365 471 365 471 312 471 c 256,8,9
 259 471 259 471 219 434.5 c 128,-1,10
 179 398 179 398 166 325 c 1,4,-1
346 -12 m 0,11,12
 290 -12 290 -12 244 -0.5 c 128,-1,13
 198 11 198 11 167 32.5 c 128,-1,14
 136 54 136 54 113.5 80.5 c 128,-1,15
 91 107 91 107 78.5 139.5 c 128,-1,16
 66 172 66 172 60.5 203.5 c 128,-1,17
 55 235 55 235 55 269 c 0,18,19
 55 343 55 343 78 398 c 128,-1,20
 101 453 101 453 139 483 c 128,-1,21
 177 513 177 513 219 527.5 c 128,-1,22
 261 542 261 542 307 542 c 256,23,24
 353 542 353 542 393 528 c 128,-1,25
 433 514 433 514 467 485 c 128,-1,26
 501 456 501 456 520.5 405 c 128,-1,27
 540 354 540 354 540 288 c 0,28,29
 540 271 540 271 539 254 c 1,30,-1
 160 254 l 1,31,32
 160 197 160 197 174 157.5 c 128,-1,33
 188 118 188 118 215 97 c 128,-1,34
 242 76 242 76 274 67.5 c 128,-1,35
 306 59 306 59 349 59 c 0,36,37
 433 59 433 59 528 85 c 1,38,-1
 528 14 l 1,39,40
 433 -12 433 -12 346 -12 c 0,11,12
EndSplineSet
Validated: 1
EndChar

StartChar: Ecaron
Encoding: 282 282 172
Width: 600
GlyphClass: 2
Flags: W
LayerCount: 2
Fore
SplineSet
576 0 m 1,0,-1
 60 0 l 1,1,-1
 60 725 l 1,2,-1
 565 725 l 1,3,-1
 565 650 l 1,4,-1
 160 650 l 1,5,-1
 160 426 l 1,6,-1
 488 426 l 1,7,-1
 488 351 l 1,8,-1
 160 351 l 1,9,-1
 160 75 l 1,10,-1
 576 75 l 1,11,-1
 576 0 l 1,0,-1
313 848 m 1,12,-1
 394 938 l 1,13,-1
 470 938 l 1,14,-1
 360 796 l 1,15,-1
 266 796 l 1,16,-1
 156 938 l 1,17,-1
 232 938 l 1,18,-1
 313 848 l 1,12,-1
EndSplineSet
Validated: 1
EndChar

StartChar: ecaron
Encoding: 283 283 173
Width: 600
GlyphClass: 2
Flags: W
LayerCount: 2
Fore
SplineSet
319 653 m 1,0,-1
 400 743 l 1,1,-1
 476 743 l 1,2,-1
 366 601 l 1,3,-1
 272 601 l 1,4,-1
 162 743 l 1,5,-1
 238 743 l 1,6,-1
 319 653 l 1,0,-1
166 325 m 1,7,-1
 443 325 l 1,8,9
 436 396 436 396 400.5 433.5 c 128,-1,10
 365 471 365 471 312 471 c 256,11,12
 259 471 259 471 219 434.5 c 128,-1,13
 179 398 179 398 166 325 c 1,7,-1
346 -12 m 0,14,15
 290 -12 290 -12 244 -0.5 c 128,-1,16
 198 11 198 11 167 32.5 c 128,-1,17
 136 54 136 54 113.5 80.5 c 128,-1,18
 91 107 91 107 78.5 139.5 c 128,-1,19
 66 172 66 172 60.5 203.5 c 128,-1,20
 55 235 55 235 55 269 c 0,21,22
 55 343 55 343 78 398 c 128,-1,23
 101 453 101 453 139 483 c 128,-1,24
 177 513 177 513 219 527.5 c 128,-1,25
 261 542 261 542 307 542 c 256,26,27
 353 542 353 542 393 528 c 128,-1,28
 433 514 433 514 467 485 c 128,-1,29
 501 456 501 456 520.5 405 c 128,-1,30
 540 354 540 354 540 288 c 0,31,32
 540 271 540 271 539 254 c 1,33,-1
 160 254 l 1,34,35
 160 197 160 197 174 157.5 c 128,-1,36
 188 118 188 118 215 97 c 128,-1,37
 242 76 242 76 274 67.5 c 128,-1,38
 306 59 306 59 349 59 c 0,39,40
 433 59 433 59 528 85 c 1,41,-1
 528 14 l 1,42,43
 433 -12 433 -12 346 -12 c 0,14,15
EndSplineSet
Validated: 1
EndChar

StartChar: Gcircumflex
Encoding: 284 284 174
Width: 600
GlyphClass: 2
Flags: W
LayerCount: 2
Fore
SplineSet
506 796 m 1,0,-1
 430 796 l 1,1,-1
 349 886 l 1,2,-1
 268 796 l 1,3,-1
 192 796 l 1,4,-1
 302 938 l 1,5,-1
 396 938 l 1,6,-1
 506 796 l 1,0,-1
30 362 m 0,7,8
 30 538 30 538 116.5 640.5 c 128,-1,9
 203 743 203 743 356 743 c 0,10,11
 455 743 455 743 565 700 c 1,12,-1
 565 615 l 1,13,14
 432 668 432 668 356 668 c 0,15,16
 264 668 264 668 207 607 c 0,17,18
 140 534 140 534 140 362 c 0,19,20
 140 191 140 191 207 118 c 0,21,22
 264 57 264 57 352 57 c 0,23,24
 398 57 398 57 465 78 c 1,25,-1
 465 270 l 1,26,-1
 386 270 l 1,27,-1
 386 345 l 1,28,-1
 565 345 l 1,29,-1
 565 31 l 1,30,31
 444 -18 444 -18 351 -18 c 0,32,33
 203 -18 203 -18 116.5 84.5 c 128,-1,34
 30 187 30 187 30 362 c 0,7,8
EndSplineSet
Validated: 1
EndChar

StartChar: gcircumflex
Encoding: 285 285 175
Width: 600
GlyphClass: 2
Flags: W
LayerCount: 2
Fore
SplineSet
457 601 m 1,0,-1
 381 601 l 1,1,-1
 300 691 l 1,2,-1
 219 601 l 1,3,-1
 143 601 l 1,4,-1
 253 743 l 1,5,-1
 347 743 l 1,6,-1
 457 601 l 1,0,-1
300 231 m 0,7,8
 373 231 373 231 399 264 c 128,-1,9
 425 297 425 297 425 351 c 0,10,11
 425 407 425 407 397.5 439 c 128,-1,12
 370 471 370 471 300 471 c 0,13,14
 228 471 228 471 201.5 438 c 128,-1,15
 175 405 175 405 175 351 c 0,16,17
 175 295 175 295 202 263 c 128,-1,18
 229 231 229 231 300 231 c 0,7,8
70 351 m 0,19,20
 70 384 70 384 82.5 415.5 c 128,-1,21
 95 447 95 447 120.5 476.5 c 128,-1,22
 146 506 146 506 192.5 524 c 128,-1,23
 239 542 239 542 300 542 c 0,24,25
 370 542 370 542 423 517 c 1,26,27
 482 578 482 578 554 578 c 1,28,-1
 554 506 l 1,29,30
 503 506 503 506 468 487 c 1,31,32
 530 433 530 433 530 351 c 0,33,34
 530 319 530 319 518 287.5 c 128,-1,35
 506 256 506 256 481 226 c 128,-1,36
 456 196 456 196 409 177.5 c 128,-1,37
 362 159 362 159 300 159 c 0,38,39
 257 159 257 159 219 169 c 1,40,41
 198 151 198 151 198 130 c 0,42,43
 198 106 198 106 223 95 c 128,-1,44
 248 84 248 84 311 73 c 2,45,-1
 404 55 l 1,46,47
 404 55 404 55 419 52 c 128,-1,48
 434 49 434 49 438 48 c 128,-1,49
 442 47 442 47 457.5 43 c 128,-1,50
 473 39 473 39 479.5 36 c 128,-1,51
 486 33 486 33 500 27 c 128,-1,52
 514 21 514 21 520.5 15 c 128,-1,53
 527 9 527 9 536.5 0 c 128,-1,54
 546 -9 546 -9 551 -18.5 c 128,-1,55
 556 -28 556 -28 559.5 -41 c 128,-1,56
 563 -54 563 -54 563 -68 c 0,57,58
 563 -193 563 -193 306 -193 c 0,59,60
 161 -193 161 -193 75 -170 c 1,61,-1
 75 -88 l 1,62,63
 205 -122 205 -122 358 -122 c 0,64,65
 380 -122 380 -122 395 -121 c 128,-1,66
 410 -120 410 -120 429 -116 c 128,-1,67
 448 -112 448 -112 458 -102 c 128,-1,68
 468 -92 468 -92 468 -77 c 0,69,70
 468 -53 468 -53 448.5 -42 c 128,-1,71
 429 -31 429 -31 377 -21 c 2,72,-1
 284 -3 l 2,73,74
 217 10 217 10 202 15 c 0,75,76
 165 26 165 26 143 54 c 128,-1,77
 121 82 121 82 121 112 c 0,78,79
 121 160 121 160 162 192 c 1,80,81
 119 217 119 217 94.5 259.5 c 128,-1,82
 70 302 70 302 70 351 c 0,19,20
EndSplineSet
Validated: 1
EndChar

StartChar: Gdotaccent
Encoding: 288 288 176
Width: 600
GlyphClass: 2
Flags: W
LayerCount: 2
Fore
SplineSet
396 825 m 1,0,-1
 302 825 l 1,1,-1
 302 920 l 1,2,-1
 396 920 l 1,3,-1
 396 825 l 1,0,-1
30 362 m 0,4,5
 30 538 30 538 116.5 640.5 c 128,-1,6
 203 743 203 743 356 743 c 0,7,8
 455 743 455 743 565 700 c 1,9,-1
 565 615 l 1,10,11
 432 668 432 668 356 668 c 0,12,13
 264 668 264 668 207 607 c 0,14,15
 140 534 140 534 140 362 c 0,16,17
 140 191 140 191 207 118 c 0,18,19
 264 57 264 57 352 57 c 0,20,21
 398 57 398 57 465 78 c 1,22,-1
 465 270 l 1,23,-1
 386 270 l 1,24,-1
 386 345 l 1,25,-1
 565 345 l 1,26,-1
 565 31 l 1,27,28
 444 -18 444 -18 351 -18 c 0,29,30
 203 -18 203 -18 116.5 84.5 c 128,-1,31
 30 187 30 187 30 362 c 0,4,5
EndSplineSet
Validated: 1
EndChar

StartChar: gdotaccent
Encoding: 289 289 177
Width: 600
GlyphClass: 2
Flags: W
LayerCount: 2
Fore
SplineSet
347 630 m 1,0,-1
 253 630 l 1,1,-1
 253 725 l 1,2,-1
 347 725 l 1,3,-1
 347 630 l 1,0,-1
300 231 m 0,4,5
 373 231 373 231 399 264 c 128,-1,6
 425 297 425 297 425 351 c 0,7,8
 425 407 425 407 397.5 439 c 128,-1,9
 370 471 370 471 300 471 c 0,10,11
 228 471 228 471 201.5 438 c 128,-1,12
 175 405 175 405 175 351 c 0,13,14
 175 295 175 295 202 263 c 128,-1,15
 229 231 229 231 300 231 c 0,4,5
70 351 m 0,16,17
 70 384 70 384 82.5 415.5 c 128,-1,18
 95 447 95 447 120.5 476.5 c 128,-1,19
 146 506 146 506 192.5 524 c 128,-1,20
 239 542 239 542 300 542 c 0,21,22
 370 542 370 542 423 517 c 1,23,24
 482 578 482 578 554 578 c 1,25,-1
 554 506 l 1,26,27
 503 506 503 506 468 487 c 1,28,29
 530 433 530 433 530 351 c 0,30,31
 530 319 530 319 518 287.5 c 128,-1,32
 506 256 506 256 481 226 c 128,-1,33
 456 196 456 196 409 177.5 c 128,-1,34
 362 159 362 159 300 159 c 0,35,36
 257 159 257 159 219 169 c 1,37,38
 198 151 198 151 198 130 c 0,39,40
 198 106 198 106 223 95 c 128,-1,41
 248 84 248 84 311 73 c 2,42,-1
 404 55 l 1,43,44
 404 55 404 55 419 52 c 128,-1,45
 434 49 434 49 438 48 c 128,-1,46
 442 47 442 47 457.5 43 c 128,-1,47
 473 39 473 39 479.5 36 c 128,-1,48
 486 33 486 33 500 27 c 128,-1,49
 514 21 514 21 520.5 15 c 128,-1,50
 527 9 527 9 536.5 0 c 128,-1,51
 546 -9 546 -9 551 -18.5 c 128,-1,52
 556 -28 556 -28 559.5 -41 c 128,-1,53
 563 -54 563 -54 563 -68 c 0,54,55
 563 -193 563 -193 306 -193 c 0,56,57
 161 -193 161 -193 75 -170 c 1,58,-1
 75 -88 l 1,59,60
 205 -122 205 -122 358 -122 c 0,61,62
 380 -122 380 -122 395 -121 c 128,-1,63
 410 -120 410 -120 429 -116 c 128,-1,64
 448 -112 448 -112 458 -102 c 128,-1,65
 468 -92 468 -92 468 -77 c 0,66,67
 468 -53 468 -53 448.5 -42 c 128,-1,68
 429 -31 429 -31 377 -21 c 2,69,-1
 284 -3 l 2,70,71
 217 10 217 10 202 15 c 0,72,73
 165 26 165 26 143 54 c 128,-1,74
 121 82 121 82 121 112 c 0,75,76
 121 160 121 160 162 192 c 1,77,78
 119 217 119 217 94.5 259.5 c 128,-1,79
 70 302 70 302 70 351 c 0,16,17
EndSplineSet
Validated: 1
EndChar

StartChar: Hcircumflex
Encoding: 292 292 178
Width: 600
GlyphClass: 2
Flags: W
LayerCount: 2
Fore
SplineSet
457 796 m 1,0,-1
 381 796 l 1,1,-1
 300 886 l 1,2,-1
 219 796 l 1,3,-1
 143 796 l 1,4,-1
 253 938 l 1,5,-1
 347 938 l 1,6,-1
 457 796 l 1,0,-1
540 0 m 1,7,-1
 440 0 l 1,8,-1
 440 325 l 1,9,-1
 160 325 l 1,10,-1
 160 0 l 1,11,-1
 60 0 l 1,12,-1
 60 725 l 1,13,-1
 160 725 l 1,14,-1
 160 400 l 1,15,-1
 440 400 l 1,16,-1
 440 725 l 1,17,-1
 540 725 l 1,18,-1
 540 0 l 1,7,-1
EndSplineSet
Validated: 1
EndChar

StartChar: hcircumflex
Encoding: 293 293 179
Width: 600
GlyphClass: 2
Flags: W
LayerCount: 2
Fore
SplineSet
457 841 m 1,0,-1
 381 841 l 1,1,-1
 300 931 l 1,2,-1
 219 841 l 1,3,-1
 143 841 l 1,4,-1
 253 983 l 1,5,-1
 347 983 l 1,6,-1
 457 841 l 1,0,-1
430 347 m 2,7,8
 430 371 430 371 429.5 383 c 128,-1,9
 429 395 429 395 425 415 c 128,-1,10
 421 435 421 435 412.5 445 c 128,-1,11
 404 455 404 455 388 463 c 128,-1,12
 372 471 372 471 348 471 c 0,13,14
 246 471 246 471 170 354 c 1,15,-1
 170 0 l 1,16,-1
 75 0 l 1,17,-1
 75 770 l 1,18,-1
 170 770 l 1,19,-1
 170 432 l 1,20,21
 265 542 265 542 384 542 c 0,22,23
 414 542 414 542 437 534.5 c 128,-1,24
 460 527 460 527 474.5 516.5 c 128,-1,25
 489 506 489 506 499.5 486.5 c 128,-1,26
 510 467 510 467 514.5 452.5 c 128,-1,27
 519 438 519 438 521.5 411 c 128,-1,28
 524 384 524 384 524.5 370.5 c 128,-1,29
 525 357 525 357 525 329 c 2,30,-1
 525 0 l 1,31,-1
 430 0 l 1,32,-1
 430 347 l 2,7,8
EndSplineSet
Validated: 1
EndChar

StartChar: Imacron
Encoding: 298 298 180
Width: 600
GlyphClass: 2
Flags: W
LayerCount: 2
Fore
SplineSet
442 825 m 1,0,-1
 158 825 l 1,1,-1
 158 896 l 1,2,-1
 442 896 l 1,3,-1
 442 825 l 1,0,-1
350 75 m 1,4,-1
 512 75 l 1,5,-1
 512 0 l 1,6,-1
 88 0 l 1,7,-1
 88 75 l 1,8,-1
 250 75 l 1,9,-1
 250 650 l 1,10,-1
 88 650 l 1,11,-1
 88 725 l 1,12,-1
 512 725 l 1,13,-1
 512 650 l 1,14,-1
 350 650 l 1,15,-1
 350 75 l 1,4,-1
EndSplineSet
Validated: 1
EndChar

StartChar: imacron
Encoding: 299 299 181
Width: 600
GlyphClass: 2
Flags: W
LayerCount: 2
Fore
SplineSet
442 630 m 1,0,-1
 158 630 l 1,1,-1
 158 701 l 1,2,-1
 442 701 l 1,3,-1
 442 630 l 1,0,-1
353 71 m 1,4,-1
 525 71 l 1,5,-1
 525 0 l 1,6,-1
 75 0 l 1,7,-1
 75 71 l 1,8,-1
 258 71 l 1,9,-1
 258 459 l 1,10,-1
 103 459 l 1,11,-1
 103 530 l 1,12,-1
 353 530 l 1,13,-1
 353 71 l 1,4,-1
EndSplineSet
Validated: 1
EndChar

StartChar: Ibreve
Encoding: 300 300 182
Width: 600
GlyphClass: 2
Flags: W
LayerCount: 2
Fore
SplineSet
420 903 m 1,0,1
 420 860 420 860 384.5 831.5 c 128,-1,2
 349 803 349 803 300 803 c 128,-1,3
 251 803 251 803 215.5 831.5 c 128,-1,4
 180 860 180 860 180 903 c 1,5,-1
 256 903 l 1,6,7
 256 885 256 885 269 872.5 c 128,-1,8
 282 860 282 860 300 860 c 128,-1,9
 318 860 318 860 331 872.5 c 128,-1,10
 344 885 344 885 344 903 c 1,11,-1
 420 903 l 1,0,1
350 75 m 1,12,-1
 512 75 l 1,13,-1
 512 0 l 1,14,-1
 88 0 l 1,15,-1
 88 75 l 1,16,-1
 250 75 l 1,17,-1
 250 650 l 1,18,-1
 88 650 l 1,19,-1
 88 725 l 1,20,-1
 512 725 l 1,21,-1
 512 650 l 1,22,-1
 350 650 l 1,23,-1
 350 75 l 1,12,-1
EndSplineSet
Validated: 1
EndChar

StartChar: ibreve
Encoding: 301 301 183
Width: 600
GlyphClass: 2
Flags: W
LayerCount: 2
Fore
SplineSet
420 708 m 1,0,1
 420 665 420 665 384.5 636.5 c 128,-1,2
 349 608 349 608 300 608 c 128,-1,3
 251 608 251 608 215.5 636.5 c 128,-1,4
 180 665 180 665 180 708 c 1,5,-1
 256 708 l 1,6,7
 256 690 256 690 269 677.5 c 128,-1,8
 282 665 282 665 300 665 c 128,-1,9
 318 665 318 665 331 677.5 c 128,-1,10
 344 690 344 690 344 708 c 1,11,-1
 420 708 l 1,0,1
353 71 m 1,12,-1
 525 71 l 1,13,-1
 525 0 l 1,14,-1
 75 0 l 1,15,-1
 75 71 l 1,16,-1
 258 71 l 1,17,-1
 258 459 l 1,18,-1
 103 459 l 1,19,-1
 103 530 l 1,20,-1
 353 530 l 1,21,-1
 353 71 l 1,12,-1
EndSplineSet
Validated: 1
EndChar

StartChar: Idotaccent
Encoding: 304 304 184
Width: 600
GlyphClass: 2
Flags: W
LayerCount: 2
Fore
SplineSet
347 825 m 1,0,-1
 253 825 l 1,1,-1
 253 920 l 1,2,-1
 347 920 l 1,3,-1
 347 825 l 1,0,-1
350 75 m 1,4,-1
 512 75 l 1,5,-1
 512 0 l 1,6,-1
 88 0 l 1,7,-1
 88 75 l 1,8,-1
 250 75 l 1,9,-1
 250 650 l 1,10,-1
 88 650 l 1,11,-1
 88 725 l 1,12,-1
 512 725 l 1,13,-1
 512 650 l 1,14,-1
 350 650 l 1,15,-1
 350 75 l 1,4,-1
EndSplineSet
Validated: 1
EndChar

StartChar: dotlessi
Encoding: 305 305 185
Width: 600
GlyphClass: 2
Flags: W
LayerCount: 2
Fore
SplineSet
353 71 m 1,0,-1
 525 71 l 1,1,-1
 525 0 l 1,2,-1
 75 0 l 1,3,-1
 75 71 l 1,4,-1
 258 71 l 1,5,-1
 258 459 l 1,6,-1
 103 459 l 1,7,-1
 103 530 l 1,8,-1
 353 530 l 1,9,-1
 353 71 l 1,0,-1
EndSplineSet
Validated: 1
EndChar

StartChar: Jcircumflex
Encoding: 308 308 186
Width: 600
GlyphClass: 2
Flags: W
LayerCount: 2
Fore
SplineSet
457 796 m 1,0,-1
 381 796 l 1,1,-1
 300 886 l 1,2,-1
 219 796 l 1,3,-1
 143 796 l 1,4,-1
 253 938 l 1,5,-1
 347 938 l 1,6,-1
 457 796 l 1,0,-1
432 270 m 2,7,8
 432 213 432 213 430 182 c 128,-1,9
 428 151 428 151 413 109 c 128,-1,10
 398 67 398 67 368 40 c 0,11,12
 302 -18 302 -18 182 -18 c 0,13,14
 104 -18 104 -18 35 6 c 1,15,-1
 35 89 l 1,16,17
 127 57 127 57 177 57 c 0,18,19
 248 57 248 57 290 96 c 0,20,21
 310 114 310 114 319.5 142.5 c 128,-1,22
 329 171 329 171 330.5 191.5 c 128,-1,23
 332 212 332 212 332 250 c 2,24,-1
 332 650 l 1,25,-1
 139 650 l 1,26,-1
 139 725 l 1,27,-1
 565 725 l 1,28,-1
 565 650 l 1,29,-1
 432 650 l 1,30,-1
 432 270 l 2,7,8
EndSplineSet
Validated: 1
EndChar

StartChar: jcircumflex
Encoding: 309 309 187
Width: 600
GlyphClass: 2
Flags: W
LayerCount: 2
Fore
SplineSet
457 601 m 1,0,-1
 381 601 l 1,1,-1
 300 691 l 1,2,-1
 219 601 l 1,3,-1
 143 601 l 1,4,-1
 253 743 l 1,5,-1
 347 743 l 1,6,-1
 457 601 l 1,0,-1
437 52 m 2,7,8
 437 1 437 1 435 -26 c 128,-1,9
 433 -53 433 -53 417.5 -90.5 c 128,-1,10
 402 -128 402 -128 371 -152 c 0,11,12
 304 -205 304 -205 189 -205 c 0,13,14
 139 -205 139 -205 75 -187 c 1,15,-1
 75 -117 l 1,16,17
 130 -134 130 -134 175 -134 c 0,18,19
 251 -134 251 -134 298 -100 c 0,20,21
 319 -84 319 -84 329 -59.5 c 128,-1,22
 339 -35 339 -35 340.5 -17 c 128,-1,23
 342 1 342 1 342 34 c 2,24,-1
 342 459 l 1,25,-1
 169 459 l 1,26,-1
 169 530 l 1,27,-1
 437 530 l 1,28,-1
 437 52 l 2,7,8
EndSplineSet
Validated: 1
EndChar

StartChar: Lacute
Encoding: 313 313 188
Width: 600
GlyphClass: 2
Flags: W
LayerCount: 2
Fore
SplineSet
414 956 m 1,0,-1
 300 796 l 1,1,-1
 243 796 l 1,2,-1
 319 956 l 1,3,-1
 414 956 l 1,0,-1
590 0 m 1,4,-1
 60 0 l 1,5,-1
 60 725 l 1,6,-1
 160 725 l 1,7,-1
 160 75 l 1,8,-1
 590 75 l 1,9,-1
 590 0 l 1,4,-1
EndSplineSet
Validated: 1
EndChar

StartChar: lacute
Encoding: 314 314 189
Width: 600
GlyphClass: 2
Flags: W
LayerCount: 2
Fore
SplineSet
414 1001 m 1,0,-1
 300 841 l 1,1,-1
 243 841 l 1,2,-1
 319 1001 l 1,3,-1
 414 1001 l 1,0,-1
353 71 m 1,4,-1
 525 71 l 1,5,-1
 525 0 l 1,6,-1
 75 0 l 1,7,-1
 75 71 l 1,8,-1
 258 71 l 1,9,-1
 258 699 l 1,10,-1
 103 699 l 1,11,-1
 103 770 l 1,12,-1
 353 770 l 1,13,-1
 353 71 l 1,4,-1
EndSplineSet
Validated: 1
EndChar

StartChar: Lcaron
Encoding: 317 317 190
Width: 600
GlyphClass: 2
Flags: W
LayerCount: 2
Fore
SplineSet
590 0 m 1,0,-1
 60 0 l 1,1,-1
 60 725 l 1,2,-1
 160 725 l 1,3,-1
 160 75 l 1,4,-1
 590 75 l 1,5,-1
 590 0 l 1,0,-1
300 848 m 1,6,-1
 381 938 l 1,7,-1
 457 938 l 1,8,-1
 347 796 l 1,9,-1
 253 796 l 1,10,-1
 143 938 l 1,11,-1
 219 938 l 1,12,-1
 300 848 l 1,6,-1
EndSplineSet
Validated: 1
EndChar

StartChar: lcaron
Encoding: 318 318 191
Width: 600
GlyphClass: 2
Flags: W
LayerCount: 2
Fore
SplineSet
300 893 m 1,0,-1
 381 983 l 1,1,-1
 457 983 l 1,2,-1
 347 841 l 1,3,-1
 253 841 l 1,4,-1
 143 983 l 1,5,-1
 219 983 l 1,6,-1
 300 893 l 1,0,-1
353 71 m 1,7,-1
 525 71 l 1,8,-1
 525 0 l 1,9,-1
 75 0 l 1,10,-1
 75 71 l 1,11,-1
 258 71 l 1,12,-1
 258 699 l 1,13,-1
 103 699 l 1,14,-1
 103 770 l 1,15,-1
 353 770 l 1,16,-1
 353 71 l 1,7,-1
EndSplineSet
Validated: 1
EndChar

StartChar: Nacute
Encoding: 323 323 192
Width: 600
GlyphClass: 2
Flags: W
LayerCount: 2
Fore
SplineSet
414 956 m 1,0,-1
 300 796 l 1,1,-1
 243 796 l 1,2,-1
 319 956 l 1,3,-1
 414 956 l 1,0,-1
143 0 m 1,4,-1
 60 0 l 1,5,-1
 60 725 l 1,6,-1
 160 725 l 1,7,-1
 457 158 l 1,8,-1
 457 725 l 1,9,-1
 540 725 l 1,10,-1
 540 0 l 1,11,-1
 440 0 l 1,12,-1
 143 567 l 1,13,-1
 143 0 l 1,4,-1
EndSplineSet
Validated: 1
EndChar

StartChar: nacute
Encoding: 324 324 193
Width: 600
GlyphClass: 2
Flags: W
LayerCount: 2
Fore
SplineSet
414 761 m 1,0,-1
 300 601 l 1,1,-1
 243 601 l 1,2,-1
 319 761 l 1,3,-1
 414 761 l 1,0,-1
430 347 m 2,4,5
 430 371 430 371 429.5 383 c 128,-1,6
 429 395 429 395 425 415 c 128,-1,7
 421 435 421 435 412.5 445 c 128,-1,8
 404 455 404 455 388 463 c 128,-1,9
 372 471 372 471 348 471 c 0,10,11
 246 471 246 471 170 354 c 1,12,-1
 170 0 l 1,13,-1
 75 0 l 1,14,-1
 75 530 l 1,15,-1
 170 530 l 1,16,-1
 170 432 l 1,17,18
 265 542 265 542 384 542 c 0,19,20
 414 542 414 542 437 534.5 c 128,-1,21
 460 527 460 527 474.5 516.5 c 128,-1,22
 489 506 489 506 499.5 486.5 c 128,-1,23
 510 467 510 467 514.5 452.5 c 128,-1,24
 519 438 519 438 521.5 411 c 128,-1,25
 524 384 524 384 524.5 370.5 c 128,-1,26
 525 357 525 357 525 329 c 2,27,-1
 525 0 l 1,28,-1
 430 0 l 1,29,-1
 430 347 l 2,4,5
EndSplineSet
Validated: 1
EndChar

StartChar: Ncaron
Encoding: 327 327 194
Width: 600
GlyphClass: 2
Flags: W
LayerCount: 2
Fore
SplineSet
143 0 m 1,0,-1
 60 0 l 1,1,-1
 60 725 l 1,2,-1
 160 725 l 1,3,-1
 457 158 l 1,4,-1
 457 725 l 1,5,-1
 540 725 l 1,6,-1
 540 0 l 1,7,-1
 440 0 l 1,8,-1
 143 567 l 1,9,-1
 143 0 l 1,0,-1
300 848 m 1,10,-1
 381 938 l 1,11,-1
 457 938 l 1,12,-1
 347 796 l 1,13,-1
 253 796 l 1,14,-1
 143 938 l 1,15,-1
 219 938 l 1,16,-1
 300 848 l 1,10,-1
EndSplineSet
Validated: 1
EndChar

StartChar: ncaron
Encoding: 328 328 195
Width: 600
GlyphClass: 2
Flags: W
LayerCount: 2
Fore
SplineSet
430 347 m 2,0,1
 430 371 430 371 429.5 383 c 128,-1,2
 429 395 429 395 425 415 c 128,-1,3
 421 435 421 435 412.5 445 c 128,-1,4
 404 455 404 455 388 463 c 128,-1,5
 372 471 372 471 348 471 c 0,6,7
 246 471 246 471 170 354 c 1,8,-1
 170 0 l 1,9,-1
 75 0 l 1,10,-1
 75 530 l 1,11,-1
 170 530 l 1,12,-1
 170 432 l 1,13,14
 265 542 265 542 384 542 c 0,15,16
 414 542 414 542 437 534.5 c 128,-1,17
 460 527 460 527 474.5 516.5 c 128,-1,18
 489 506 489 506 499.5 486.5 c 128,-1,19
 510 467 510 467 514.5 452.5 c 128,-1,20
 519 438 519 438 521.5 411 c 128,-1,21
 524 384 524 384 524.5 370.5 c 128,-1,22
 525 357 525 357 525 329 c 2,23,-1
 525 0 l 1,24,-1
 430 0 l 1,25,-1
 430 347 l 2,0,1
300 653 m 1,26,-1
 381 743 l 1,27,-1
 457 743 l 1,28,-1
 347 601 l 1,29,-1
 253 601 l 1,30,-1
 143 743 l 1,31,-1
 219 743 l 1,32,-1
 300 653 l 1,26,-1
EndSplineSet
Validated: 1
EndChar

StartChar: Omacron
Encoding: 332 332 196
Width: 600
GlyphClass: 2
Flags: W
LayerCount: 2
Fore
SplineSet
442 825 m 1,0,-1
 158 825 l 1,1,-1
 158 896 l 1,2,-1
 442 896 l 1,3,-1
 442 825 l 1,0,-1
460 363 m 128,-1,5
 460 418 460 418 457.5 453 c 128,-1,6
 455 488 455 488 442 533.5 c 128,-1,7
 429 579 429 579 404 612 c 0,8,9
 362 668 362 668 300 668 c 128,-1,10
 238 668 238 668 196 612 c 0,11,12
 171 579 171 579 158 533.5 c 128,-1,13
 145 488 145 488 142.5 453 c 128,-1,14
 140 418 140 418 140 363 c 128,-1,15
 140 308 140 308 142.5 272.5 c 128,-1,16
 145 237 145 237 158 191.5 c 128,-1,17
 171 146 171 146 196 113 c 0,18,19
 238 57 238 57 300 57 c 128,-1,20
 362 57 362 57 404 113 c 0,21,22
 429 146 429 146 442 191.5 c 128,-1,23
 455 237 455 237 457.5 272.5 c 128,-1,4
 460 308 460 308 460 363 c 128,-1,5
300 743 m 128,-1,25
 335 743 335 743 369.5 733 c 128,-1,26
 404 723 404 723 441.5 696.5 c 128,-1,27
 479 670 479 670 506.5 628.5 c 128,-1,28
 534 587 534 587 552 518.5 c 128,-1,29
 570 450 570 450 570 363 c 0,30,31
 570 275 570 275 552 206.5 c 128,-1,32
 534 138 534 138 506.5 96.5 c 128,-1,33
 479 55 479 55 441.5 28.5 c 128,-1,34
 404 2 404 2 369.5 -8 c 128,-1,35
 335 -18 335 -18 300 -18 c 128,-1,36
 265 -18 265 -18 230.5 -8 c 128,-1,37
 196 2 196 2 158.5 28.5 c 128,-1,38
 121 55 121 55 93.5 96.5 c 128,-1,39
 66 138 66 138 48 206.5 c 128,-1,40
 30 275 30 275 30 363 c 0,41,42
 30 450 30 450 48 518.5 c 128,-1,43
 66 587 66 587 93.5 628.5 c 128,-1,44
 121 670 121 670 158.5 696.5 c 128,-1,45
 196 723 196 723 230.5 733 c 128,-1,24
 265 743 265 743 300 743 c 128,-1,25
EndSplineSet
Validated: 1
EndChar

StartChar: omacron
Encoding: 333 333 197
Width: 600
GlyphClass: 2
Flags: W
LayerCount: 2
Fore
SplineSet
442 630 m 1,0,-1
 158 630 l 1,1,-1
 158 701 l 1,2,-1
 442 701 l 1,3,-1
 442 630 l 1,0,-1
440 265 m 128,-1,5
 440 384 440 384 394 433 c 0,6,7
 356 471 356 471 300 471 c 128,-1,8
 244 471 244 471 206 433 c 0,9,10
 160 384 160 384 160 265 c 128,-1,11
 160 146 160 146 206 97 c 0,12,13
 244 59 244 59 300 59 c 128,-1,14
 356 59 356 59 394 97 c 0,15,4
 440 146 440 146 440 265 c 128,-1,5
300 542 m 0,16,17
 410 542 410 542 477.5 466.5 c 128,-1,18
 545 391 545 391 545 265 c 128,-1,19
 545 139 545 139 478 63.5 c 128,-1,20
 411 -12 411 -12 300 -12 c 0,21,22
 190 -12 190 -12 122.5 63.5 c 128,-1,23
 55 139 55 139 55 265 c 128,-1,24
 55 391 55 391 122 466.5 c 128,-1,25
 189 542 189 542 300 542 c 0,16,17
EndSplineSet
Validated: 1
EndChar

StartChar: Obreve
Encoding: 334 334 198
Width: 600
GlyphClass: 2
Flags: W
LayerCount: 2
Fore
SplineSet
420 903 m 1,0,1
 420 860 420 860 384.5 831.5 c 128,-1,2
 349 803 349 803 300 803 c 128,-1,3
 251 803 251 803 215.5 831.5 c 128,-1,4
 180 860 180 860 180 903 c 1,5,-1
 256 903 l 1,6,7
 256 885 256 885 269 872.5 c 128,-1,8
 282 860 282 860 300 860 c 128,-1,9
 318 860 318 860 331 872.5 c 128,-1,10
 344 885 344 885 344 903 c 1,11,-1
 420 903 l 1,0,1
460 363 m 128,-1,13
 460 418 460 418 457.5 453 c 128,-1,14
 455 488 455 488 442 533.5 c 128,-1,15
 429 579 429 579 404 612 c 0,16,17
 362 668 362 668 300 668 c 128,-1,18
 238 668 238 668 196 612 c 0,19,20
 171 579 171 579 158 533.5 c 128,-1,21
 145 488 145 488 142.5 453 c 128,-1,22
 140 418 140 418 140 363 c 128,-1,23
 140 308 140 308 142.5 272.5 c 128,-1,24
 145 237 145 237 158 191.5 c 128,-1,25
 171 146 171 146 196 113 c 0,26,27
 238 57 238 57 300 57 c 128,-1,28
 362 57 362 57 404 113 c 0,29,30
 429 146 429 146 442 191.5 c 128,-1,31
 455 237 455 237 457.5 272.5 c 128,-1,12
 460 308 460 308 460 363 c 128,-1,13
300 743 m 128,-1,33
 335 743 335 743 369.5 733 c 128,-1,34
 404 723 404 723 441.5 696.5 c 128,-1,35
 479 670 479 670 506.5 628.5 c 128,-1,36
 534 587 534 587 552 518.5 c 128,-1,37
 570 450 570 450 570 363 c 0,38,39
 570 275 570 275 552 206.5 c 128,-1,40
 534 138 534 138 506.5 96.5 c 128,-1,41
 479 55 479 55 441.5 28.5 c 128,-1,42
 404 2 404 2 369.5 -8 c 128,-1,43
 335 -18 335 -18 300 -18 c 128,-1,44
 265 -18 265 -18 230.5 -8 c 128,-1,45
 196 2 196 2 158.5 28.5 c 128,-1,46
 121 55 121 55 93.5 96.5 c 128,-1,47
 66 138 66 138 48 206.5 c 128,-1,48
 30 275 30 275 30 363 c 0,49,50
 30 450 30 450 48 518.5 c 128,-1,51
 66 587 66 587 93.5 628.5 c 128,-1,52
 121 670 121 670 158.5 696.5 c 128,-1,53
 196 723 196 723 230.5 733 c 128,-1,32
 265 743 265 743 300 743 c 128,-1,33
EndSplineSet
Validated: 1
EndChar

StartChar: obreve
Encoding: 335 335 199
Width: 600
GlyphClass: 2
Flags: W
LayerCount: 2
Fore
SplineSet
420 708 m 1,0,1
 420 665 420 665 384.5 636.5 c 128,-1,2
 349 608 349 608 300 608 c 128,-1,3
 251 608 251 608 215.5 636.5 c 128,-1,4
 180 665 180 665 180 708 c 1,5,-1
 256 708 l 1,6,7
 256 690 256 690 269 677.5 c 128,-1,8
 282 665 282 665 300 665 c 128,-1,9
 318 665 318 665 331 677.5 c 128,-1,10
 344 690 344 690 344 708 c 1,11,-1
 420 708 l 1,0,1
440 265 m 128,-1,13
 440 384 440 384 394 433 c 0,14,15
 356 471 356 471 300 471 c 128,-1,16
 244 471 244 471 206 433 c 0,17,18
 160 384 160 384 160 265 c 128,-1,19
 160 146 160 146 206 97 c 0,20,21
 244 59 244 59 300 59 c 128,-1,22
 356 59 356 59 394 97 c 0,23,12
 440 146 440 146 440 265 c 128,-1,13
300 542 m 0,24,25
 410 542 410 542 477.5 466.5 c 128,-1,26
 545 391 545 391 545 265 c 128,-1,27
 545 139 545 139 478 63.5 c 128,-1,28
 411 -12 411 -12 300 -12 c 0,29,30
 190 -12 190 -12 122.5 63.5 c 128,-1,31
 55 139 55 139 55 265 c 128,-1,32
 55 391 55 391 122 466.5 c 128,-1,33
 189 542 189 542 300 542 c 0,24,25
EndSplineSet
Validated: 1
EndChar

StartChar: Ohungarumlaut
Encoding: 336 336 200
Width: 600
GlyphClass: 2
Flags: W
LayerCount: 2
Fore
SplineSet
324 956 m 1,0,-1
 210 796 l 1,1,-1
 153 796 l 1,2,-1
 229 956 l 1,3,-1
 324 956 l 1,0,-1
490 956 m 1,4,-1
 376 796 l 1,5,-1
 319 796 l 1,6,-1
 395 956 l 1,7,-1
 490 956 l 1,4,-1
460 363 m 128,-1,9
 460 418 460 418 457.5 453 c 128,-1,10
 455 488 455 488 442 533.5 c 128,-1,11
 429 579 429 579 404 612 c 0,12,13
 362 668 362 668 300 668 c 128,-1,14
 238 668 238 668 196 612 c 0,15,16
 171 579 171 579 158 533.5 c 128,-1,17
 145 488 145 488 142.5 453 c 128,-1,18
 140 418 140 418 140 363 c 128,-1,19
 140 308 140 308 142.5 272.5 c 128,-1,20
 145 237 145 237 158 191.5 c 128,-1,21
 171 146 171 146 196 113 c 0,22,23
 238 57 238 57 300 57 c 128,-1,24
 362 57 362 57 404 113 c 0,25,26
 429 146 429 146 442 191.5 c 128,-1,27
 455 237 455 237 457.5 272.5 c 128,-1,8
 460 308 460 308 460 363 c 128,-1,9
300 743 m 128,-1,29
 335 743 335 743 369.5 733 c 128,-1,30
 404 723 404 723 441.5 696.5 c 128,-1,31
 479 670 479 670 506.5 628.5 c 128,-1,32
 534 587 534 587 552 518.5 c 128,-1,33
 570 450 570 450 570 363 c 0,34,35
 570 275 570 275 552 206.5 c 128,-1,36
 534 138 534 138 506.5 96.5 c 128,-1,37
 479 55 479 55 441.5 28.5 c 128,-1,38
 404 2 404 2 369.5 -8 c 128,-1,39
 335 -18 335 -18 300 -18 c 128,-1,40
 265 -18 265 -18 230.5 -8 c 128,-1,41
 196 2 196 2 158.5 28.5 c 128,-1,42
 121 55 121 55 93.5 96.5 c 128,-1,43
 66 138 66 138 48 206.5 c 128,-1,44
 30 275 30 275 30 363 c 0,45,46
 30 450 30 450 48 518.5 c 128,-1,47
 66 587 66 587 93.5 628.5 c 128,-1,48
 121 670 121 670 158.5 696.5 c 128,-1,49
 196 723 196 723 230.5 733 c 128,-1,28
 265 743 265 743 300 743 c 128,-1,29
EndSplineSet
Validated: 1
EndChar

StartChar: ohungarumlaut
Encoding: 337 337 201
Width: 600
GlyphClass: 2
Flags: W
LayerCount: 2
Fore
SplineSet
324 761 m 1,0,-1
 210 601 l 1,1,-1
 153 601 l 1,2,-1
 229 761 l 1,3,-1
 324 761 l 1,0,-1
490 761 m 1,4,-1
 376 601 l 1,5,-1
 319 601 l 1,6,-1
 395 761 l 1,7,-1
 490 761 l 1,4,-1
440 265 m 128,-1,9
 440 384 440 384 394 433 c 0,10,11
 356 471 356 471 300 471 c 128,-1,12
 244 471 244 471 206 433 c 0,13,14
 160 384 160 384 160 265 c 128,-1,15
 160 146 160 146 206 97 c 0,16,17
 244 59 244 59 300 59 c 128,-1,18
 356 59 356 59 394 97 c 0,19,8
 440 146 440 146 440 265 c 128,-1,9
300 542 m 0,20,21
 410 542 410 542 477.5 466.5 c 128,-1,22
 545 391 545 391 545 265 c 128,-1,23
 545 139 545 139 478 63.5 c 128,-1,24
 411 -12 411 -12 300 -12 c 0,25,26
 190 -12 190 -12 122.5 63.5 c 128,-1,27
 55 139 55 139 55 265 c 128,-1,28
 55 391 55 391 122 466.5 c 128,-1,29
 189 542 189 542 300 542 c 0,20,21
EndSplineSet
Validated: 1
EndChar

StartChar: Racute
Encoding: 340 340 202
Width: 600
GlyphClass: 2
Flags: W
LayerCount: 2
Fore
SplineSet
414 956 m 1,0,-1
 300 796 l 1,1,-1
 243 796 l 1,2,-1
 319 956 l 1,3,-1
 414 956 l 1,0,-1
540 513 m 0,4,5
 540 499 540 499 538.5 485 c 128,-1,6
 537 471 537 471 532 447.5 c 128,-1,7
 527 424 527 424 514.5 403.5 c 128,-1,8
 502 383 502 383 483.5 361.5 c 128,-1,9
 465 340 465 340 433.5 323.5 c 128,-1,10
 402 307 402 307 361 299 c 1,11,-1
 598 0 l 1,12,-1
 482 0 l 1,13,-1
 252 289 l 1,14,15
 236 289 236 289 203 289 c 2,16,-1
 160 289 l 1,17,-1
 160 0 l 1,18,-1
 60 0 l 1,19,-1
 60 725 l 1,20,-1
 227 725 l 2,21,22
 287 725 287 725 319.5 723 c 128,-1,23
 352 721 352 721 397.5 708.5 c 128,-1,24
 443 696 443 696 473 670 c 0,25,26
 540 613 540 613 540 513 c 0,4,5
160 364 m 1,27,-1
 229 364 l 2,28,29
 270 364 270 364 291.5 365.5 c 128,-1,30
 313 367 313 367 343.5 376 c 128,-1,31
 374 385 374 385 395 403 c 0,32,33
 440 443 440 443 440 513 c 0,34,35
 440 578 440 578 400 615 c 0,36,37
 382 631 382 631 355 639.5 c 128,-1,38
 328 648 328 648 308.5 649 c 128,-1,39
 289 650 289 650 252 650 c 2,40,-1
 160 650 l 1,41,-1
 160 364 l 1,27,-1
EndSplineSet
Validated: 1
EndChar

StartChar: racute
Encoding: 341 341 203
Width: 600
GlyphClass: 2
Flags: W
LayerCount: 2
Fore
SplineSet
442 761 m 1,0,-1
 328 601 l 1,1,-1
 271 601 l 1,2,-1
 347 761 l 1,3,-1
 442 761 l 1,0,-1
525 450 m 1,4,5
 490 457 490 457 458 457 c 0,6,7
 377 457 377 457 312.5 420 c 128,-1,8
 248 383 248 383 225 322 c 1,9,-1
 225 0 l 1,10,-1
 130 0 l 1,11,-1
 130 530 l 1,12,-1
 225 530 l 1,13,-1
 225 410 l 1,14,15
 249 450 249 450 284.5 479.5 c 128,-1,16
 320 509 320 509 366 525.5 c 128,-1,17
 412 542 412 542 463 542 c 0,18,19
 506 542 506 542 525 538 c 1,20,-1
 525 450 l 1,4,5
EndSplineSet
Validated: 1
EndChar

StartChar: Rcaron
Encoding: 344 344 204
Width: 600
GlyphClass: 2
Flags: W
LayerCount: 2
Fore
SplineSet
540 513 m 0,0,1
 540 499 540 499 538.5 485 c 128,-1,2
 537 471 537 471 532 447.5 c 128,-1,3
 527 424 527 424 514.5 403.5 c 128,-1,4
 502 383 502 383 483.5 361.5 c 128,-1,5
 465 340 465 340 433.5 323.5 c 128,-1,6
 402 307 402 307 361 299 c 1,7,-1
 598 0 l 1,8,-1
 482 0 l 1,9,-1
 252 289 l 1,10,11
 236 289 236 289 203 289 c 2,12,-1
 160 289 l 1,13,-1
 160 0 l 1,14,-1
 60 0 l 1,15,-1
 60 725 l 1,16,-1
 227 725 l 2,17,18
 287 725 287 725 319.5 723 c 128,-1,19
 352 721 352 721 397.5 708.5 c 128,-1,20
 443 696 443 696 473 670 c 0,21,22
 540 613 540 613 540 513 c 0,0,1
300 848 m 1,23,-1
 381 938 l 1,24,-1
 457 938 l 1,25,-1
 347 796 l 1,26,-1
 253 796 l 1,27,-1
 143 938 l 1,28,-1
 219 938 l 1,29,-1
 300 848 l 1,23,-1
160 364 m 1,30,-1
 229 364 l 2,31,32
 270 364 270 364 291.5 365.5 c 128,-1,33
 313 367 313 367 343.5 376 c 128,-1,34
 374 385 374 385 395 403 c 0,35,36
 440 443 440 443 440 513 c 0,37,38
 440 578 440 578 400 615 c 0,39,40
 382 631 382 631 355 639.5 c 128,-1,41
 328 648 328 648 308.5 649 c 128,-1,42
 289 650 289 650 252 650 c 2,43,-1
 160 650 l 1,44,-1
 160 364 l 1,30,-1
EndSplineSet
Validated: 1
EndChar

StartChar: rcaron
Encoding: 345 345 205
Width: 600
GlyphClass: 2
Flags: W
LayerCount: 2
Fore
SplineSet
525 450 m 1,0,1
 490 457 490 457 458 457 c 0,2,3
 377 457 377 457 312.5 420 c 128,-1,4
 248 383 248 383 225 322 c 1,5,-1
 225 0 l 1,6,-1
 130 0 l 1,7,-1
 130 530 l 1,8,-1
 225 530 l 1,9,-1
 225 410 l 1,10,11
 249 450 249 450 284.5 479.5 c 128,-1,12
 320 509 320 509 366 525.5 c 128,-1,13
 412 542 412 542 463 542 c 0,14,15
 506 542 506 542 525 538 c 1,16,-1
 525 450 l 1,0,1
328 653 m 1,17,-1
 409 743 l 1,18,-1
 485 743 l 1,19,-1
 375 601 l 1,20,-1
 281 601 l 1,21,-1
 171 743 l 1,22,-1
 247 743 l 1,23,-1
 328 653 l 1,17,-1
EndSplineSet
Validated: 1
EndChar

StartChar: Sacute
Encoding: 346 346 206
Width: 600
GlyphClass: 2
Flags: W
LayerCount: 2
Fore
SplineSet
414 956 m 1,0,-1
 300 796 l 1,1,-1
 243 796 l 1,2,-1
 319 956 l 1,3,-1
 414 956 l 1,0,-1
565 198 m 0,4,5
 565 96 565 96 484 39 c 128,-1,6
 403 -18 403 -18 280 -18 c 0,7,8
 145 -18 145 -18 35 42 c 1,9,-1
 35 134 l 1,10,11
 178 57 178 57 295 57 c 0,12,13
 367 57 367 57 416 86 c 128,-1,14
 465 115 465 115 465 175 c 0,15,16
 465 226 465 226 424.5 259 c 128,-1,17
 384 292 384 292 296 320 c 2,18,-1
 251 335 l 2,19,20
 126 377 126 377 80.5 418 c 128,-1,21
 35 459 35 459 35 526 c 0,22,23
 35 631 35 631 113.5 687 c 128,-1,24
 192 743 192 743 306 743 c 0,25,26
 405 743 405 743 515 700 c 1,27,-1
 515 615 l 1,28,29
 384 668 384 668 298 668 c 0,30,31
 230 668 230 668 182.5 641 c 128,-1,32
 135 614 135 614 135 554 c 0,33,34
 135 508 135 508 169 486.5 c 128,-1,35
 203 465 203 465 306 431 c 2,36,-1
 352 417 l 2,37,38
 465 380 465 380 515 326 c 128,-1,39
 565 272 565 272 565 198 c 0,4,5
EndSplineSet
Validated: 1
EndChar

StartChar: sacute
Encoding: 347 347 207
Width: 600
GlyphClass: 2
Flags: W
LayerCount: 2
Fore
SplineSet
414 761 m 1,0,-1
 300 601 l 1,1,-1
 243 601 l 1,2,-1
 319 761 l 1,3,-1
 414 761 l 1,0,-1
528 154 m 0,4,5
 528 78 528 78 457.5 33 c 128,-1,6
 387 -12 387 -12 272 -12 c 0,7,8
 163 -12 163 -12 80 20 c 1,9,-1
 80 95 l 1,10,11
 174 59 174 59 283 59 c 0,12,13
 351 59 351 59 392 77.5 c 128,-1,14
 433 96 433 96 433 131 c 0,15,16
 433 148 433 148 423.5 162 c 128,-1,17
 414 176 414 176 393.5 187 c 128,-1,18
 373 198 373 198 358 204 c 128,-1,19
 343 210 343 210 315 219 c 2,20,-1
 238 244 l 2,21,22
 80 295 80 295 80 392 c 0,23,24
 80 462 80 462 150 502 c 128,-1,25
 220 542 220 542 320 542 c 0,26,27
 391 542 391 542 493 520 c 1,28,-1
 493 445 l 1,29,30
 380 471 380 471 308 471 c 0,31,32
 253 471 253 471 213.5 458 c 128,-1,33
 174 445 174 445 174 416 c 0,34,35
 174 401 174 401 184 388 c 128,-1,36
 194 375 194 375 215 365 c 128,-1,37
 236 355 236 355 250.5 349 c 128,-1,38
 265 343 265 343 291 335 c 2,39,-1
 368 310 l 2,40,41
 442 286 442 286 485 250 c 128,-1,42
 528 214 528 214 528 154 c 0,4,5
EndSplineSet
Validated: 1
EndChar

StartChar: Scircumflex
Encoding: 348 348 208
Width: 600
GlyphClass: 2
Flags: W
LayerCount: 2
Fore
SplineSet
457 796 m 1,0,-1
 381 796 l 1,1,-1
 300 886 l 1,2,-1
 219 796 l 1,3,-1
 143 796 l 1,4,-1
 253 938 l 1,5,-1
 347 938 l 1,6,-1
 457 796 l 1,0,-1
565 198 m 0,7,8
 565 96 565 96 484 39 c 128,-1,9
 403 -18 403 -18 280 -18 c 0,10,11
 145 -18 145 -18 35 42 c 1,12,-1
 35 134 l 1,13,14
 178 57 178 57 295 57 c 0,15,16
 367 57 367 57 416 86 c 128,-1,17
 465 115 465 115 465 175 c 0,18,19
 465 226 465 226 424.5 259 c 128,-1,20
 384 292 384 292 296 320 c 2,21,-1
 251 335 l 2,22,23
 126 377 126 377 80.5 418 c 128,-1,24
 35 459 35 459 35 526 c 0,25,26
 35 631 35 631 113.5 687 c 128,-1,27
 192 743 192 743 306 743 c 0,28,29
 405 743 405 743 515 700 c 1,30,-1
 515 615 l 1,31,32
 384 668 384 668 298 668 c 0,33,34
 230 668 230 668 182.5 641 c 128,-1,35
 135 614 135 614 135 554 c 0,36,37
 135 508 135 508 169 486.5 c 128,-1,38
 203 465 203 465 306 431 c 2,39,-1
 352 417 l 2,40,41
 465 380 465 380 515 326 c 128,-1,42
 565 272 565 272 565 198 c 0,7,8
EndSplineSet
Validated: 1
EndChar

StartChar: scircumflex
Encoding: 349 349 209
Width: 600
GlyphClass: 2
Flags: W
LayerCount: 2
Fore
SplineSet
457 601 m 1,0,-1
 381 601 l 1,1,-1
 300 691 l 1,2,-1
 219 601 l 1,3,-1
 143 601 l 1,4,-1
 253 743 l 1,5,-1
 347 743 l 1,6,-1
 457 601 l 1,0,-1
528 154 m 0,7,8
 528 78 528 78 457.5 33 c 128,-1,9
 387 -12 387 -12 272 -12 c 0,10,11
 163 -12 163 -12 80 20 c 1,12,-1
 80 95 l 1,13,14
 174 59 174 59 283 59 c 0,15,16
 351 59 351 59 392 77.5 c 128,-1,17
 433 96 433 96 433 131 c 0,18,19
 433 148 433 148 423.5 162 c 128,-1,20
 414 176 414 176 393.5 187 c 128,-1,21
 373 198 373 198 358 204 c 128,-1,22
 343 210 343 210 315 219 c 2,23,-1
 238 244 l 2,24,25
 80 295 80 295 80 392 c 0,26,27
 80 462 80 462 150 502 c 128,-1,28
 220 542 220 542 320 542 c 0,29,30
 391 542 391 542 493 520 c 1,31,-1
 493 445 l 1,32,33
 380 471 380 471 308 471 c 0,34,35
 253 471 253 471 213.5 458 c 128,-1,36
 174 445 174 445 174 416 c 0,37,38
 174 401 174 401 184 388 c 128,-1,39
 194 375 194 375 215 365 c 128,-1,40
 236 355 236 355 250.5 349 c 128,-1,41
 265 343 265 343 291 335 c 2,42,-1
 368 310 l 2,43,44
 442 286 442 286 485 250 c 128,-1,45
 528 214 528 214 528 154 c 0,7,8
EndSplineSet
Validated: 1
EndChar

StartChar: Tcaron
Encoding: 356 356 210
Width: 600
GlyphClass: 2
Flags: W
LayerCount: 2
Fore
SplineSet
590 650 m 1,0,-1
 350 650 l 1,1,-1
 350 0 l 1,2,-1
 250 0 l 1,3,-1
 250 650 l 1,4,-1
 10 650 l 1,5,-1
 10 725 l 1,6,-1
 590 725 l 1,7,-1
 590 650 l 1,0,-1
300 848 m 1,8,-1
 381 938 l 1,9,-1
 457 938 l 1,10,-1
 347 796 l 1,11,-1
 253 796 l 1,12,-1
 143 938 l 1,13,-1
 219 938 l 1,14,-1
 300 848 l 1,8,-1
EndSplineSet
Validated: 1
EndChar

StartChar: tcaron
Encoding: 357 357 211
Width: 600
GlyphClass: 2
Flags: W
LayerCount: 2
Fore
SplineSet
302 177 m 2,0,1
 302 144 302 144 304 127 c 128,-1,2
 306 110 306 110 315 92 c 128,-1,3
 324 74 324 74 344.5 66.5 c 128,-1,4
 365 59 365 59 399 59 c 128,-1,5
 433 59 433 59 503 67 c 1,6,-1
 503 -4 l 1,7,8
 429 -12 429 -12 376 -12 c 0,9,10
 328 -12 328 -12 296 -3 c 128,-1,11
 264 6 264 6 246.5 19.5 c 128,-1,12
 229 33 229 33 220 62 c 128,-1,13
 211 91 211 91 209 116 c 128,-1,14
 207 141 207 141 207 188 c 2,15,-1
 207 459 l 1,16,-1
 75 459 l 1,17,-1
 75 530 l 1,18,-1
 207 530 l 1,19,-1
 207 650 l 1,20,-1
 302 650 l 1,21,-1
 302 530 l 1,22,-1
 503 530 l 1,23,-1
 503 459 l 1,24,-1
 302 459 l 1,25,-1
 302 177 l 2,0,1
300 893 m 1,26,-1
 381 983 l 1,27,-1
 457 983 l 1,28,-1
 347 841 l 1,29,-1
 253 841 l 1,30,-1
 143 983 l 1,31,-1
 219 983 l 1,32,-1
 300 893 l 1,26,-1
EndSplineSet
Validated: 1
EndChar

StartChar: Umacron
Encoding: 362 362 212
Width: 600
GlyphClass: 2
Flags: W
LayerCount: 2
Fore
SplineSet
442 825 m 1,0,-1
 158 825 l 1,1,-1
 158 896 l 1,2,-1
 442 896 l 1,3,-1
 442 825 l 1,0,-1
540 278 m 2,4,5
 540 220 540 220 538 189 c 128,-1,6
 536 158 536 158 521.5 115 c 128,-1,7
 507 72 507 72 478 44 c 0,8,9
 415 -18 415 -18 300 -18 c 128,-1,10
 185 -18 185 -18 122 44 c 0,11,12
 93 72 93 72 78.5 115 c 128,-1,13
 64 158 64 158 62 189 c 128,-1,14
 60 220 60 220 60 278 c 2,15,-1
 60 725 l 1,16,-1
 160 725 l 1,17,-1
 160 259 l 2,18,19
 160 220 160 220 161.5 199 c 128,-1,20
 163 178 163 178 171.5 149 c 128,-1,21
 180 120 180 120 197 100 c 0,22,23
 235 57 235 57 300 57 c 128,-1,24
 365 57 365 57 404 100 c 0,25,26
 421 120 421 120 429.5 149 c 128,-1,27
 438 178 438 178 439 199 c 128,-1,28
 440 220 440 220 440 259 c 2,29,-1
 440 725 l 1,30,-1
 540 725 l 1,31,-1
 540 278 l 2,4,5
EndSplineSet
Validated: 1
EndChar

StartChar: umacron
Encoding: 363 363 213
Width: 600
GlyphClass: 2
Flags: W
LayerCount: 2
Fore
SplineSet
442 630 m 1,0,-1
 158 630 l 1,1,-1
 158 701 l 1,2,-1
 442 701 l 1,3,-1
 442 630 l 1,0,-1
170 185 m 2,4,5
 170 162 170 162 170.5 149 c 128,-1,6
 171 136 171 136 175.5 116 c 128,-1,7
 180 96 180 96 188 85.5 c 128,-1,8
 196 75 196 75 212.5 67 c 128,-1,9
 229 59 229 59 253 59 c 0,10,11
 305 59 305 59 350.5 91 c 128,-1,12
 396 123 396 123 430 176 c 1,13,-1
 430 530 l 1,14,-1
 525 530 l 1,15,-1
 525 0 l 1,16,-1
 430 0 l 1,17,-1
 430 98 l 1,18,19
 335 -12 335 -12 218 -12 c 0,20,21
 188 -12 188 -12 164.5 -3.5 c 128,-1,22
 141 5 141 5 126 15.5 c 128,-1,23
 111 26 111 26 100.5 47.5 c 128,-1,24
 90 69 90 69 85 83 c 128,-1,25
 80 97 80 97 77.5 125 c 128,-1,26
 75 153 75 153 75 164.5 c 128,-1,27
 75 176 75 176 75 203 c 2,28,-1
 75 530 l 1,29,-1
 170 530 l 1,30,-1
 170 185 l 2,4,5
EndSplineSet
Validated: 1
EndChar

StartChar: Ubreve
Encoding: 364 364 214
Width: 600
GlyphClass: 2
Flags: W
LayerCount: 2
Fore
SplineSet
420 903 m 1,0,1
 420 860 420 860 384.5 831.5 c 128,-1,2
 349 803 349 803 300 803 c 128,-1,3
 251 803 251 803 215.5 831.5 c 128,-1,4
 180 860 180 860 180 903 c 1,5,-1
 256 903 l 1,6,7
 256 885 256 885 269 872.5 c 128,-1,8
 282 860 282 860 300 860 c 128,-1,9
 318 860 318 860 331 872.5 c 128,-1,10
 344 885 344 885 344 903 c 1,11,-1
 420 903 l 1,0,1
540 278 m 2,12,13
 540 220 540 220 538 189 c 128,-1,14
 536 158 536 158 521.5 115 c 128,-1,15
 507 72 507 72 478 44 c 0,16,17
 415 -18 415 -18 300 -18 c 128,-1,18
 185 -18 185 -18 122 44 c 0,19,20
 93 72 93 72 78.5 115 c 128,-1,21
 64 158 64 158 62 189 c 128,-1,22
 60 220 60 220 60 278 c 2,23,-1
 60 725 l 1,24,-1
 160 725 l 1,25,-1
 160 259 l 2,26,27
 160 220 160 220 161.5 199 c 128,-1,28
 163 178 163 178 171.5 149 c 128,-1,29
 180 120 180 120 197 100 c 0,30,31
 235 57 235 57 300 57 c 128,-1,32
 365 57 365 57 404 100 c 0,33,34
 421 120 421 120 429.5 149 c 128,-1,35
 438 178 438 178 439 199 c 128,-1,36
 440 220 440 220 440 259 c 2,37,-1
 440 725 l 1,38,-1
 540 725 l 1,39,-1
 540 278 l 2,12,13
EndSplineSet
Validated: 1
EndChar

StartChar: ubreve
Encoding: 365 365 215
Width: 600
GlyphClass: 2
Flags: W
LayerCount: 2
Fore
SplineSet
420 708 m 1,0,1
 420 665 420 665 384.5 636.5 c 128,-1,2
 349 608 349 608 300 608 c 128,-1,3
 251 608 251 608 215.5 636.5 c 128,-1,4
 180 665 180 665 180 708 c 1,5,-1
 256 708 l 1,6,7
 256 690 256 690 269 677.5 c 128,-1,8
 282 665 282 665 300 665 c 128,-1,9
 318 665 318 665 331 677.5 c 128,-1,10
 344 690 344 690 344 708 c 1,11,-1
 420 708 l 1,0,1
170 185 m 2,12,13
 170 162 170 162 170.5 149 c 128,-1,14
 171 136 171 136 175.5 116 c 128,-1,15
 180 96 180 96 188 85.5 c 128,-1,16
 196 75 196 75 212.5 67 c 128,-1,17
 229 59 229 59 253 59 c 0,18,19
 305 59 305 59 350.5 91 c 128,-1,20
 396 123 396 123 430 176 c 1,21,-1
 430 530 l 1,22,-1
 525 530 l 1,23,-1
 525 0 l 1,24,-1
 430 0 l 1,25,-1
 430 98 l 1,26,27
 335 -12 335 -12 218 -12 c 0,28,29
 188 -12 188 -12 164.5 -3.5 c 128,-1,30
 141 5 141 5 126 15.5 c 128,-1,31
 111 26 111 26 100.5 47.5 c 128,-1,32
 90 69 90 69 85 83 c 128,-1,33
 80 97 80 97 77.5 125 c 128,-1,34
 75 153 75 153 75 164.5 c 128,-1,35
 75 176 75 176 75 203 c 2,36,-1
 75 530 l 1,37,-1
 170 530 l 1,38,-1
 170 185 l 2,12,13
EndSplineSet
Validated: 1
EndChar

StartChar: Uring
Encoding: 366 366 216
Width: 600
GlyphClass: 2
Flags: W
LayerCount: 2
Fore
SplineSet
357 894 m 0,0,1
 357 918 357 918 340 934.5 c 128,-1,2
 323 951 323 951 300 951 c 128,-1,3
 277 951 277 951 260 934.5 c 128,-1,4
 243 918 243 918 243 894 c 0,5,6
 243 871 243 871 260 854.5 c 128,-1,7
 277 838 277 838 300 838 c 128,-1,8
 323 838 323 838 340 854.5 c 128,-1,9
 357 871 357 871 357 894 c 0,0,1
414 894 m 128,-1,11
 414 850 414 850 380 820 c 128,-1,12
 346 790 346 790 300 790 c 128,-1,13
 254 790 254 790 220 820 c 128,-1,14
 186 850 186 850 186 894 c 128,-1,15
 186 938 186 938 219.5 968 c 128,-1,16
 253 998 253 998 300 998 c 128,-1,17
 347 998 347 998 380.5 968 c 128,-1,10
 414 938 414 938 414 894 c 128,-1,11
540 278 m 2,18,19
 540 220 540 220 538 189 c 128,-1,20
 536 158 536 158 521.5 115 c 128,-1,21
 507 72 507 72 478 44 c 0,22,23
 415 -18 415 -18 300 -18 c 128,-1,24
 185 -18 185 -18 122 44 c 0,25,26
 93 72 93 72 78.5 115 c 128,-1,27
 64 158 64 158 62 189 c 128,-1,28
 60 220 60 220 60 278 c 2,29,-1
 60 725 l 1,30,-1
 160 725 l 1,31,-1
 160 259 l 2,32,33
 160 220 160 220 161.5 199 c 128,-1,34
 163 178 163 178 171.5 149 c 128,-1,35
 180 120 180 120 197 100 c 0,36,37
 235 57 235 57 300 57 c 128,-1,38
 365 57 365 57 404 100 c 0,39,40
 421 120 421 120 429.5 149 c 128,-1,41
 438 178 438 178 439 199 c 128,-1,42
 440 220 440 220 440 259 c 2,43,-1
 440 725 l 1,44,-1
 540 725 l 1,45,-1
 540 278 l 2,18,19
EndSplineSet
Validated: 1
EndChar

StartChar: uring
Encoding: 367 367 217
Width: 600
GlyphClass: 2
Flags: W
LayerCount: 2
Fore
SplineSet
357 699 m 0,0,1
 357 723 357 723 340 739.5 c 128,-1,2
 323 756 323 756 300 756 c 128,-1,3
 277 756 277 756 260 739.5 c 128,-1,4
 243 723 243 723 243 699 c 0,5,6
 243 676 243 676 260 659.5 c 128,-1,7
 277 643 277 643 300 643 c 128,-1,8
 323 643 323 643 340 659.5 c 128,-1,9
 357 676 357 676 357 699 c 0,0,1
414 699 m 128,-1,11
 414 655 414 655 380 625 c 128,-1,12
 346 595 346 595 300 595 c 128,-1,13
 254 595 254 595 220 625 c 128,-1,14
 186 655 186 655 186 699 c 128,-1,15
 186 743 186 743 219.5 773 c 128,-1,16
 253 803 253 803 300 803 c 128,-1,17
 347 803 347 803 380.5 773 c 128,-1,10
 414 743 414 743 414 699 c 128,-1,11
170 185 m 2,18,19
 170 162 170 162 170.5 149 c 128,-1,20
 171 136 171 136 175.5 116 c 128,-1,21
 180 96 180 96 188 85.5 c 128,-1,22
 196 75 196 75 212.5 67 c 128,-1,23
 229 59 229 59 253 59 c 0,24,25
 305 59 305 59 350.5 91 c 128,-1,26
 396 123 396 123 430 176 c 1,27,-1
 430 530 l 1,28,-1
 525 530 l 1,29,-1
 525 0 l 1,30,-1
 430 0 l 1,31,-1
 430 98 l 1,32,33
 335 -12 335 -12 218 -12 c 0,34,35
 188 -12 188 -12 164.5 -3.5 c 128,-1,36
 141 5 141 5 126 15.5 c 128,-1,37
 111 26 111 26 100.5 47.5 c 128,-1,38
 90 69 90 69 85 83 c 128,-1,39
 80 97 80 97 77.5 125 c 128,-1,40
 75 153 75 153 75 164.5 c 128,-1,41
 75 176 75 176 75 203 c 2,42,-1
 75 530 l 1,43,-1
 170 530 l 1,44,-1
 170 185 l 2,18,19
EndSplineSet
Validated: 1
EndChar

StartChar: Uhungarumlaut
Encoding: 368 368 218
Width: 600
GlyphClass: 2
Flags: W
LayerCount: 2
Fore
SplineSet
324 956 m 1,0,-1
 210 796 l 1,1,-1
 153 796 l 1,2,-1
 229 956 l 1,3,-1
 324 956 l 1,0,-1
490 956 m 1,4,-1
 376 796 l 1,5,-1
 319 796 l 1,6,-1
 395 956 l 1,7,-1
 490 956 l 1,4,-1
540 278 m 2,8,9
 540 220 540 220 538 189 c 128,-1,10
 536 158 536 158 521.5 115 c 128,-1,11
 507 72 507 72 478 44 c 0,12,13
 415 -18 415 -18 300 -18 c 128,-1,14
 185 -18 185 -18 122 44 c 0,15,16
 93 72 93 72 78.5 115 c 128,-1,17
 64 158 64 158 62 189 c 128,-1,18
 60 220 60 220 60 278 c 2,19,-1
 60 725 l 1,20,-1
 160 725 l 1,21,-1
 160 259 l 2,22,23
 160 220 160 220 161.5 199 c 128,-1,24
 163 178 163 178 171.5 149 c 128,-1,25
 180 120 180 120 197 100 c 0,26,27
 235 57 235 57 300 57 c 128,-1,28
 365 57 365 57 404 100 c 0,29,30
 421 120 421 120 429.5 149 c 128,-1,31
 438 178 438 178 439 199 c 128,-1,32
 440 220 440 220 440 259 c 2,33,-1
 440 725 l 1,34,-1
 540 725 l 1,35,-1
 540 278 l 2,8,9
EndSplineSet
Validated: 1
EndChar

StartChar: uhungarumlaut
Encoding: 369 369 219
Width: 600
GlyphClass: 2
Flags: W
LayerCount: 2
Fore
SplineSet
324 761 m 1,0,-1
 210 601 l 1,1,-1
 153 601 l 1,2,-1
 229 761 l 1,3,-1
 324 761 l 1,0,-1
490 761 m 1,4,-1
 376 601 l 1,5,-1
 319 601 l 1,6,-1
 395 761 l 1,7,-1
 490 761 l 1,4,-1
170 185 m 2,8,9
 170 162 170 162 170.5 149 c 128,-1,10
 171 136 171 136 175.5 116 c 128,-1,11
 180 96 180 96 188 85.5 c 128,-1,12
 196 75 196 75 212.5 67 c 128,-1,13
 229 59 229 59 253 59 c 0,14,15
 305 59 305 59 350.5 91 c 128,-1,16
 396 123 396 123 430 176 c 1,17,-1
 430 530 l 1,18,-1
 525 530 l 1,19,-1
 525 0 l 1,20,-1
 430 0 l 1,21,-1
 430 98 l 1,22,23
 335 -12 335 -12 218 -12 c 0,24,25
 188 -12 188 -12 164.5 -3.5 c 128,-1,26
 141 5 141 5 126 15.5 c 128,-1,27
 111 26 111 26 100.5 47.5 c 128,-1,28
 90 69 90 69 85 83 c 128,-1,29
 80 97 80 97 77.5 125 c 128,-1,30
 75 153 75 153 75 164.5 c 128,-1,31
 75 176 75 176 75 203 c 2,32,-1
 75 530 l 1,33,-1
 170 530 l 1,34,-1
 170 185 l 2,8,9
EndSplineSet
Validated: 1
EndChar

